<?xml version="1.0" standalone="no"?>
<!DOCTYPE svg PUBLIC "-//W3C//DTD SVG 1.1//EN" "http://www.w3.org/Graphics/SVG/1.1/DTD/svg11.dtd" >
<svg>
<metadata>
Created by FontForge 20120731 at Mon May 27 06:16:12 2019
 By www
Copyright (c) 2013 by Luciano Vergara. All rights reserved.
</metadata>
<defs>
<font id="KahloRndW04-LtPr" horiz-adv-x="648" >
  <font-face 
    font-family="KahloRndW04-LtPr"
    font-weight="300"
    font-stretch="normal"
    units-per-em="1000"
    panose-1="2 0 0 0 0 0 0 0 0 0"
    ascent="750"
    descent="-250"
    x-height="450"
    cap-height="700"
    bbox="-50 -497 1539.33 907.923"
    underline-thickness="50"
    underline-position="-100"
    unicode-range="U+0020-FB04"
  />
<missing-glyph horiz-adv-x="258" 
 />
    <glyph glyph-name=".notdef" horiz-adv-x="258" 
 />
    <glyph glyph-name=".null" horiz-adv-x="0" 
 />
    <glyph glyph-name="nonmarkingreturn" horiz-adv-x="333" 
 />
    <glyph glyph-name="space" unicode=" " horiz-adv-x="258" 
 />
    <glyph glyph-name="exclam" unicode="!" horiz-adv-x="216" 
d="M96 690q0 10 10 10h4q10 0 10 -10l-2 -551q0 -9 -9 -9h-2q-9 0 -9 9zM108 -10q-21 0 -21 21t21 21t21 -21t-21 -21z" />
    <glyph glyph-name="quotedbl" unicode="&#x22;" horiz-adv-x="275" 
d="M77 552q-7 0 -7 8l-3 130q0 10 10 10h3q10 0 10 -10l-3 -130q0 -8 -8 -8h-2zM195 552q-7 0 -7 8l-3 130q0 10 10 10h3q10 0 10 -10l-3 -130q0 -8 -8 -8h-2z" />
    <glyph glyph-name="numbersign" unicode="#" horiz-adv-x="618" 
d="M354 -8q-9 2 -7 11l45 203q2 8 -6 8h-219q-8 0 -10 -8l-46 -207q-2 -9 -11 -7h-2q-9 2 -7 11l45 203q2 8 -6 8h-86q-9 0 -9 9v2q0 9 9 9h91q8 0 10 8l49 219q2 8 -6 8h-86q-9 0 -9 9v2q0 9 9 9h90q8 0 10 8l46 204q2 9 11 7h2q10 -2 8 -11l-45 -200q-2 -8 6 -8h218
q8 0 10 8l46 204q2 9 12 7h2q9 -2 7 -11l-45 -200q-2 -8 6 -8h89q9 0 9 -9v-2q0 -9 -9 -9h-94q-8 0 -10 -8l-49 -219q-2 -8 6 -8h88q9 0 9 -9v-2q0 -9 -9 -9h-93q-8 0 -10 -8l-46 -207q-2 -9 -11 -7h-2zM225 469q-8 0 -10 -8l-49 -219q-2 -8 6 -8h219q8 0 10 8l49 219
q2 8 -6 8h-219z" />
    <glyph glyph-name="dollar" unicode="$" horiz-adv-x="468" 
d="M255 248q27 -4 57 -10.5t55 -20.5t41.5 -37.5t16.5 -62.5q0 -58 -50.5 -91.5t-131.5 -35.5q-7 0 -9 -9l-5 -102q0 -9 -9 -9l-2 1q-9 0 -9 9l5 102q0 9 -8 9q-37 2 -75 8.5t-68 19.5q-3 2 -5 5.5t0 6.5l1 2q3 7 11 5q29 -11 64 -18t73 -9q8 0 8 8l11 202q0 3 -2.5 6
t-5.5 3q-31 4 -61 11t-54 20t-38.5 33t-14.5 51q0 29 14 50t38.5 35.5t57 21.5t69.5 8q7 0 9 9l5 99q0 9 9 9l2 -1q10 0 8 -9l-5 -99q0 -9 8 -9q29 -2 61 -8t62 -17q8 -2 6 -12l-1 -2q-3 -8 -12 -6q-27 9 -57.5 15.5t-59.5 8.5q-7 0 -9 -8l-8 -173q0 -3 2.5 -6t5.5 -3z
M244 11q72 2 114.5 29.5t42.5 76.5q0 32 -13.5 51t-35 30.5t-47.5 17t-51 9.5q-7 0 -9 -7l-9 -199q0 -8 8 -8zM228 439q-32 -1 -60 -6.5t-49 -17t-33 -29t-12 -41.5q0 -25 12 -41t32.5 -26t46.5 -15.5t54 -9.5q3 -1 5.5 1.5t2.5 5.5l9 171q0 8 -8 8z" />
    <glyph glyph-name="percent" unicode="%" horiz-adv-x="804" 
d="M129 -4q-6 4 -2 12l534 695q6 8 13 2l1 -1q7 -5 2 -12l-534 -695q-5 -7 -12 -2zM200 339q-84 0 -120 48t-36 137q0 90 36 138t120 48q83 0 118.5 -47.5t35.5 -138.5q0 -90 -35.5 -137.5t-118.5 -47.5zM200 690q-74 0 -105 -43t-31 -123t31 -122.5t105 -42.5
q73 0 103 42.5t30 122.5q0 81 -30 123.5t-103 42.5zM606 -10q-84 0 -120 48t-36 137q0 90 36 138t120 48q83 0 118.5 -47.5t35.5 -138.5q0 -90 -35.5 -137.5t-118.5 -47.5zM606 341q-74 0 -105 -43t-31 -123t31 -122.5t105 -42.5q73 0 103 42.5t30 122.5q0 81 -30 123.5
t-103 42.5z" />
    <glyph glyph-name="ampersand" unicode="&#x26;" horiz-adv-x="640" 
d="M495 83q20 -17 48.5 -36.5t60.5 -36.5q8 -4 4 -12l-1 -2q-6 -8 -13 -4q-27 14 -58.5 35.5t-54.5 38.5q-6 4 -13 -1q-42 -40 -96.5 -57.5t-109.5 -17.5q-96 0 -152.5 46t-56.5 130q0 35 12 63t32.5 52t46.5 44.5t53 40.5q7 5 2 12q-32 48 -54.5 98.5t-22.5 101.5
q0 68 42 100t106 32q31 0 57 -8t45.5 -24t30.5 -41t11 -58q0 -32 -19 -62.5t-46 -57.5t-56.5 -49.5t-51.5 -38.5q-7 -5 -3 -12q46 -71 104.5 -134t122.5 -119q2 -2 6 -1.5t6 2.5q15 17 30 37.5t29 42t25 43.5t18 42q2 9 11 7l2 -1q10 -2 6 -11q-15 -43 -43.5 -90.5
t-60.5 -82.5q-2 -2 -2 -5.5t3 -5.5zM262 11q60 0 107.5 19t80.5 50q2 2 2 5.5t-2 5.5q-76 64 -130.5 127.5t-99.5 128.5q-5 7 -12 2q-27 -19 -50.5 -38.5t-41.5 -41t-28.5 -47t-10.5 -56.5q0 -75 50.5 -115t134.5 -40zM391 579q0 20 -6.5 40t-20.5 35.5t-37.5 25t-56.5 9.5
q-39 0 -63.5 -12t-38 -29t-18.5 -36t-5 -34q0 -46 21.5 -94t50.5 -93q5 -7 12 -2q23 17 51 38.5t53 46t41.5 51.5t16.5 54z" />
    <glyph glyph-name="quotesingle" unicode="'" horiz-adv-x="157" 
d="M77 552q-7 0 -7 8l-3 130q0 10 10 10h3q10 0 10 -10l-3 -130q0 -8 -8 -8h-2z" />
    <glyph glyph-name="parenleft" unicode="(" horiz-adv-x="282" 
d="M248 -214q-44 37 -80 85.5t-61.5 106.5t-40 125t-14.5 142t14.5 142t40 125t61.5 106t80 86q8 6 12 -1l1 -2q5 -7 -1 -13q-85 -76 -134.5 -188t-49.5 -255t49.5 -255t134.5 -188q7 -5 1 -13l-1 -2q-4 -7 -12 -1z" />
    <glyph glyph-name="parenright" unicode=")" horiz-adv-x="282" 
d="M32 704q43 -38 79.5 -86t62 -106t40 -125t14.5 -142t-14.5 -142t-40 -125t-62 -106.5t-79.5 -85.5q-8 -6 -12 1l-2 2q-6 7 2 13q85 76 134.5 188t49.5 255t-49.5 255t-134.5 188q-7 7 -2 13l2 2q4 7 12 1z" />
    <glyph glyph-name="asterisk" unicode="*" horiz-adv-x="387" 
d="M75 521q-8 -3 -13 4l-1 1q-4 8 4 12l99 58q6 4 0 8l-99 58q-8 4 -4 12l1 2q6 8 13 3l99 -58q2 -2 4.5 -0.5t2.5 4.5v116q0 9 9 9h2q9 0 9 -9v-116q0 -3 2.5 -4.5t4.5 0.5l100 58q3 2 6.5 1t5.5 -4l1 -2q2 -3 1 -6.5t-4 -5.5l-100 -58q-6 -4 0 -8l100 -58q3 -2 4 -5.5
t-1 -6.5l-1 -1q-2 -3 -5.5 -4t-6.5 1l-100 57q-2 2 -4.5 0.5t-2.5 -4.5v-115q0 -9 -9 -9h-2q-9 0 -9 9v114q0 3 -2.5 4.5t-4.5 -0.5z" />
    <glyph glyph-name="plus" unicode="+" horiz-adv-x="407" 
d="M193 403q0 9 9 9h2q9 0 9 -9v-123q0 -8 8 -8h123q9 0 9 -9v-2q0 -9 -9 -9h-123q-8 0 -8 -8v-122q0 -9 -9 -9h-2q-9 0 -9 9v122q0 8 -8 8h-122q-9 0 -9 9v2q0 9 9 9h122q8 0 8 8v123z" />
    <glyph glyph-name="comma" unicode="," horiz-adv-x="160" 
d="M64 -6q-7 6 -7 17q0 21 21 21t21 -21q0 -22 -9.5 -39.5t-23.5 -29.5q-6 -4 -11 1l-2 1q-5 5 0 10q11 13 16 25q3 10 -5 15z" />
    <glyph glyph-name="hyphen" unicode="-" horiz-adv-x="449" 
d="M365 272q9 0 9 -9v-2q0 -9 -9 -9h-281q-9 0 -9 9v2q0 9 9 9h281z" />
    <glyph glyph-name="period" unicode="." horiz-adv-x="160" 
d="M80 -10q-21 0 -21 21t21 21t21 -21t-21 -21z" />
    <glyph glyph-name="slash" unicode="/" horiz-adv-x="413" 
d="M41 -217q-9 4 -6 12l320 906q4 9 12 6h2q9 -3 7 -12l-321 -906q-4 -9 -12 -6h-2z" />
    <glyph glyph-name="zero" unicode="0" horiz-adv-x="519" 
d="M260 -10q-53 0 -90.5 15.5t-60.5 45.5t-33.5 74t-10.5 100t10.5 100t33.5 74t60.5 45.5t90.5 15.5t90 -15.5t60.5 -45.5t34 -74t10.5 -100q0 -113 -44.5 -174t-150.5 -61zM260 439q-47 0 -80 -14t-53 -41t-29 -67t-9 -92t9 -92t29 -67t53 -41t80 -14q94 0 132.5 55
t38.5 159q0 52 -9 92t-29.5 67t-53 41t-79.5 14z" />
    <glyph glyph-name="one" unicode="1" horiz-adv-x="302" 
d="M72 379q-9 -4 -14 4l-1 2q-5 9 4 14l99 59q4 2 9 2h2q5 0 5 -5v-424q0 -8 8 -8h88q10 0 10 -10v-3q0 -10 -10 -10h-214q-10 0 -10 10v3q0 10 10 10h88q8 0 8 8v389q0 3 -2.5 4.5t-4.5 -0.5z" />
    <glyph glyph-name="two" unicode="2" horiz-adv-x="457" 
d="M57 0q-7 0 -7 7v9q0 48 23.5 80.5t58 56.5t75.5 42.5t75.5 39t58 46.5t23.5 64q0 51 -36.5 72.5t-103.5 21.5q-33 0 -71.5 -6.5t-72.5 -18.5q-9 -2 -12 6l-1 2q-4 10 6 12q38 14 78.5 20t72.5 6q76 0 120 -27.5t44 -87.5q0 -41 -22.5 -69.5t-56.5 -50t-74 -40.5
t-75 -40.5t-59.5 -49t-26.5 -67.5q0 -8 8 -8h317q9 0 9 -9v-2q0 -9 -9 -9h-342z" />
    <glyph glyph-name="three" unicode="3" horiz-adv-x="474" 
d="M404 -42q0 46 -20 76t-52 49t-72 29t-80 15q-9 2 -9 10v2q0 9 8 12q31 13 62 30t55.5 38t39.5 47.5t15 58.5q0 51 -38 82.5t-106 31.5q-33 0 -71 -8t-72 -20q-10 -2 -13 6v2q-2 3 -0.5 6.5t5.5 4.5q38 14 78.5 22t72.5 8q39 0 70 -10t53 -28t33.5 -42.5t11.5 -54.5
q0 -34 -14.5 -61.5t-37.5 -49.5t-53 -39t-60 -30q-2 -1 -2 -2.5t2 -1.5q40 -5 79 -16.5t70 -33t50 -54.5t19 -79q0 -39 -15 -72t-43.5 -56.5t-68.5 -36.5t-90 -13q-52 0 -92.5 7.5t-82.5 22.5q-9 2 -5 12v2q3 8 13 6q39 -14 77.5 -21.5t89.5 -7.5q46 0 82 11.5t61 32.5
t37.5 50t12.5 63z" />
    <glyph glyph-name="four" unicode="4" horiz-adv-x="493" 
d="M364 -210q-10 0 -10 10v191q0 9 -8 9h-322q-9 0 -9 9v2q0 9 5 16l290 410q6 8 16 8l4 -1q3 0 4.5 -3t-0.5 -5l-289 -409q-2 -2 -0.5 -4.5t3.5 -2.5h298q8 0 8 8v265q0 10 10 10h2q10 0 10 -10v-265q0 -8 8 -8h80q9 0 9 -9v-2q0 -9 -9 -9h-80q-8 0 -8 -9v-191
q0 -10 -10 -10h-2z" />
    <glyph glyph-name="five" unicode="5" horiz-adv-x="483" 
d="M155 176q-19 0 -37 -1.5t-35 -3.5q-4 -1 -7 1.5t-2 6.5l13 261q0 10 10 10h294q10 0 10 -10v-3q0 -10 -10 -10h-276q-7 0 -9 -8l-11 -218q0 -7 8 -7q28 3 57 3q53 0 103.5 -11t89.5 -36.5t62.5 -67.5t23.5 -103q0 -45 -16 -81.5t-45 -62.5t-69.5 -40.5t-90.5 -14.5
q-53 0 -91.5 7.5t-80.5 22.5q-8 4 -5 11l1 2q4 8 11 5q39 -14 76.5 -20.5t88.5 -6.5q46 0 83 13.5t62 37.5t38.5 56.5t13.5 70.5q0 57 -22.5 94.5t-59.5 60.5t-83.5 32.5t-94.5 9.5z" />
    <glyph glyph-name="six" unicode="6" horiz-adv-x="539" 
d="M58 236q0 95 20 176.5t56.5 147.5t87 115.5t110.5 81.5q9 4 13 -5l1 -2q4 -9 -5 -13q-100 -53 -167 -153t-86 -246q-1 -2 0.5 -2.5t3.5 1.5q41 57 93 90t112 33q96 0 149.5 -59t53.5 -175q0 -58 -18 -102t-49 -74t-71.5 -45t-86.5 -15q-41 0 -80 14t-69.5 43.5t-49 76
t-18.5 112.5zM476 226q0 106 -46 159.5t-133 53.5q-57 0 -110.5 -35.5t-98.5 -106.5q-2 -3 -3 -7.5t-2 -7.5q0 -12 -0.5 -23.5t-0.5 -22.5q0 -60 16 -103t43 -70t62 -39.5t72 -12.5q42 0 78.5 14t64 41t43 67t15.5 93z" />
    <glyph glyph-name="seven" unicode="7" horiz-adv-x="397" 
d="M386 450q9 0 9 -9v-2q0 -7 -4 -17l-310 -633q-4 -10 -13 -4h-1q-9 5 -5 14l305 624q2 2 0.5 4.5t-4.5 2.5h-341q-9 0 -9 9v2q0 9 9 9h364z" />
    <glyph glyph-name="eight" unicode="8" horiz-adv-x="557" 
d="M497 165q0 -40 -16 -72t-45 -55t-70 -35.5t-91 -12.5q-47 0 -86.5 11t-68 33t-44 55t-15.5 76q0 41 15.5 71t40.5 53t57.5 40.5t66.5 34.5q2 2 2 4t-2 3q-37 17 -66 35.5t-49.5 40t-31.5 48t-11 58.5q0 75 52.5 116t140.5 41q95 0 147 -42t52 -115q0 -33 -12 -59
t-33.5 -47.5t-52 -39.5t-66.5 -35q-7 -4 -1 -8q34 -16 67.5 -33.5t60 -40.5t43 -53.5t16.5 -71.5zM473 165q0 40 -18 69.5t-45.5 51t-61.5 38t-66 30.5q-8 3 -16 0q-38 -18 -71 -36t-57.5 -40t-38.5 -49.5t-14 -63.5q0 -71 50.5 -112.5t139.5 -41.5q46 0 82.5 11t62 31.5
t39.5 48.5t14 63zM451 553q0 64 -46.5 100t-128.5 36q-56 0 -89.5 -15.5t-51 -37t-23 -45t-5.5 -38.5q0 -32 12.5 -57t34 -45.5t51 -37t63.5 -31.5q8 -3 16 0q36 16 67 32.5t53 36.5t34.5 44.5t12.5 57.5z" />
    <glyph glyph-name="nine" unicode="9" horiz-adv-x="528" 
d="M478 232q0 -89 -21 -162t-59.5 -129.5t-93 -96t-121.5 -61.5q-7 -3 -11 5v2q-3 8 5 12q50 18 94.5 46.5t80 69.5t60 95t35.5 122q0 5 -4 1q-41 -55 -93 -82.5t-111 -27.5q-96 0 -149.5 53.5t-53.5 162.5q0 54 18 95t48.5 68t71.5 41t87 14q41 0 80 -12.5t69.5 -39.5
t49 -70.5t18.5 -105.5zM60 242q0 -98 46 -146.5t133 -48.5q57 0 113 31.5t96 97.5q2 3 3 8t2 8q1 10 1 19.5v20.5q0 57 -16 96t-43 64t-62 36t-72 11q-42 0 -78.5 -12.5t-64 -37.5t-43 -61.5t-15.5 -85.5z" />
    <glyph glyph-name="colon" unicode=":" horiz-adv-x="192" 
d="M96 -10q-21 0 -21 21t21 21t21 -21t-21 -21zM96 418q-21 0 -21 21t21 21t21 -21t-21 -21z" />
    <glyph glyph-name="semicolon" unicode=";" horiz-adv-x="204" 
d="M88 -6q-7 6 -7 17q0 21 21 21t21 -21q0 -23 -9.5 -40t-23.5 -29q-6 -4 -11 1l-2 1q-5 5 0 10q11 13 16 25q3 10 -5 15zM102 418q-21 0 -21 21t21 21t21 -21t-21 -21z" />
    <glyph glyph-name="less" unicode="&#x3c;" horiz-adv-x="419" 
d="M342 71q-5 -7 -13 -1l-290 258q-7 7 0 14l290 258q8 6 13 -1l2 -2q6 -8 -1 -13l-274 -243q-6 -6 0 -12l274 -243q7 -5 1 -13z" />
    <glyph glyph-name="equal" unicode="=" horiz-adv-x="491" 
d="M403 357q9 0 9 -9v-2q0 -9 -9 -9h-315q-9 0 -9 9v2q0 9 9 9h315zM403 183q9 0 9 -9v-2q0 -9 -9 -9h-315q-9 0 -9 9v2q0 9 9 9h315z" />
    <glyph glyph-name="greater" unicode="&#x3e;" horiz-adv-x="419" 
d="M373 342q7 -7 0 -14l-290 -258q-8 -6 -13 1l-2 2q-6 8 1 13l274 243q6 6 0 12l-274 243q-7 5 -1 13l2 2q5 7 13 1z" />
    <glyph glyph-name="question" unicode="?" horiz-adv-x="445" 
d="M194 185q0 -11 1 -22.5t4 -23.5q2 -10 -8 -10h-4q-10 0 -12 10q-2 11 -3 22.5t-1 22.5q0 46 15.5 82t38 66.5t49.5 58.5t49.5 56.5t38 60.5t15.5 72q0 51 -45 80t-120 29q-45 0 -89 -9t-79 -23q-3 -2 -6.5 -0.5t-4.5 4.5l-1 2q-2 3 0 6.5t5 5.5q37 17 85 26t90 9t76.5 -9
t59.5 -26t39 -41t14 -54q0 -43 -15.5 -76.5t-38.5 -63t-49.5 -57t-49.5 -57t-38.5 -64t-15.5 -77.5zM193 32q21 0 21 -21t-21 -21t-21 21t21 21z" />
    <glyph glyph-name="at" unicode="@" horiz-adv-x="1014" 
d="M809 1q62 0 101.5 63t39.5 176q0 106 -31 188.5t-88 139.5t-137.5 87t-180.5 30q-99 0 -179.5 -30t-137.5 -87t-88 -139.5t-31 -188.5q0 -105 31 -187.5t88 -139.5t137.5 -86.5t179.5 -29.5q112 0 199 36q8 4 12 -5v-2q4 -8 -5 -12q-45 -18 -97 -28t-109 -10
q-104 0 -189 31t-145 90.5t-93 145.5t-33 197t33 197.5t93 146.5t145 91t189 31t189 -31t145.5 -91t93.5 -146.5t33 -197.5q0 -61 -12.5 -109t-35 -81.5t-52.5 -51.5t-65 -18q-58 0 -92.5 29.5t-36.5 98.5q0 7 -5 2q-15 -18 -35.5 -37t-45.5 -34.5t-54 -25.5t-60 -10
q-103 0 -153.5 60.5t-50.5 173.5q0 56 17 100t48 74t72.5 46t91.5 16q57 0 98.5 -14.5t69.5 -30.5q2 -2 4.5 0t2.5 4v21q0 10 10 10h2q10 0 10 -10v-337q0 -63 28 -89t79 -26zM300 237q0 -104 44.5 -158.5t135.5 -54.5q32 0 61 10.5t54 27.5t45 37.5t35 41.5q5 7 5 15v238
q0 8 -7 12q-30 17 -71 31.5t-97 14.5q-45 0 -82.5 -14t-65 -41.5t-42.5 -67.5t-15 -92z" />
    <glyph glyph-name="A" unicode="A" horiz-adv-x="714" 
d="M18 0q-4 0 -6 3t0 6l331 694q3 7 11 7h2q7 0 11 -7l331 -694q2 -3 0 -6t-6 -3h-4q-10 0 -14 9l-109 230q-3 8 -12 8h-396q-9 0 -12 -8l-108 -230q-4 -9 -14 -9h-5zM359 677q-4 6 -8 0l-189 -402q-2 -8 5 -8h377q7 0 5 8z" />
    <glyph glyph-name="B" unicode="B" horiz-adv-x="729" 
d="M114 0q-10 0 -10 10v680q0 10 10 10h282q119 0 178.5 -41t59.5 -135q0 -119 -112 -157q-5 -3 0 -5q150 -29 150 -177q0 -93 -56.5 -139t-175.5 -46h-326zM648 185q0 81 -53 123t-163 42h-298q-8 0 -8 -8v-313q0 -8 8 -8h304q110 0 160 41.5t50 122.5zM610 524
q0 81 -53 118t-163 37h-260q-8 0 -8 -8v-292q0 -8 8 -8h260q110 0 163 37.5t53 115.5z" />
    <glyph glyph-name="C" unicode="C" horiz-adv-x="679" 
d="M407 689q-76 0 -135.5 -23t-101 -66.5t-63.5 -107t-22 -143.5t22 -143t63.5 -106.5t101 -66t135.5 -22.5q62 0 111.5 13.5t92.5 37.5q7 5 13 -3l1 -2q5 -7 -3 -13q-48 -26 -98.5 -40t-116.5 -14q-81 0 -145 24t-108.5 69.5t-68.5 112.5t-24 153t24 153t68.5 113.5
t108.5 70.5t145 24q65 0 115 -11t99 -33q9 -4 5 -13l-1 -2q-4 -9 -13 -5q-45 20 -95 31.5t-110 11.5z" />
    <glyph glyph-name="D" unicode="D" horiz-adv-x="764" 
d="M114 0q-10 0 -10 10v680q0 10 10 10h240q81 0 145.5 -22.5t109.5 -67t69.5 -110t24.5 -151.5t-24.5 -151t-69.5 -109t-109.5 -66.5t-145.5 -22.5h-240zM679 349q0 80 -22.5 141.5t-64.5 103.5t-102 63.5t-136 21.5h-220q-8 0 -8 -8v-642q0 -8 8 -8h220q76 0 136 21
t102 62.5t64.5 103t22.5 141.5z" />
    <glyph glyph-name="E" unicode="E" 
d="M114 0q-10 0 -10 10v680q0 10 10 10h469q9 0 9 -9v-2q0 -9 -9 -9h-449q-8 0 -8 -8v-295q0 -8 8 -8h371q9 0 9 -9v-2q0 -9 -9 -9h-371q-8 0 -8 -8v-313q0 -8 8 -8h449q9 0 9 -9v-2q0 -9 -9 -9h-469z" />
    <glyph glyph-name="F" unicode="F" horiz-adv-x="601" 
d="M114 0q-10 0 -10 10v680q0 10 10 10h451q9 0 9 -9v-2q0 -9 -9 -9h-431q-8 0 -8 -8v-295q0 -8 8 -8h353q9 0 9 -9v-2q0 -9 -9 -9h-353q-8 0 -8 -8v-331q0 -10 -10 -10h-2z" />
    <glyph glyph-name="G" unicode="G" horiz-adv-x="733" 
d="M647 0q-10 0 -10 10v63q0 6 -6 2q-18 -17 -44.5 -32.5t-57.5 -27t-66 -18.5t-69 -7q-73 0 -134.5 24t-105.5 69.5t-69 112.5t-25 153t25 153t71.5 113.5t112 70.5t146.5 24q127 0 227 -44q9 -4 5 -13l-1 -2q-4 -9 -13 -5q-46 20 -102 31.5t-116 11.5q-76 0 -137 -23
t-104 -66.5t-66.5 -107t-23.5 -143.5t23 -143t64 -106.5t98 -66t125 -22.5q34 0 69 7t66.5 20t58 30t44.5 37q5 7 5 15v205q0 8 -8 8h-167q-10 0 -10 10v3q0 10 10 10h187q10 0 10 -10v-336q0 -10 -10 -10h-2z" />
    <glyph glyph-name="H" unicode="H" horiz-adv-x="787" 
d="M671 0q-10 0 -10 10v324q0 8 -8 8h-519q-8 0 -8 -8v-324q0 -10 -10 -10h-2q-10 0 -10 10v680q0 10 10 10h2q10 0 10 -10v-320q0 -8 8 -8h519q8 0 8 8v320q0 10 10 10h2q10 0 10 -10v-680q0 -10 -10 -10h-2z" />
    <glyph glyph-name="I" unicode="I" horiz-adv-x="286" 
d="M55 679q-9 0 -9 10v2q0 9 9 9h175q10 0 10 -9v-2q0 -10 -10 -10h-68q-8 0 -8 -8v-642q0 -8 8 -8h68q10 0 10 -10v-2q0 -9 -10 -9h-175q-9 0 -9 9v2q0 10 9 10h69q8 0 8 8v642q0 8 -8 8h-69z" />
    <glyph glyph-name="J" unicode="J" horiz-adv-x="266" 
d="M45 679q-9 0 -9 10v2q0 9 9 9h175q10 0 10 -9v-2q0 -10 -10 -10h-68q-8 0 -8 -8v-608q0 -69 -18 -118t-56 -81q-8 -6 -14 2l-2 2q-6 8 2 14q35 30 50.5 74.5t15.5 106.5v608q0 8 -8 8h-69z" />
    <glyph glyph-name="K" unicode="K" horiz-adv-x="702" 
d="M306 345q-6 6 -14 6h-158q-8 0 -8 -8v-333q0 -10 -10 -10h-2q-10 0 -10 10v680q0 10 10 10h2q10 0 10 -10v-311q0 -8 8 -8h158q8 0 14 6l332 316q7 7 17 7h12q3 0 4 -2.5t-1 -4.5l-344 -326q-6 -6 0 -12l357 -348q2 -2 1 -4.5t-4 -2.5h-11q-10 0 -17 7z" />
    <glyph glyph-name="L" unicode="L" horiz-adv-x="589" 
d="M114 0q-10 0 -10 10v680q0 10 10 10h2q10 0 10 -10v-662q0 -8 8 -8h436q9 0 9 -9v-2q0 -9 -9 -9h-456z" />
    <glyph glyph-name="M" unicode="M" horiz-adv-x="871" 
d="M104 690q0 10 10 10h2q10 0 16 -8l298 -407q6 -8 10 0l299 407q6 8 16 8h2q10 0 10 -10v-680q0 -10 -10 -10h-2q-10 0 -10 10v644q0 7 -5 2l-290 -395q-5 -7 -13 -7h-2q-9 0 -14 7l-290 395q-5 5 -5 -2v-644q0 -10 -10 -10h-2q-10 0 -10 10v680z" />
    <glyph glyph-name="N" unicode="N" horiz-adv-x="805" 
d="M689 0q-10 0 -16 8l-542 652q-5 5 -5 -2v-648q0 -10 -10 -10h-2q-10 0 -10 10v680q0 10 10 10h2q10 0 16 -8l542 -653q5 -5 5 2v649q0 10 10 10h2q10 0 10 -10v-680q0 -10 -10 -10h-2z" />
    <glyph glyph-name="O" unicode="O" horiz-adv-x="826" 
d="M413 -10q-81 0 -146 24t-111 69.5t-71 112.5t-25 153t25 153t71 113.5t111 70.5t146 24t146 -24t111 -70.5t71 -113.5t25 -153t-25 -153t-71 -112.5t-111 -69.5t-146 -24zM413 689q-76 0 -137 -23t-103.5 -66.5t-65.5 -107t-23 -143.5t23 -143t65.5 -106.5t103.5 -66
t137 -22.5t136.5 22.5t103.5 66t66 106.5t23 143t-23 143.5t-66 107t-103.5 66.5t-136.5 23z" />
    <glyph glyph-name="P" unicode="P" horiz-adv-x="718" 
d="M114 0q-10 0 -10 10v680q0 10 10 10h266q82 0 138.5 -13.5t91.5 -41.5t51 -70.5t16 -100.5q0 -57 -16 -99.5t-51 -70t-91.5 -41t-138.5 -13.5h-246q-8 0 -8 -8v-232q0 -10 -10 -10h-2zM653 474q0 52 -14 90.5t-46.5 64t-85 38t-129.5 12.5h-244q-8 0 -8 -8v-392
q0 -8 8 -8h244q77 0 129.5 12.5t85 37.5t46.5 63.5t14 89.5z" />
    <glyph glyph-name="Q" unicode="Q" horiz-adv-x="826" 
d="M618 33q37 -33 77 -62t81 -51q3 -2 4 -5.5t-1 -6.5l-1 -2q-4 -8 -12 -4q-45 25 -86.5 55.5t-79.5 64.5q-7 7 -15 2q-76 -34 -172 -34q-81 0 -146 24t-111 69.5t-71 112.5t-25 153t25 153t71 113.5t111 70.5t146 24t146 -24t111 -70.5t71 -113.5t25 -153
q0 -108 -38.5 -185t-108.5 -121q-7 -4 -1 -10zM413 689q-76 0 -137 -23t-103.5 -66.5t-65.5 -107t-23 -143.5t23 -143t65.5 -106.5t103.5 -66t137 -22.5q86 0 155 29q7 4 1 10q-73 73 -113 147q-4 8 4 12l2 1q3 2 6.5 1t5.5 -4q20 -37 50 -74t65 -72q5 -6 13 -2
q67 41 103.5 114.5t36.5 175.5q0 80 -23 143.5t-66 107t-103.5 66.5t-136.5 23z" />
    <glyph glyph-name="R" unicode="R" horiz-adv-x="760" 
d="M698 0q-10 0 -16 8l-183 262q-6 7 -13 6q-44 -6 -99 -6h-253q-8 0 -8 -8v-252q0 -10 -10 -10h-2q-10 0 -10 10v680q0 10 10 10h273q82 0 138.5 -12.5t91.5 -39t51 -67t16 -97.5q0 -81 -36.5 -131t-121.5 -70q-8 -2 -3 -9l186 -266q2 -2 0.5 -5t-4.5 -3h-7zM660 484
q0 50 -14 87t-46.5 61t-85 35.5t-129.5 11.5h-251q-8 0 -8 -8v-372q0 -8 8 -8h251q77 0 129.5 12t85 36.5t46.5 60.5t14 84z" />
    <glyph glyph-name="S" unicode="S" horiz-adv-x="597" 
d="M286 -10q-60 0 -121 11t-105 34q-8 6 -4 13l1 2q6 9 13 4q21 -11 47 -19t54.5 -13t57.5 -8t57 -3q47 0 89.5 11t74.5 33t51 53t19 72q0 52 -20 83.5t-52 50.5t-72.5 28.5t-82.5 18.5q-43 9 -85 19.5t-75 29t-53 50t-20 82.5q0 42 17 73.5t47.5 52.5t72.5 31.5t93 10.5
q60 0 116 -11.5t106 -32.5q9 -4 5 -12l-1 -2q-4 -9 -13 -5q-47 20 -101.5 31t-111.5 11q-45 0 -83 -9t-65.5 -27.5t-42.5 -46t-15 -64.5q0 -44 18.5 -71t49 -43.5t69 -25.5t77.5 -17q45 -9 89 -20t79 -32.5t56.5 -57.5t21.5 -95q0 -47 -21 -82.5t-56.5 -59.5t-82.5 -36
t-98 -12z" />
    <glyph glyph-name="T" unicode="T" horiz-adv-x="646" 
d="M17 680q-9 0 -9 9v2q0 9 9 9h612q9 0 9 -9v-2q0 -9 -9 -9h-287q-8 0 -8 -8v-662q0 -10 -10 -10h-2q-10 0 -10 10v662q0 8 -8 8h-287z" />
    <glyph glyph-name="U" unicode="U" horiz-adv-x="782" 
d="M677 700q10 0 10 -10v-367q0 -83 -16.5 -145.5t-52 -104t-91.5 -62.5t-136 -21t-136 21t-91.5 62.5t-52 104t-16.5 145.5v367q0 10 10 10h2q10 0 10 -10v-367q0 -77 15 -135t48 -97.5t85 -59.5t126 -20t126 20t85 59t48 97.5t15 135.5v367q0 10 10 10h2z" />
    <glyph glyph-name="V" unicode="V" horiz-adv-x="700" 
d="M679 700q4 0 6 -3t0 -6l-325 -694q-4 -7 -11 -7h-2q-8 0 -11 7l-325 694q-2 3 0 6t6 3h6q10 0 14 -9l307 -665q4 -6 8 0l308 665q4 9 14 9h5z" />
    <glyph glyph-name="W" unicode="W" horiz-adv-x="1054" 
d="M528 656q-1 2 -3 2t-3 -2l-206 -657q-4 -9 -13 -9h-2q-8 0 -12 9l-269 692q-2 3 0 6t6 3h5q9 0 13 -9l254 -660q1 -2 3 -1.5t3 2.5l207 658q3 10 13 10h3q10 0 13 -10l208 -657q0 -2 2 -2.5t3 1.5l253 659q4 9 13 9h5q4 0 6 -3t0 -6l-268 -692q-4 -9 -12 -9h-2
q-9 0 -13 9z" />
    <glyph glyph-name="X" unicode="X" horiz-adv-x="662" 
d="M44 8q-6 -8 -16 -8h-8q-3 0 -4 3t1 5l291 344q6 6 0 12l-277 328q-2 2 -1 5t4 3h9q10 0 16 -8l262 -311q2 -2 5.5 -2t5.5 2l264 311q6 8 16 8h9q3 0 4 -3t-1 -5l-278 -328q-6 -6 0 -12l291 -344q2 -2 1 -5t-4 -3h-8q-10 0 -16 8l-278 327q-2 2 -5.5 2t-5.5 -2z" />
    <glyph glyph-name="Y" unicode="Y" 
d="M337 304q-5 -7 -5 -15v-279q0 -10 -10 -10h-2q-10 0 -10 10v277q0 8 -5 15l-301 390q-2 2 -0.5 5t4.5 3h9q10 0 16 -8l282 -368q2 -3 5 -3t5 3l281 368q6 8 16 8h8q3 0 4.5 -3t-0.5 -5z" />
    <glyph glyph-name="Z" unicode="Z" horiz-adv-x="628" 
d="M589 20q9 0 9 -9v-2q0 -9 -9 -9h-553q-9 0 -9 9v2q0 10 6 16l516 647q2 2 0.5 4t-3.5 2h-488q-9 0 -9 9v2q0 9 9 9h517q9 0 9 -9v-2q0 -10 -6 -16l-517 -647q-2 -2 -0.5 -4t3.5 -2h525z" />
    <glyph glyph-name="bracketleft" unicode="[" horiz-adv-x="337" 
d="M103 -210q-10 0 -10 10v890q0 10 10 10h208q9 0 9 -9v-2q0 -9 -9 -9h-188q-8 0 -8 -8v-853q0 -9 8 -9h188q9 0 9 -9v-2q0 -9 -9 -9h-208z" />
    <glyph glyph-name="backslash" unicode="\" horiz-adv-x="413" 
d="M42 707q9 4 13 -6l320 -906q2 -9 -6 -12h-2q-8 -3 -12 6l-321 906q-2 8 6 12h2z" />
    <glyph glyph-name="bracketright" unicode="]" horiz-adv-x="337" 
d="M26 680q-9 0 -9 9v2q0 9 9 9h208q10 0 10 -10v-890q0 -10 -10 -10h-208q-9 0 -9 9v2q0 9 9 9h188q8 0 8 9v853q0 8 -8 8h-188z" />
    <glyph glyph-name="asciicircum" unicode="^" horiz-adv-x="410" 
d="M57 417q-7 3 -3 11l144 251q2 3 5 3t5 -3l144 -251q4 -8 -3 -11l-1 -1q-8 -4 -11 3l-130 219q-4 6 -8 0l-130 -219q-3 -7 -11 -3z" />
    <glyph glyph-name="underscore" unicode="_" horiz-adv-x="528" 
d="M444 -61q9 0 9 -9v-2q0 -9 -9 -9h-360q-9 0 -9 9v2q0 9 9 9h360z" />
    <glyph glyph-name="grave" unicode="`" horiz-adv-x="382" 
d="M104 674q2 3 5.5 4t6.5 -1l158 -96q5 -2 3 -9l-1 -1q-3 -5 -10 -3l-160 93q-3 2 -4 5.5t1 6.5z" />
    <glyph glyph-name="a" unicode="a" horiz-adv-x="523" 
d="M417 108q-14 -19 -35.5 -39.5t-48.5 -38t-58.5 -29t-65.5 -11.5q-77 0 -119 34.5t-42 98.5q0 25 8 48t27.5 40.5t53.5 28t87 10.5q15 0 37.5 -2t48.5 -6t53 -9t51 -12q8 -2 8 6v52q0 37 -8 67t-26.5 50.5t-49.5 31.5t-77 11q-51 0 -95 -11t-81 -31q-8 -4 -12 4l-1 2
q-4 8 4 12q38 21 85 33t100 12q52 0 87 -12.5t56.5 -35.5t30.5 -56t9 -75v-210q0 -20 5 -34t18 -28q6 -6 -1 -12l-2 -2q-6 -4 -13 1q-29 27 -29 69v42q0 2 -1.5 2.5t-3.5 -1.5zM72 123q0 -54 35.5 -83t101.5 -29q34 0 65.5 12.5t58.5 31.5t49 42t36 44q4 8 4 15v34
q0 8 -8 10q-24 7 -51.5 12t-53 9t-48 6t-37.5 2q-45 0 -74.5 -8.5t-46.5 -23t-24 -34t-7 -40.5z" />
    <glyph glyph-name="b" unicode="b" horiz-adv-x="563" 
d="M509 226q0 -56 -17 -100t-48 -74t-73 -46t-91 -16q-57 0 -99 14t-69 31q-6 4 -8 -5l-1 -21q0 -9 -9 -9h-2q-9 0 -9 9v731q0 10 10 10h2q10 0 10 -10v-387q0 -2 1.5 -3t3.5 1q14 18 34 37.5t45 35.5t53.5 26t60.5 10q103 0 154.5 -60.5t51.5 -173.5zM112 57
q30 -17 71 -31.5t97 -14.5q45 0 82.5 14t65 41.5t42.5 67.5t15 92q0 104 -45.5 158.5t-136.5 54.5q-32 0 -60.5 -11t-53.5 -28.5t-45 -38.5t-34 -41q-5 -7 -5 -15v-236q0 -9 7 -12z" />
    <glyph glyph-name="c" unicode="c" horiz-adv-x="480" 
d="M284 11q38 0 70.5 9t62.5 23q8 3 12 -4l1 -2q4 -7 -4 -11q-31 -17 -65.5 -26.5t-76.5 -9.5q-107 0 -168.5 61t-61.5 174t61.5 174t168.5 61q42 0 76.5 -5.5t64.5 -18.5q9 -4 5 -13v-2q-4 -9 -13 -5q-29 11 -60.5 17t-72.5 6q-98 0 -152 -55t-54 -159t54 -159t152 -55z
" />
    <glyph glyph-name="d" unicode="d" horiz-adv-x="567" 
d="M454 97q-15 -18 -35.5 -37t-45.5 -34.5t-54 -25.5t-60 -10q-103 0 -153.5 60.5t-50.5 173.5q0 56 17 100t48 74t72.5 46t91.5 16q57 0 98.5 -14.5t69.5 -30.5q2 -2 4.5 0t2.5 4v321q0 10 10 10h2q10 0 10 -10v-669q0 -20 5 -34t18 -28q6 -6 -1 -12l-2 -2q-6 -4 -13 1
q-29 27 -29 69v31q0 2 -1.5 2.5t-3.5 -1.5zM79 224q0 -104 44.5 -158.5t135.5 -54.5q32 0 61 10.5t54 27.5t45 37.5t35 41.5q5 7 5 15v238q0 8 -7 12q-30 17 -71 31.5t-97 14.5q-45 0 -82.5 -14t-65 -41.5t-42.5 -67.5t-15 -92z" />
    <glyph glyph-name="e" unicode="e" horiz-adv-x="529" 
d="M454 35q-34 -19 -78.5 -32t-93.5 -13q-107 0 -167 61t-60 174t58 174t165 61q56 0 94 -13t61 -38.5t33 -63.5t10 -89v-25q0 -10 -10 -10h-379q-8 0 -8 -8q3 -99 55.5 -150.5t147.5 -51.5q46 0 88.5 12t74.5 29q7 4 11 -4l1 -2q4 -8 -3 -11zM452 256q-1 48 -10.5 83
t-30 57t-53.5 32.5t-80 10.5q-91 0 -141.5 -48.5t-57.5 -139.5q0 -8 8 -8l357 4q8 0 8 9z" />
    <glyph glyph-name="f" unicode="f" horiz-adv-x="375" 
d="M354 450q9 0 9 -9v-2q0 -9 -9 -9h-206q-8 0 -8 -8v-412q0 -10 -10 -10h-2q-10 0 -10 10v412q0 8 -8 8h-75q-9 0 -9 9v2q0 9 9 9h75q8 0 8 8v140q0 83 36 122.5t111 39.5q45 0 79.5 -9t65.5 -23q8 -2 4 -10v-2q-4 -7 -12 -4q-29 12 -61 19.5t-77 7.5q-63 0 -93.5 -33.5
t-30.5 -107.5v-140q0 -8 8 -8h206z" />
    <glyph glyph-name="g" unicode="g" horiz-adv-x="494" 
d="M499 -77q0 -38 -21.5 -65t-57.5 -44t-82 -25.5t-95 -8.5q-101 0 -154.5 31t-53.5 99q0 32 18.5 62.5t56.5 51.5q7 4 1 10q-11 12 -18 27.5t-7 34.5q0 22 10 40t27 32q3 2 2.5 4.5t-2.5 4.5q-62 40 -62 127q0 78 50 117t131 39q64 0 108 -24q7 -4 12 3q20 28 31.5 56.5
t16.5 62.5q2 10 11 8l3 -1q9 -2 9 -12q-6 -38 -19 -68t-36 -58q-4 -6 1 -13q20 -19 31.5 -47t11.5 -63q0 -78 -49.5 -117.5t-130.5 -39.5q-47 0 -83 12q-7 3 -14 -2q-35 -25 -35 -61q0 -28 19 -48q6 -8 15 -6q11 1 31 2t43 2.5t45.5 2.5t39.5 1q98 0 147 -28t49 -99zM59 -90
q0 -54 46 -81t136 -27q45 0 87.5 7t75 22t52 37.5t19.5 54.5q0 56 -40 81t-130 25q-17 0 -38.5 -1l-43 -2t-39.5 -2.5t-27 -1.5l-16 -4q-41 -20 -61.5 -49t-20.5 -59zM85 304q0 -66 42.5 -100.5t114.5 -34.5t114 34.5t42 100.5t-42 100.5t-114 34.5t-114.5 -34.5
t-42.5 -100.5z" />
    <glyph glyph-name="h" unicode="h" horiz-adv-x="562" 
d="M488 -4q-29 27 -29 69v214q0 37 -7.5 67t-25 50.5t-46.5 31.5t-73 11q-33 0 -62 -10.5t-54 -27t-45.5 -38t-35.5 -43.5q-5 -7 -5 -15v-295q0 -10 -10 -10h-2q-10 0 -10 10v730q0 10 10 10h2q10 0 10 -10v-388q0 -2 1.5 -2.5t3.5 1.5q15 19 35.5 38t45.5 35t54 26t62 10
q49 0 82.5 -12.5t54 -35.5t29 -56t8.5 -75v-210q0 -20 5 -34t18 -28q6 -6 -1 -12l-2 -2q-6 -4 -13 1z" />
    <glyph glyph-name="i" unicode="i" horiz-adv-x="189" 
d="M93 450q10 0 10 -10v-369q0 -20 5 -34t18 -28q6 -6 -1 -12l-2 -2q-2 -2 -6.5 -1.5t-6.5 2.5q-29 26 -29 69v375q0 10 10 10h2zM91 634q-21 0 -21 21t21 21t21 -21t-21 -21z" />
    <glyph glyph-name="j" unicode="j" horiz-adv-x="188" 
d="M92 450q10 0 10 -10v-438q0 -66 -20 -117.5t-54 -97.5q-2 -3 -5.5 -3.5t-6.5 1.5l-2 2q-3 2 -3.5 5.5t1.5 6.5q34 48 51 95.5t17 107.5v438q0 10 10 10h2zM90 634q-21 0 -21 21t21 21t21 -21t-21 -21z" />
    <glyph glyph-name="k" unicode="k" horiz-adv-x="499" 
d="M468 450q3 0 4 -2.5t-1 -4.5l-218 -210q-6 -6 0 -12l223 -214q2 -2 1 -4.5t-4 -2.5h-11q-10 0 -17 7l-213 204q-6 6 -14 6h-105q-8 0 -8 -8v-199q0 -10 -10 -10h-2q-10 0 -10 10v730q0 10 10 10h2q10 0 10 -10v-495q0 -8 8 -8h106q8 0 14 6l208 200q7 7 17 7h10z" />
    <glyph glyph-name="l" unicode="l" horiz-adv-x="197" 
d="M97 750q10 0 10 -10v-669q0 -20 5 -34t18 -28q6 -6 -1 -12l-2 -2q-2 -2 -6.5 -1.5t-6.5 2.5q-29 26 -29 69v675q0 10 10 10h2z" />
    <glyph glyph-name="m" unicode="m" horiz-adv-x="827" 
d="M93 0q-10 0 -10 10v430q0 10 10 10h2q10 0 10 -10v-85q0 -2 1.5 -2.5t3.5 1.5q13 19 30.5 38t39.5 34t48.5 24.5t57.5 9.5q68 0 98.5 -27t40.5 -75q0 -2 2 -2.5t4 1.5q13 18 30 36.5t38.5 33.5t47.5 24t56 9q46 0 74 -12.5t43 -35.5t20 -56t5 -75v-210q0 -20 5.5 -34
t17.5 -28q6 -6 -1 -12l-1 -2q-8 -4 -13 1q-30 27 -30 69v214q0 37 -3.5 67t-16 50.5t-36.5 31.5t-64 11q-29 0 -54 -9.5t-46 -25t-38 -35t-31 -39.5q-5 -8 -5 -16q1 -8 1 -16.5v-16.5v-271q0 -10 -10 -10h-2q-10 0 -10 10v269q0 37 -4 67t-17 50.5t-37 31.5t-64 11
q-31 0 -57.5 -10.5t-48 -27t-39.5 -38t-32 -42.5q-4 -8 -4 -15v-296q0 -10 -10 -10h-2v0z" />
    <glyph glyph-name="n" unicode="n" horiz-adv-x="562" 
d="M488 -4q-29 27 -29 69v214q0 37 -7.5 67t-25 50.5t-46.5 31.5t-73 11q-33 0 -62 -10.5t-54 -27t-45.5 -38t-35.5 -43.5q-5 -7 -5 -15v-295q0 -10 -10 -10h-2q-10 0 -10 10v430q0 10 10 10h2q10 0 10 -10v-88q0 -2 1.5 -2.5t3.5 1.5q15 19 35.5 38t45.5 35t54 26t62 10
q49 0 82.5 -12.5t54 -35.5t29 -56t8.5 -75v-210q0 -20 5 -34t18 -28q6 -6 -1 -12l-2 -2q-6 -4 -13 1z" />
    <glyph glyph-name="o" unicode="o" horiz-adv-x="578" 
d="M289 -10q-53 0 -96.5 15.5t-74.5 45.5t-47.5 74t-16.5 100t16.5 100t47.5 74t74.5 45.5t96.5 15.5t96.5 -15.5t74 -45.5t47.5 -74t17 -100t-17 -100t-47.5 -74t-74 -45.5t-96.5 -15.5zM289 439q-98 0 -154.5 -55t-56.5 -159t56.5 -159t154.5 -55t154.5 55t56.5 159
t-56.5 159t-154.5 55z" />
    <glyph glyph-name="p" unicode="p" horiz-adv-x="563" 
d="M509 226q0 -56 -17 -100t-48 -74t-73 -46t-91 -16q-57 0 -99 14t-69 31q-2 2 -4.5 0t-2.5 -4v-231q0 -10 -10 -10h-2q-10 0 -10 10v640q0 10 10 10h2q10 0 10 -10v-87q0 -2 1.5 -3t3.5 1q14 18 34 37.5t45 35.5t53.5 26t60.5 10q103 0 154.5 -60.5t51.5 -173.5zM112 57
q30 -17 71 -31.5t97 -14.5q45 0 82.5 14t65 41.5t42.5 67.5t15 92q0 104 -45.5 158.5t-136.5 54.5q-32 0 -60.5 -11t-53.5 -28.5t-45 -38.5t-34 -41q-5 -7 -5 -15v-236q0 -9 7 -12z" />
    <glyph glyph-name="q" unicode="q" horiz-adv-x="564" 
d="M454 97q-15 -18 -35.5 -37t-45.5 -34.5t-54 -25.5t-60 -10q-103 0 -153.5 60.5t-50.5 173.5q0 56 17 100t48 74t72.5 46t91.5 16q57 0 98.5 -14.5t69.5 -31.5q6 -4 8 5l1 22q0 9 9 9h2q9 0 9 -9v-641q0 -10 -10 -10h-2q-10 0 -10 10v296q0 2 -1.5 2.5t-3.5 -1.5zM79 224
q0 -104 44.5 -158.5t135.5 -54.5q32 0 61 10.5t54 27.5t45 37.5t35 41.5q5 7 5 15v238q0 8 -7 12q-30 17 -71 31.5t-97 14.5q-45 0 -82.5 -14t-65 -41.5t-42.5 -67.5t-15 -92z" />
    <glyph glyph-name="r" unicode="r" horiz-adv-x="388" 
d="M93 0q-10 0 -10 10v430q0 10 10 10h2q10 0 10 -10v-116q0 -2 1.5 -2.5t2.5 1.5q12 25 28.5 49.5t37 44t44 31.5t50.5 12q38 0 65.5 -18t27.5 -55q0 -29 -19 -64q-5 -9 -14 -4l-2 1q-10 4 -4 13q6 12 10.5 24.5t4.5 25.5q0 23 -18 38t-53 15q-27 0 -50 -14t-43 -36
t-36.5 -50t-29.5 -55q-3 -8 -3 -16v-255q0 -10 -10 -10h-2v0z" />
    <glyph glyph-name="s" unicode="s" horiz-adv-x="469" 
d="M262 247q32 -5 61.5 -13t52 -22.5t36 -37.5t13.5 -57q0 -30 -14 -53.5t-39 -40t-59.5 -25t-76.5 -8.5t-89 7t-84 22q-3 2 -5 5.5t0 6.5l1 2q3 7 11 5q35 -13 78 -20t88 -7q75 0 120 27.5t45 78.5q0 28 -11 47t-30 30.5t-44.5 18t-55.5 11.5q-35 5 -72 11t-68 18.5
t-50.5 34t-19.5 57.5q0 30 15 51.5t40.5 35.5t59.5 21t72 7q32 0 72.5 -6t78.5 -20q8 -2 6 -12l-1 -2q-3 -8 -12 -6q-34 12 -72.5 18.5t-71.5 6.5t-63 -5.5t-52 -16.5t-35 -29t-13 -43q0 -30 17.5 -47t44.5 -27t60.5 -14.5t65.5 -9.5z" />
    <glyph glyph-name="t" unicode="t" horiz-adv-x="382" 
d="M355 450q9 0 9 -9v-2q0 -9 -9 -9h-206q-8 0 -8 -8v-294q0 -66 25 -91.5t80 -25.5q38 0 62 7.5t51 19.5q3 2 6.5 0.5t4.5 -4.5l1 -2q4 -7 -4 -11q-29 -14 -55.5 -22.5t-64.5 -8.5q-68 0 -98 30.5t-30 105.5v296q0 8 -8 8h-75q-9 0 -9 9v2q0 9 9 9h75q8 0 8 8v161
q0 10 10 10h2q10 0 10 -10v-161q0 -8 8 -8h206z" />
    <glyph glyph-name="u" unicode="u" horiz-adv-x="552" 
d="M439 98q-15 -19 -34.5 -38t-43.5 -34.5t-52.5 -25.5t-60.5 -10q-50 0 -82.5 12.5t-52 35.5t-27.5 56t-8 75v271q0 10 10 10h2q10 0 10 -10v-269q0 -38 6.5 -67.5t23.5 -50t45.5 -31.5t72.5 -11q33 0 61 10t52 26.5t43.5 38t34.5 43.5q5 7 5 15v296q0 10 10 10h2
q10 0 10 -10v-369q0 -20 5 -34t18 -28q6 -6 -1 -12l-2 -2q-6 -4 -13 1q-29 27 -29 69v32q0 2 -1.5 2.5t-3.5 -1.5z" />
    <glyph glyph-name="v" unicode="v" horiz-adv-x="517" 
d="M255 0q-10 0 -13 8l-210 433q-2 3 0 6t6 3h5q10 0 14 -9l196 -407q4 -6 8 0l195 407q4 9 14 9h4q4 0 6 -3t0 -6l-209 -433q-3 -8 -14 -8h-2z" />
    <glyph glyph-name="w" unicode="w" horiz-adv-x="757" 
d="M530 0q-9 0 -13 9l-138 399q-1 2 -3 2t-3 -2l-136 -399q-4 -9 -13 -9h-3q-9 0 -14 9l-170 432q-2 3 0 6t6 3h4q9 0 13 -9l159 -407q1 -2 3 -1.5t3 2.5l138 406q4 9 13 9h2q9 0 13 -9l139 -406q1 -2 3 -2.5t3 1.5l158 407q4 9 13 9h3q4 0 6 -3t0 -6l-169 -432
q-4 -9 -14 -9h-3z" />
    <glyph glyph-name="x" unicode="x" horiz-adv-x="497" 
d="M446 0q-10 0 -17 7l-179 197q-6 6 -12 0l-179 -197q-7 -7 -16 -7h-11q-3 0 -4 2.5t1 4.5l194 214q8 6 0 12l-190 210q-2 2 -1 4.5t4 2.5h10q9 0 16 -7l176 -194q6 -6 12 0l175 194q9 7 17 7h10q3 0 4 -2.5t-1 -4.5l-190 -210q-8 -6 0 -12l195 -214q2 -2 1 -4.5t-4 -2.5
h-11z" />
    <glyph glyph-name="y" unicode="y" horiz-adv-x="516" 
d="M474 450q4 0 6 -3t0 -6l-242 -500q-29 -59 -70 -95t-91 -62q-8 -4 -12 4l-1 1q-4 8 3 12q51 29 88 62.5t63 86.5l22 45q5 8 0 16l-208 430q-2 3 0 6t6 3h5q10 0 14 -9l196 -407q4 -6 8 0l195 407q4 9 14 9h4z" />
    <glyph glyph-name="z" unicode="z" horiz-adv-x="481" 
d="M437 20q9 0 9 -9v-2q0 -9 -9 -9h-395q-9 0 -9 9v2q0 9 6 15l359 398q2 2 0.5 4t-3.5 2h-336q-9 0 -9 9v2q0 9 9 9h364q9 0 9 -9v-2q0 -9 -6 -15l-360 -398q-2 -2 -0.5 -4t3.5 -2h368z" />
    <glyph glyph-name="braceleft" unicode="{" horiz-adv-x="315" 
d="M66 -42q0 35 13 64t28 54t28 48t13 46q0 16 -7.5 28.5t-19.5 20.5t-27.5 12t-30.5 4h-4q-11 0 -11 8v5q0 7 11 7h4q16 0 31 4t27 12.5t19.5 20.5t7.5 28q0 23 -13 46t-28 48t-28 54t-13 64q0 41 14 72.5t38.5 52.5t58 32t72.5 11h35q8 0 8 -8v-2q0 -9 -8 -9h-32
q-77 0 -119.5 -40t-42.5 -109q0 -32 12.5 -59t28 -52.5t28 -50t12.5 -50.5q0 -25 -15 -43t-40 -29q-2 -1 -2 -3t2 -3q25 -11 40 -29t15 -43q0 -26 -12.5 -50.5t-28 -50t-28 -52.5t-12.5 -59q0 -69 42.5 -109t119.5 -40h32q8 0 8 -9v-2q0 -8 -8 -8h-35q-39 0 -72.5 11t-58 32
t-38.5 52.5t-14 72.5z" />
    <glyph glyph-name="bar" unicode="|" horiz-adv-x="208" 
d="M103 -210q-10 0 -10 10v890q0 10 10 10h2q10 0 10 -10v-890q0 -10 -10 -10h-2z" />
    <glyph glyph-name="braceright" unicode="}" horiz-adv-x="315" 
d="M249 235q-15 0 -30.5 -4t-27.5 -12t-19.5 -20.5t-7.5 -28.5q0 -23 13 -46t28 -48t28 -54t13 -64q0 -41 -14 -72.5t-38.5 -52.5t-58 -32t-72.5 -11h-35q-8 0 -8 8v2q0 9 8 9h32q77 0 119.5 40t42.5 109q0 32 -12.5 59t-28 52.5t-28 50t-12.5 50.5q0 25 15 43t40 29
q2 1 2 3t-2 3q-25 11 -40 29t-15 43q0 26 12.5 50.5t28 50t28 52.5t12.5 59q0 69 -42.5 109t-119.5 40h-32q-8 0 -8 9v2q0 8 8 8h35q39 0 72.5 -11t58 -32t38.5 -52.5t14 -72.5q0 -35 -13 -64t-28 -54t-28 -48t-13 -46q0 -16 7.5 -28t19.5 -20.5t27 -12.5t31 -4h4
q11 0 11 -7v-5q0 -8 -11 -8h-4v0z" />
    <glyph glyph-name="asciitilde" unicode="~" horiz-adv-x="695" 
d="M195 419q27 0 49.5 -6t42 -16t37.5 -22.5t35 -24.5q35 -26 72 -46.5t79 -20.5q49 0 77 33.5t30 87.5q0 8 9 8h2q8 0 8 -8q-2 -62 -35 -100.5t-90 -38.5q-27 0 -49.5 6t-42 16t-37.5 22.5t-35 24.5q-35 26 -72 46.5t-79 20.5q-49 0 -77 -33.5t-30 -87.5q0 -8 -9 -8h-2
q-8 0 -8 8q2 62 35 100.5t90 38.5z" />
    <glyph glyph-name="uni00A0" unicode="&#xa0;" horiz-adv-x="258" 
 />
    <glyph glyph-name="exclamdown" unicode="&#xa1;" horiz-adv-x="216" 
d="M120 10q0 -10 -10 -10h-4q-10 0 -10 10l2 551q0 9 9 9h2q9 0 9 -9zM108 668q-21 0 -21 21t21 21t21 -21t-21 -21z" />
    <glyph glyph-name="cent" unicode="&#xa2;" horiz-adv-x="487" 
d="M267 11q39 -4 77.5 5.5t75.5 26.5q8 3 12 -4l1 -2q4 -7 -4 -11q-38 -20 -79 -29t-85 -6q-7 2 -9 -8l-7 -92q-1 -4 -4 -7t-7 -2h-2q-4 1 -7 4t-2 7l7 92q1 4 -1.5 7t-5.5 3q-80 16 -125 74.5t-45 155.5q0 108 56 168t155 67q7 0 9 9l8 96q1 4 4 7t7 2h2q9 -2 9 -11l-8 -94
q-1 -4 1.5 -6.5t5.5 -2.5q36 -2 66 -7.5t56 -16.5q9 -4 5 -13v-2q-4 -9 -13 -5q-49 20 -116 23q-7 0 -9 -8l-35 -411q-1 -3 1.5 -6t5.5 -3zM266 439q-88 -6 -136.5 -61t-48.5 -153q0 -88 38.5 -141t109.5 -68q3 -1 5.5 1.5t3.5 5.5l35 408q1 3 -1.5 5.5t-5.5 2.5z" />
    <glyph glyph-name="sterling" unicode="&#xa3;" horiz-adv-x="500" 
d="M370 450q9 0 9 -9v-2q0 -9 -9 -9h-206q-8 0 -8 -8v-394q0 -8 8 -8h288q9 0 9 -9v-2q0 -9 -9 -9h-401q-9 0 -9 9v2q0 9 9 9h75q8 0 8 8v394q0 8 -8 8h-75q-9 0 -9 9v2q0 9 9 9h75q8 0 8 8v141q0 83 37 122t114 39q45 0 84 -10t71 -24q8 -2 4 -10v-2q-3 -7 -12 -5
q-29 13 -66 21.5t-82 8.5q-64 0 -96 -33.5t-32 -107.5v-140q0 -8 8 -8h206z" />
    <glyph glyph-name="currency" unicode="&#xa4;" horiz-adv-x="522" 
d="M119 149q-33 42 -33 112q0 68 34 113q2 2 1.5 6t-2.5 6l-53 54q-6 6 0 12l2 2q6 6 12 0l53 -54q2 -2 6 -2.5t6 1.5q46 35 113 35t112 -34q7 -5 13 1l53 53q6 6 12 0l2 -2q6 -6 0 -12l-53 -53q-2 -2 -2.5 -6t1.5 -6q17 -22 26 -50.5t9 -63.5t-9 -63t-26 -49q-5 -7 1 -13
l52 -51q6 -6 0 -12l-2 -2q-6 -6 -12 0l-52 51q-6 6 -13 1q-45 -34 -112 -34q-70 0 -114 34q-6 5 -12 -1l-51 -51q-6 -6 -12 0l-2 2q-6 6 0 12l51 51q6 6 1 13zM258 415q-70 0 -111 -39.5t-41 -114.5t41 -114.5t111 -39.5q71 0 111.5 39.5t40.5 114.5t-40.5 114.5
t-111.5 39.5z" />
    <glyph glyph-name="yen" unicode="&#xa5;" horiz-adv-x="609" 
d="M506 213q9 0 9 -9v-2q0 -9 -9 -9h-186q-8 0 -8 -8v-175q0 -10 -10 -10h-2q-10 0 -10 10v175q0 8 -9 8h-180q-9 0 -9 9v2q0 9 9 9h180q9 0 9 9v115q0 8 -9 8h-180q-9 0 -9 9v2q0 9 9 9h176q2 0 3.5 2.5t-0.5 4.5l-247 320q-2 2 -0.5 5t4.5 3h9q10 0 16 -8l233 -304
q4 -8 10 0l232 304q6 8 16 8h8q3 0 4.5 -3t-0.5 -5l-245 -320q-2 -2 -0.5 -4.5t3.5 -2.5h183q9 0 9 -9v-2q0 -9 -9 -9h-186q-8 0 -8 -8v-115q0 -9 8 -9h186z" />
    <glyph glyph-name="brokenbar" unicode="&#xa6;" horiz-adv-x="212" 
d="M105 361q-10 0 -10 10v319q0 10 10 10h2q10 0 10 -10v-319q0 -10 -10 -10h-2zM105 -210q-10 0 -10 10v319q0 10 10 10h2q10 0 10 -10v-319q0 -10 -10 -10h-2z" />
    <glyph glyph-name="section" unicode="&#xa7;" horiz-adv-x="592" 
d="M505 -50q0 43 -19.5 70.5t-49 45t-65 27t-68.5 15.5q-46 7 -89.5 17t-78 28t-55.5 47.5t-21 76.5q0 27 11.5 49.5t31 40t45 29.5t54.5 19q2 1 2 2.5t-2 1.5q-27 8 -50.5 19t-40.5 27.5t-27 39.5t-10 55q0 37 16 65.5t45.5 47t70 28t89.5 9.5q57 0 110.5 -10t101.5 -29
q9 -4 5 -13v-2q-4 -9 -13 -5q-45 18 -97.5 28t-106.5 10q-44 0 -80 -8t-62 -24t-40.5 -40t-14.5 -57q0 -40 18 -64t46.5 -39t65 -22.5t74.5 -14.5q43 -8 84 -18.5t73.5 -28t52.5 -45t20 -70.5q0 -30 -14 -54.5t-36 -42.5t-50.5 -29.5t-56.5 -16.5q-2 0 -2 -1.5t2 -1.5
q31 -8 59 -21t49.5 -32t34 -46t12.5 -63q0 -42 -21 -73.5t-56 -53t-81 -32.5t-95 -11q-57 0 -114 10.5t-102 30.5q-8 4 -4 12l1 2q4 8 12 4q40 -17 97 -27.5t110 -10.5q45 0 86.5 9.5t73 28.5t50.5 47t19 64zM83 277q0 -43 19.5 -68t50 -40t68.5 -22.5t75 -14.5q10 -1 19 -1
h19q32 0 63 10t55.5 27t39.5 40.5t15 49.5q0 38 -21.5 63.5t-57 41.5t-80.5 25.5t-93 15.5q-8 2 -16 0q-29 -5 -57 -15t-50 -25.5t-35.5 -37t-13.5 -49.5z" />
    <glyph glyph-name="dieresis" unicode="&#xa8;" horiz-adv-x="469" 
d="M121 568q-21 0 -21 21t21 21t21 -21t-21 -21zM348 568q-21 0 -21 21t21 21t21 -21t-21 -21z" />
    <glyph glyph-name="copyright" unicode="&#xa9;" horiz-adv-x="826" 
d="M423 526q-80 0 -124.5 -47.5t-44.5 -134.5q0 -85 44.5 -131.5t124.5 -46.5q33 0 60 7.5t51 21.5q7 4 11 -4l1 -2q2 -8 -4 -11q-26 -15 -54 -22.5t-65 -7.5q-88 0 -139 50.5t-51 145.5q0 97 51 148.5t139 51.5q38 0 66 -7.5t54 -19.5q8 -2 4 -10l-1 -2q-2 -6 -10 -4
q-26 12 -53.5 18.5t-59.5 6.5zM413 -10q-81 0 -146 24t-111 69.5t-71 112.5t-25 153t25 153t71 113.5t111 70.5t146 24t146 -24t111 -70.5t71 -113.5t25 -153t-25 -153t-71 -112.5t-111 -69.5t-146 -24zM413 689q-76 0 -137 -23t-103.5 -66.5t-65.5 -107t-23 -143.5t23 -143
t65.5 -106.5t103.5 -66t137 -22.5t136.5 22.5t103.5 66t66 106.5t23 143t-23 143.5t-66 107t-103.5 66.5t-136.5 23z" />
    <glyph glyph-name="ordfeminine" unicode="&#xaa;" horiz-adv-x="471" 
d="M360 412q-12 -16 -30 -32.5t-40 -30t-47.5 -22.5t-52.5 -9q-64 0 -99 28.5t-35 82.5q0 21 6.5 40t23 34t44.5 23.5t72 8.5q13 0 31 -1.5t39 -4.5t43 -7t42 -10q8 -2 8 7v39q0 31 -6.5 55.5t-21.5 41.5t-40.5 26t-63.5 9q-43 0 -78.5 -9t-66.5 -26q-7 -3 -11 3v2
q-4 8 3 11q33 18 71.5 28t81.5 10t72.5 -10.5t47.5 -29.5t25.5 -47t7.5 -62v-175q0 -16 4 -27t15 -22q6 -6 -1 -12l-2 -1q-6 -6 -13 0q-24 22 -24 57v31q0 2 -1.5 2.5t-3.5 -1.5zM202 516q-36 0 -60 -7t-38.5 -19t-20 -28t-5.5 -33q0 -45 29 -68.5t83 -23.5q28 0 53.5 9.5
t48 25t40 34t29.5 36.5q4 8 4 15v25q0 8 -8 10q-20 6 -42 10.5t-43 7.5t-39.5 4.5t-30.5 1.5z" />
    <glyph glyph-name="guillemotleft" unicode="&#xab;" horiz-adv-x="446" 
d="M205 53q-8 -6 -14 2l-139 172q-5 8 0 16l139 172q6 8 14 2l2 -3q3 -2 3.5 -6.5t-2.5 -7.5l-129 -158q-5 -7 0 -14l129 -158q3 -3 2.5 -7.5t-3.5 -6.5zM377 53q-8 -6 -14 2l-139 172q-5 8 0 16l139 172q6 8 14 2l2 -3q3 -2 3.5 -6.5t-2.5 -7.5l-129 -158q-5 -7 0 -14
l129 -158q3 -3 2.5 -7.5t-3.5 -6.5z" />
    <glyph glyph-name="logicalnot" unicode="&#xac;" horiz-adv-x="566" 
d="M477 272q10 0 10 -10v-191q0 -9 -9 -9h-2q-9 0 -9 9v173q0 8 -8 8h-363q-9 0 -9 9v2q0 9 9 9h381z" />
    <glyph glyph-name="uni00AD" unicode="&#xad;" horiz-adv-x="449" 
d="M365 272q9 0 9 -9v-2q0 -9 -9 -9h-281q-9 0 -9 9v2q0 9 9 9h281z" />
    <glyph glyph-name="registered" unicode="&#xae;" horiz-adv-x="826" 
d="M413 -10q-81 0 -146 24t-111 69.5t-71 112.5t-25 153t25 153t71 113.5t111 70.5t146 24t146 -24t111 -70.5t71 -113.5t25 -153t-25 -153t-71 -112.5t-111 -69.5t-146 -24zM413 689q-76 0 -137 -23t-103.5 -66.5t-65.5 -107t-23 -143.5t23 -143t65.5 -106.5t103.5 -66
t137 -22.5t136.5 22.5t103.5 66t66 106.5t23 143t-23 143.5t-66 107t-103.5 66.5t-136.5 23zM584 152q-10 0 -15 8l-94 135q-6 7 -13 6q-11 -1 -22.5 -1.5t-25.5 -0.5h-130q-8 0 -8 -8v-131q0 -8 -9 -8h-2q-8 0 -8 8v370q0 10 10 10h147q89 0 126.5 -29t37.5 -92
q0 -45 -18.5 -72.5t-61.5 -38.5q-3 -1 -4 -4t1 -5l97 -139q2 -2 0.5 -5t-4.5 -3h-4zM557 419q0 26 -6.5 45t-23 31.5t-43.5 18.5t-68 6h-132q-8 0 -8 -8v-186q0 -8 8 -8h131q41 0 68 6.5t43.5 19t23.5 31.5t7 44z" />
    <glyph glyph-name="macron" unicode="&#xaf;" horiz-adv-x="425" 
d="M317 592q8 0 8 -9v-2q0 -8 -8 -8h-208q-9 0 -9 8v2q0 9 9 9h208z" />
    <glyph glyph-name="degree" unicode="&#xb0;" horiz-adv-x="372" 
d="M185 450q-59 0 -94.5 33t-35.5 96t35.5 96.5t94.5 33.5q60 0 95.5 -33.5t35.5 -96.5t-35.5 -96t-95.5 -33zM185 690q-50 0 -79.5 -28.5t-29.5 -82.5t29.5 -82t79.5 -28q51 0 80.5 28t29.5 82t-29.5 82.5t-80.5 28.5z" />
    <glyph glyph-name="plusminus" unicode="&#xb1;" horiz-adv-x="455" 
d="M217 441q0 9 9 9h2q9 0 9 -9v-123q0 -8 8 -8h123q9 0 9 -9v-2q0 -9 -9 -9h-123q-8 0 -8 -8v-122q0 -9 -9 -9h-2q-9 0 -9 9v122q0 8 -8 8h-122q-9 0 -9 9v2q0 9 9 9h122q8 0 8 8v123zM368 20q9 0 9 -9v-2q0 -9 -9 -9h-281q-9 0 -9 9v2q0 9 9 9h281z" />
    <glyph glyph-name="uni00B2" unicode="&#xb2;" horiz-adv-x="429" 
d="M66 326q-5 0 -5 5v8q0 32 13 55.5t33.5 41.5t46 32t51.5 28q22 12 43 23t37.5 24.5t26.5 30t10 38.5q0 42 -30.5 60t-84.5 18q-28 0 -59.5 -5.5t-60.5 -15.5q-8 -2 -11 6v2q-2 3 0 6.5t5 4.5q32 11 65 16t61 5q63 0 100 -23t37 -74q0 -25 -12 -44.5t-30.5 -35.5t-42 -29
t-46.5 -25q-22 -12 -44 -24.5t-40.5 -27.5t-30.5 -33t-15 -41q0 -8 8 -8h261q8 0 8 -8v-2q0 -8 -8 -8h-286z" />
    <glyph glyph-name="uni00B3" unicode="&#xb3;" horiz-adv-x="423" 
d="M349 427q0 25 -15 41.5t-39.5 27t-54.5 16t-60 8.5q-7 2 -7 8v2q0 7 7 9q24 6 47 15.5t41 21.5t29 26.5t11 31.5q0 28 -27.5 42t-78.5 14q-26 0 -55.5 -4t-55.5 -10q-8 -2 -10 6l-1 2q-2 7 6 9q28 8 59 12t57 4q60 0 94 -19.5t34 -55.5q0 -18 -10 -34.5t-26.5 -29
t-38 -22t-43.5 -14.5q-2 -2 0 -2q30 -1 58.5 -7.5t51 -19.5t36 -32t13.5 -46q0 -44 -39.5 -75t-127.5 -31q-40 0 -71 4t-63 12q-8 2 -6 10l1 2q2 8 10 6q30 -7 60 -11t69 -4q70 0 107.5 24.5t37.5 62.5z" />
    <glyph glyph-name="acute" unicode="&#xb4;" horiz-adv-x="382" 
d="M102 572q-2 2 -1 5t3 4l159 96q6 5 12 -3l1 -1q4 -8 -4 -12l-160 -93q-7 -2 -9 3z" />
    <glyph glyph-name="mu" unicode="&#xb5;" horiz-adv-x="552" 
d="M436 98q-15 -19 -34.5 -38t-43.5 -34.5t-52.5 -25.5t-60.5 -10q-57 0 -91.5 15.5t-52.5 45.5q-1 2 -2.5 1t-1.5 -3v-47q0 -66 -20 -117.5t-54 -97.5q-2 -3 -5.5 -3.5t-6.5 1.5l-2 2q-3 2 -3.5 5.5t1.5 6.5q34 48 51 95.5t17 107.5v438q0 10 10 10h2q10 0 10 -10v-269
q0 -38 6.5 -67.5t23.5 -50t45.5 -31.5t72.5 -11q33 0 61 10t52 26.5t43.5 38t34.5 43.5q5 7 5 15v296q0 10 10 10h2q10 0 10 -10v-369q0 -20 5 -34t18 -28q6 -6 -1 -12l-2 -2q-6 -4 -13 1q-29 27 -29 69v32q0 2 -1.5 2.5t-3.5 -1.5z" />
    <glyph glyph-name="paragraph" unicode="&#xb6;" horiz-adv-x="651" 
d="M289 262q-71 0 -119.5 15.5t-79.5 44t-44.5 68.5t-13.5 90t13.5 91t44.5 69.5t79.5 44t119.5 15.5h313q9 0 9 -9v-2q0 -9 -9 -9h-56q-8 0 -8 -8v-670q0 -66 -14.5 -117.5t-47.5 -97.5q-4 -8 -12 -2l-2 2q-3 2 -3.5 5.5t1.5 6.5q33 48 44.5 95.5t11.5 107.5v670q0 8 -8 8
h-61q-8 0 -8 -8v-670q0 -66 -20 -117.5t-54 -97.5q-2 -3 -5.5 -3.5t-6.5 1.5l-2 2q-6 4 -2 12q34 48 51 95.5t17 107.5v252q0 8 -8 8h-120z" />
    <glyph glyph-name="periodcentered" unicode="&#xb7;" horiz-adv-x="192" 
d="M96 347q-21 0 -21 21t21 21t21 -21t-21 -21z" />
    <glyph glyph-name="cedilla" unicode="&#xb8;" horiz-adv-x="368" 
d="M184 -67q-5 0 -10 -0.5t-11 -1.5q-8 -2 -15 6l-2 1q-6 7 -1 15l26 39q5 8 14 8h2q9 0 5 -8l-21 -34q-2 -2 0 -4.5t4 -1.5q18 1 34.5 -1.5t29.5 -9.5t20.5 -19t7.5 -30q0 -35 -26.5 -51t-62.5 -16q-16 0 -37 3.5t-35 9.5q-3 1 -4.5 4t0.5 5l1 2q3 7 10 4q12 -5 31.5 -7.5
t33.5 -2.5q29 0 48 12.5t19 36.5q0 13 -5.5 21t-14.5 12.5t-20 6t-21 1.5z" />
    <glyph glyph-name="uni00B9" unicode="&#xb9;" horiz-adv-x="306" 
d="M86 639q-8 -4 -13 4l-1 1q-5 8 3 14l82 50q4 2 8 2h2q5 0 5 -4v-352q0 -8 8 -8h71q9 0 9 -9v-2q0 -9 -9 -9h-178q-9 0 -9 9v2q0 9 9 9h71q8 0 8 8v317q0 3 -2.5 4.5t-4.5 -0.5z" />
    <glyph glyph-name="ordmasculine" unicode="&#xba;" horiz-adv-x="501" 
d="M250 318q-89 0 -142 50.5t-53 144.5t53 145t142 51q90 0 143 -51t53 -145t-53 -144.5t-143 -50.5zM250 690q-81 0 -127 -46t-46 -131t46 -130.5t127 -45.5t127.5 45.5t46.5 130.5t-46.5 131t-127.5 46z" />
    <glyph glyph-name="guillemotright" unicode="&#xbb;" horiz-adv-x="446" 
d="M387 243q6 -8 0 -16l-138 -172q-6 -8 -14 -2l-2 3q-8 6 -2 14l130 158q5 7 0 14l-130 158q-6 8 2 14l2 3q8 6 14 -2zM216 243q5 -8 0 -16l-139 -172q-6 -8 -14 -2l-2 3q-8 6 -2 14l130 158q5 7 0 14l-130 158q-6 8 2 14l2 3q8 6 14 -2z" />
    <glyph glyph-name="onequarter" unicode="&#xbc;" horiz-adv-x="732" 
d="M609 -10q-9 0 -9 9v74q0 8 -8 8h-249q-8 0 -8 8v2q0 6 4 14l180 258q6 8 16 8l3 -1q3 0 4.5 -3t-0.5 -5l-178 -256q-2 -2 -1 -4.5t4 -2.5h225q8 0 8 8v167q0 9 9 9h2q9 0 9 -9v-167q0 -8 8 -8h64q8 0 8 -8v-2q0 -8 -8 -8h-64q-8 0 -8 -8v-74q0 -9 -9 -9h-2zM148 -5
q-8 6 -4 13l379 694q6 7 14 4l1 -1q9 -6 4 -13l-380 -694q-2 -3 -5.5 -4t-6.5 1h-2zM73 639q-8 -4 -13 4l-1 1q-5 8 3 14l82 50q4 2 8 2h2q5 0 5 -4v-352q0 -8 8 -8h71q9 0 9 -9v-2q0 -9 -9 -9h-178q-9 0 -9 9v2q0 9 9 9h71q8 0 8 8v317q0 3 -2.5 4.5t-4.5 -0.5z" />
    <glyph glyph-name="onehalf" unicode="&#xbd;" horiz-adv-x="743" 
d="M414 0q-5 0 -5 5v8q0 32 12.5 55.5t33 41.5t46.5 32t52 27q22 11 43 22.5t37.5 25t26.5 30.5t10 39q0 42 -30.5 60t-84.5 18q-29 0 -60.5 -5.5t-59.5 -14.5q-7 -3 -11 5l-1 2q-2 7 6 11q31 11 64.5 16t61.5 5q63 0 100 -23t37 -74q0 -25 -12 -44.5t-30.5 -35.5t-42 -29
t-46.5 -25t-45 -24t-40.5 -27t-30.5 -33.5t-14 -41.5q0 -8 8 -8h261q8 0 8 -8v-2q0 -8 -8 -8h-286zM143 -5q-8 6 -4 13l379 694q6 8 13 4l2 -1q9 -6 4 -13l-380 -694q-2 -3 -5.5 -4t-6.5 1h-2zM68 639q-8 -4 -13 4l-1 1q-5 8 3 14l82 50q4 2 8 2h2q5 0 5 -4v-352q0 -8 8 -8
h71q9 0 9 -9v-2q0 -9 -9 -9h-178q-9 0 -9 9v2q0 9 9 9h71q8 0 8 8v317q0 3 -2.5 4.5t-4.5 -0.5z" />
    <glyph glyph-name="threequarters" unicode="&#xbe;" horiz-adv-x="771" 
d="M647 -10q-9 0 -9 9v74q0 8 -8 8h-249q-8 0 -8 8v2q0 6 4 14l180 258q6 8 16 8l3 -1q3 0 4.5 -3t-0.5 -5l-178 -256q-2 -2 -1 -4.5t4 -2.5h225q8 0 8 8v167q0 9 9 9h2q9 0 9 -9v-167q0 -8 8 -8h64q8 0 8 -8v-2q0 -8 -8 -8h-64q-8 0 -8 -8v-74q0 -9 -9 -9h-2zM214 -5
q-8 6 -4 13l380 694q4 8 13 4l1 -1q9 -6 4 -13l-380 -694q-2 -3 -5.5 -4t-6.5 1h-2zM329 428q0 25 -15 41.5t-39.5 27t-54.5 16t-60 8.5q-7 2 -7 8v2q0 7 7 9q24 6 47 15.5t41 21.5t29 26.5t11 31.5q0 28 -27.5 42t-78.5 14q-26 0 -55.5 -4t-55.5 -10q-8 -2 -10 6l-1 2
q-2 7 6 9q28 8 59 12t57 4q60 0 94 -19.5t34 -55.5q0 -18 -10 -34.5t-26.5 -29t-38 -22t-43.5 -14.5q-2 -2 0 -2q30 -1 58.5 -7.5t51 -19.5t36 -32t13.5 -46q0 -44 -39.5 -75t-127.5 -31q-40 0 -71 4t-63 12q-8 2 -6 10l1 2q2 8 10 6q30 -7 60 -11t69 -4q70 0 107.5 24.5
t37.5 62.5z" />
    <glyph glyph-name="questiondown" unicode="&#xbf;" horiz-adv-x="445" 
d="M250 668q-21 0 -21 21t21 21t21 -21t-21 -21zM249 515q0 11 -1 22.5t-4 23.5q-2 10 8 10h4q10 0 12 -10q2 -11 3 -22.5t1 -22.5q0 -46 -15.5 -82t-38 -66.5t-49.5 -58.5t-49.5 -56.5t-38 -60.5t-15.5 -72q0 -51 45 -80t120 -29q45 0 89 9t79 23q7 4 11 -4l1 -2
q2 -3 0 -6.5t-5 -5.5q-37 -17 -85 -26t-90 -9t-76.5 9t-59.5 26t-39 41t-14 54q0 43 15.5 76.5t38.5 63t49.5 57t49.5 57t38.5 64t15.5 77.5z" />
    <glyph glyph-name="Agrave" unicode="&#xc0;" horiz-adv-x="714" 
d="M18 0q-4 0 -6 3t0 6l331 694q3 7 11 7h2q7 0 11 -7l331 -694q2 -3 0 -6t-6 -3h-4q-10 0 -14 9l-109 230q-3 8 -12 8h-396q-9 0 -12 -8l-108 -230q-4 -9 -14 -9h-5zM359 677q-4 6 -8 0l-189 -402q-2 -8 5 -8h377q7 0 5 8zM192 859q6 8 12 3l159 -96q6 -4 2 -9l-1 -1
q-3 -5 -9 -3l-161 93q-7 4 -3 12z" />
    <glyph glyph-name="Aacute" unicode="&#xc1;" horiz-adv-x="714" 
d="M18 0q-4 0 -6 3t0 6l331 694q3 7 11 7h2q7 0 11 -7l331 -694q2 -3 0 -6t-6 -3h-4q-10 0 -14 9l-109 230q-3 8 -12 8h-396q-9 0 -12 -8l-108 -230q-4 -9 -14 -9h-5zM359 677q-4 6 -8 0l-189 -402q-2 -8 5 -8h377q7 0 5 8zM346 757q-4 5 2 9l159 96q6 5 12 -3l1 -1
q4 -8 -4 -12l-160 -93q-7 -2 -9 3z" />
    <glyph glyph-name="Acircumflex" unicode="&#xc2;" horiz-adv-x="714" 
d="M18 0q-4 0 -6 3t0 6l331 694q3 7 11 7h2q7 0 11 -7l331 -694q2 -3 0 -6t-6 -3h-4q-10 0 -14 9l-109 230q-3 8 -12 8h-396q-9 0 -12 -8l-108 -230q-4 -9 -14 -9h-5zM359 677q-4 6 -8 0l-189 -402q-2 -8 5 -8h377q7 0 5 8zM249 756q-5 5 0 10l99 96q7 7 14 0l99 -96
q5 -5 0 -10l-1 -1q-5 -5 -10 -1l-89 79q-6 8 -12 0l-89 -79q-5 -4 -10 1z" />
    <glyph glyph-name="Atilde" unicode="&#xc3;" horiz-adv-x="714" 
d="M18 0q-4 0 -6 3t0 6l331 694q3 7 11 7h2q7 0 11 -7l331 -694q2 -3 0 -6t-6 -3h-4q-10 0 -14 9l-109 230q-3 8 -12 8h-396q-9 0 -12 -8l-108 -230q-4 -9 -14 -9h-5zM359 677q-4 6 -8 0l-189 -402q-2 -8 5 -8h377q7 0 5 8zM282 819q25 0 43 -8.5t34 -18.5t32 -18.5t37 -8.5
q20 0 30 12t12 29q0 9 10 9h1q4 0 6.5 -3t1.5 -6q-2 -26 -18.5 -42.5t-42.5 -16.5q-24 0 -42 8.5t-34 18t-32.5 18t-37.5 8.5q-20 0 -30 -12.5t-12 -29.5q0 -8 -9 -8h-2q-8 0 -8 8q2 28 18.5 44.5t42.5 16.5z" />
    <glyph glyph-name="Adieresis" unicode="&#xc4;" horiz-adv-x="714" 
d="M18 0q-4 0 -6 3t0 6l331 694q3 7 11 7h2q7 0 11 -7l331 -694q2 -3 0 -6t-6 -3h-4q-10 0 -14 9l-109 230q-3 8 -12 8h-396q-9 0 -12 -8l-108 -230q-4 -9 -14 -9h-5zM359 677q-4 6 -8 0l-189 -402q-2 -8 5 -8h377q7 0 5 8zM242 750q-21 0 -21 21t21 21t21 -21t-21 -21z
M469 750q-21 0 -21 21t21 21t21 -21t-21 -21z" />
    <glyph glyph-name="Aring" unicode="&#xc5;" horiz-adv-x="716" 
d="M332 698q-23 6 -36 23.5t-13 46.5q0 35 20 54t53 19t53 -19t20 -54q0 -29 -13.5 -46.5t-36.5 -23.5q-8 -2 -4 -10l324 -679q2 -3 0 -6t-6 -3h-4q-10 0 -14 9l-109 230q-3 8 -12 8h-396q-9 0 -12 -8l-108 -230q-4 -9 -14 -9h-5q-4 0 -6 3t0 6l323 679q4 8 -4 10zM360 677
q-4 6 -8 0l-189 -402q-2 -8 5 -8h377q7 0 5 8zM356 825q-26 0 -41 -14.5t-15 -42.5t15 -42.5t41 -14.5q55 0 55 57t-55 57z" />
    <glyph glyph-name="AE" unicode="&#xc6;" horiz-adv-x="1049" 
d="M9 0q-3 0 -5 3t0 6l424 682q4 9 15 9h538q9 0 9 -9v-2q0 -9 -9 -9h-415q-8 0 -8 -8v-300q0 -8 8 -8h341q9 0 9 -9v-2q0 -9 -9 -9h-341q-8 0 -8 -8v-308q0 -8 8 -8h419q9 0 9 -9v-2q0 -9 -9 -9h-439q-10 0 -10 10v326q0 8 -8 8h-282q-8 0 -13 -7l-203 -328q-5 -9 -15 -9
h-6zM455 680q-8 0 -13 -7l-187 -302q-2 -2 -0.5 -4.5t4.5 -2.5h269q8 0 8 8v300q0 8 -8 8h-73z" />
    <glyph glyph-name="Ccedilla" unicode="&#xc7;" horiz-adv-x="678" 
d="M413 -67q-5 0 -10 -0.5t-11 -1.5q-9 -2 -15 6l-2 1q-6 7 -1 15l19 30q2 2 0.5 4.5t-3.5 2.5q-77 3 -138 27.5t-104 70.5t-65.5 111.5t-22.5 149.5q0 86 24 153t68.5 113.5t108.5 70.5t145 24q65 0 115 -11t99 -33q9 -4 5 -13l-1 -2q-4 -9 -13 -5q-45 20 -95 31.5
t-110 11.5q-76 0 -135.5 -23t-101 -66.5t-63.5 -107t-22 -143.5t22 -143t63.5 -106.5t101 -66t135.5 -22.5q62 0 111.5 13.5t92.5 37.5q7 5 13 -3l1 -2q5 -7 -3 -13q-44 -23 -89.5 -37.5t-103.5 -16.5q-8 0 -13 -7l-15 -25q-2 -2 0 -4.5t4 -1.5q18 1 34.5 -1.5t29.5 -9.5
t20.5 -19t7.5 -30q0 -35 -26.5 -51t-62.5 -16q-16 0 -37 3.5t-35 9.5q-3 1 -4.5 4t0.5 5l1 2q3 7 10 4q12 -5 31.5 -7.5t33.5 -2.5q29 0 48 12.5t19 36.5q0 13 -5.5 21t-14.5 12.5t-20 6t-21 1.5z" />
    <glyph glyph-name="Egrave" unicode="&#xc8;" 
d="M114 0q-10 0 -10 10v680q0 10 10 10h469q9 0 9 -9v-2q0 -9 -9 -9h-449q-8 0 -8 -8v-295q0 -8 8 -8h371q9 0 9 -9v-2q0 -9 -9 -9h-371q-8 0 -8 -8v-313q0 -8 8 -8h449q9 0 9 -9v-2q0 -9 -9 -9h-469zM212 859q6 8 12 3l159 -96q6 -4 2 -9l-1 -1q-2 -5 -9 -3l-160 93
q-8 4 -4 12z" />
    <glyph glyph-name="Eacute" unicode="&#xc9;" 
d="M114 0q-10 0 -10 10v680q0 10 10 10h469q9 0 9 -9v-2q0 -9 -9 -9h-449q-8 0 -8 -8v-295q0 -8 8 -8h371q9 0 9 -9v-2q0 -9 -9 -9h-371q-8 0 -8 -8v-313q0 -8 8 -8h449q9 0 9 -9v-2q0 -9 -9 -9h-469zM304 757q-4 5 2 9l159 96q6 5 12 -3l1 -1q4 -8 -4 -12l-160 -93
q-7 -2 -9 3z" />
    <glyph glyph-name="Ecircumflex" unicode="&#xca;" 
d="M114 0q-10 0 -10 10v680q0 10 10 10h469q9 0 9 -9v-2q0 -9 -9 -9h-449q-8 0 -8 -8v-295q0 -8 8 -8h371q9 0 9 -9v-2q0 -9 -9 -9h-371q-8 0 -8 -8v-313q0 -8 8 -8h449q9 0 9 -9v-2q0 -9 -9 -9h-469zM253 756q-5 5 0 10l99 96q7 7 14 0l99 -96q5 -5 0 -10l-1 -1
q-5 -5 -10 -1l-89 79q-6 8 -12 0l-89 -79q-5 -4 -10 1z" />
    <glyph glyph-name="Edieresis" unicode="&#xcb;" 
d="M114 0q-10 0 -10 10v680q0 10 10 10h469q9 0 9 -9v-2q0 -9 -9 -9h-449q-8 0 -8 -8v-295q0 -8 8 -8h371q9 0 9 -9v-2q0 -9 -9 -9h-371q-8 0 -8 -8v-313q0 -8 8 -8h449q9 0 9 -9v-2q0 -9 -9 -9h-469zM468 750q-21 0 -21 21t21 21t21 -21t-21 -21zM241 750q-21 0 -21 21
t21 21t21 -21t-21 -21z" />
    <glyph glyph-name="Igrave" unicode="&#xcc;" horiz-adv-x="286" 
d="M53 679q-9 0 -9 10v2q0 9 9 9h175q10 0 10 -9v-2q0 -10 -10 -10h-68q-8 0 -8 -8v-642q0 -8 8 -8h68q10 0 10 -10v-2q0 -9 -10 -9h-175q-9 0 -9 9v2q0 10 9 10h69q8 0 8 8v642q0 8 -8 8h-69zM36 859q6 8 12 3l159 -96q6 -4 2 -9l-1 -1q-2 -5 -9 -3l-160 93q-4 2 -5 5.5
t1 6.5z" />
    <glyph glyph-name="Iacute" unicode="&#xcd;" horiz-adv-x="286" 
d="M55 679q-9 0 -9 10v2q0 9 9 9h175q10 0 10 -9v-2q0 -10 -10 -10h-68q-8 0 -8 -8v-642q0 -8 8 -8h68q10 0 10 -10v-2q0 -9 -10 -9h-175q-9 0 -9 9v2q0 10 9 10h69q8 0 8 8v642q0 8 -8 8h-69zM73 757q-2 6 3 9l158 96q3 2 6.5 1t5.5 -4l1 -1q2 -3 1 -6.5t-4 -5.5l-160 -93
q-7 -2 -10 3z" />
    <glyph glyph-name="Icircumflex" unicode="&#xce;" horiz-adv-x="286" 
d="M53 679q-9 0 -9 10v2q0 9 9 9h175q10 0 10 -9v-2q0 -10 -10 -10h-68q-8 0 -8 -8v-642q0 -8 8 -8h68q10 0 10 -10v-2q0 -9 -10 -9h-175q-9 0 -9 9v2q0 10 9 10h69q8 0 8 8v642q0 8 -8 8h-69zM35 756q-5 5 0 10l99 96q7 7 14 0l99 -96q5 -5 0 -10l-1 -1q-5 -5 -10 -1
l-89 79q-6 8 -12 0l-89 -79q-5 -4 -10 1z" />
    <glyph glyph-name="Idieresis" unicode="&#xcf;" horiz-adv-x="286" 
d="M55 679q-9 0 -9 10v2q0 9 9 9h175q10 0 10 -9v-2q0 -10 -10 -10h-68q-8 0 -8 -8v-642q0 -8 8 -8h68q10 0 10 -10v-2q0 -9 -10 -9h-175q-9 0 -9 9v2q0 10 9 10h69q8 0 8 8v642q0 8 -8 8h-69zM60 750q-21 0 -21 21t21 21t21 -21t-21 -21zM227 750q-21 0 -21 21t21 21
t21 -21t-21 -21z" />
    <glyph glyph-name="Eth" unicode="&#xd0;" horiz-adv-x="782" 
d="M132 0q-10 0 -10 10v335q0 8 -8 8h-112q-9 0 -9 9v2q0 9 9 9h112q8 0 8 8v309q0 10 10 10h240q81 0 145.5 -22.5t109.5 -67t69.5 -110t24.5 -151.5t-24.5 -151t-69.5 -109t-109.5 -66.5t-145.5 -22.5h-240zM363 373q9 0 9 -9v-2q0 -9 -9 -9h-211q-8 0 -8 -8v-316
q0 -8 8 -8h220q76 0 136 21t102 62.5t64.5 103t22.5 141.5t-22.5 141.5t-64.5 103.5t-102 63.5t-136 21.5h-220q-8 0 -8 -8v-290q0 -8 8 -8h211z" />
    <glyph glyph-name="Ntilde" unicode="&#xd1;" horiz-adv-x="805" 
d="M689 0q-10 0 -16 8l-542 652q-5 5 -5 -2v-648q0 -10 -10 -10h-2q-10 0 -10 10v680q0 10 10 10h2q10 0 16 -8l542 -653q5 -5 5 2v649q0 10 10 10h2q10 0 10 -10v-680q0 -10 -10 -10h-2zM329 819q25 0 43 -8.5t34 -18.5t32 -18.5t37 -8.5q20 0 30 12t12 29q0 9 10 9h1
q4 0 6.5 -3t2.5 -6q-3 -26 -19.5 -42.5t-42.5 -16.5q-24 0 -42 8.5t-34 18t-32.5 18t-37.5 8.5q-20 0 -30 -12.5t-12 -29.5q0 -8 -9 -8h-2q-8 0 -8 8q3 28 19 44.5t42 16.5z" />
    <glyph glyph-name="Ograve" unicode="&#xd2;" horiz-adv-x="826" 
d="M413 -10q-81 0 -146 24t-111 69.5t-71 112.5t-25 153t25 153t71 113.5t111 70.5t146 24t146 -24t111 -70.5t71 -113.5t25 -153t-25 -153t-71 -112.5t-111 -69.5t-146 -24zM413 689q-76 0 -137 -23t-103.5 -66.5t-65.5 -107t-23 -143.5t23 -143t65.5 -106.5t103.5 -66
t137 -22.5t136.5 22.5t103.5 66t66 106.5t23 143t-23 143.5t-66 107t-103.5 66.5t-136.5 23zM255 859q6 8 12 3l159 -96q6 -4 2 -9l-1 -1q-2 -5 -9 -3l-160 93q-8 4 -4 12z" />
    <glyph glyph-name="Oacute" unicode="&#xd3;" horiz-adv-x="826" 
d="M413 -10q-81 0 -146 24t-111 69.5t-71 112.5t-25 153t25 153t71 113.5t111 70.5t146 24t146 -24t111 -70.5t71 -113.5t25 -153t-25 -153t-71 -112.5t-111 -69.5t-146 -24zM413 689q-76 0 -137 -23t-103.5 -66.5t-65.5 -107t-23 -143.5t23 -143t65.5 -106.5t103.5 -66
t137 -22.5t136.5 22.5t103.5 66t66 106.5t23 143t-23 143.5t-66 107t-103.5 66.5t-136.5 23zM396 757q-4 5 2 9l159 96q6 5 12 -3l1 -1q4 -8 -4 -12l-160 -93q-7 -2 -9 3z" />
    <glyph glyph-name="Ocircumflex" unicode="&#xd4;" horiz-adv-x="826" 
d="M413 -10q-81 0 -146 24t-111 69.5t-71 112.5t-25 153t25 153t71 113.5t111 70.5t146 24t146 -24t111 -70.5t71 -113.5t25 -153t-25 -153t-71 -112.5t-111 -69.5t-146 -24zM413 689q-76 0 -137 -23t-103.5 -66.5t-65.5 -107t-23 -143.5t23 -143t65.5 -106.5t103.5 -66
t137 -22.5t136.5 22.5t103.5 66t66 106.5t23 143t-23 143.5t-66 107t-103.5 66.5t-136.5 23zM307 756q-5 5 0 10l99 96q7 7 14 0l99 -96q5 -5 0 -10l-1 -1q-5 -5 -10 -1l-89 79q-6 8 -12 0l-89 -79q-5 -4 -10 1z" />
    <glyph glyph-name="Otilde" unicode="&#xd5;" horiz-adv-x="826" 
d="M413 -10q-81 0 -146 24t-111 69.5t-71 112.5t-25 153t25 153t71 113.5t111 70.5t146 24t146 -24t111 -70.5t71 -113.5t25 -153t-25 -153t-71 -112.5t-111 -69.5t-146 -24zM413 689q-76 0 -137 -23t-103.5 -66.5t-65.5 -107t-23 -143.5t23 -143t65.5 -106.5t103.5 -66
t137 -22.5t136.5 22.5t103.5 66t66 106.5t23 143t-23 143.5t-66 107t-103.5 66.5t-136.5 23zM339 819q25 0 43 -8.5t34 -18.5t32 -18.5t37 -8.5q20 0 30 12t12 29q0 9 10 9h1q4 0 6.5 -3t2.5 -6q-3 -26 -19.5 -42.5t-42.5 -16.5q-24 0 -42 8.5t-34 18t-32.5 18t-37.5 8.5
q-20 0 -30 -12.5t-12 -29.5q0 -8 -9 -8h-2q-8 0 -8 8q3 28 19 44.5t42 16.5z" />
    <glyph glyph-name="Odieresis" unicode="&#xd6;" horiz-adv-x="826" 
d="M413 -10q-81 0 -146 24t-111 69.5t-71 112.5t-25 153t25 153t71 113.5t111 70.5t146 24t146 -24t111 -70.5t71 -113.5t25 -153t-25 -153t-71 -112.5t-111 -69.5t-146 -24zM413 689q-76 0 -137 -23t-103.5 -66.5t-65.5 -107t-23 -143.5t23 -143t65.5 -106.5t103.5 -66
t137 -22.5t136.5 22.5t103.5 66t66 106.5t23 143t-23 143.5t-66 107t-103.5 66.5t-136.5 23zM299 750q-21 0 -21 21t21 21t21 -21t-21 -21zM526 750q-21 0 -21 21t21 21t21 -21t-21 -21z" />
    <glyph glyph-name="multiply" unicode="&#xd7;" horiz-adv-x="506" 
d="M58 440q-7 6 -1 12l2 2q5 5 12 0l175 -172q6 -6 12 0l172 174q6 7 12 1l2 -2q5 -5 0 -12l-172 -175q-6 -6 0 -12l173 -171q7 -6 1 -12l-2 -2q-5 -5 -12 0l-174 171q-6 6 -12 0l-171 -173q-6 -7 -12 -1l-2 2q-5 5 0 12l171 174q6 6 0 12z" />
    <glyph glyph-name="Oslash" unicode="&#xd8;" horiz-adv-x="824" 
d="M150 88q-44 46 -67.5 111t-23.5 150q0 86 25 153t71 113.5t111 70.5t146 24q141 0 232 -73q2 -2 6 -1.5t6 2.5l69 77q6 7 14 1l1 -2q8 -6 1 -13l-68 -77q-6 -7 0 -13q44 -46 68 -112t24 -150q0 -86 -25 -153t-71 -112.5t-111 -69.5t-146 -24q-143 0 -234 73q-6 5 -12 -1
l-67 -75q-5 -7 -13 -1l-2 1q-7 5 -1 13l67 75q3 3 2.5 7t-2.5 6zM412 689q-76 0 -137 -23t-103.5 -66.5t-65.5 -107t-23 -143.5q0 -78 21.5 -139t61.5 -105q6 -6 12 0l452 504q2 2 1.5 6t-2.5 6q-42 33 -96.5 50.5t-120.5 17.5zM412 11q76 0 136.5 22.5t103.5 66t66 106.5
t23 143q0 78 -21.5 139.5t-62.5 105.5q-2 2 -5.5 2t-5.5 -2l-454 -503q-2 -2 -1.5 -6t2.5 -6q85 -68 219 -68z" />
    <glyph glyph-name="Ugrave" unicode="&#xd9;" horiz-adv-x="782" 
d="M677 700q10 0 10 -10v-367q0 -83 -16.5 -145.5t-52 -104t-91.5 -62.5t-136 -21t-136 21t-91.5 62.5t-52 104t-16.5 145.5v367q0 10 10 10h2q10 0 10 -10v-367q0 -77 15 -135t48 -97.5t85 -59.5t126 -20t126 20t85 59t48 97.5t15 135.5v367q0 10 10 10h2zM260 859
q6 8 12 3l159 -96q5 -3 3 -9l-2 -1q-2 -5 -9 -3l-160 93q-8 4 -4 12z" />
    <glyph glyph-name="Uacute" unicode="&#xda;" horiz-adv-x="782" 
d="M677 700q10 0 10 -10v-367q0 -83 -16.5 -145.5t-52 -104t-91.5 -62.5t-136 -21t-136 21t-91.5 62.5t-52 104t-16.5 145.5v367q0 10 10 10h2q10 0 10 -10v-367q0 -77 15 -135t48 -97.5t85 -59.5t126 -20t126 20t85 59t48 97.5t15 135.5v367q0 10 10 10h2zM335 757
q-2 6 3 9l159 96q6 5 12 -3l1 -1q4 -8 -4 -12l-160 -93q-7 -2 -9 3z" />
    <glyph glyph-name="Ucircumflex" unicode="&#xdb;" horiz-adv-x="782" 
d="M677 700q10 0 10 -10v-367q0 -83 -16.5 -145.5t-52 -104t-91.5 -62.5t-136 -21t-136 21t-91.5 62.5t-52 104t-16.5 145.5v367q0 10 10 10h2q10 0 10 -10v-367q0 -77 15 -135t48 -97.5t85 -59.5t126 -20t126 20t85 59t48 97.5t15 135.5v367q0 10 10 10h2zM285 756
q-5 5 0 10l99 96q7 7 14 0l99 -96q5 -5 0 -10l-1 -1q-5 -5 -10 -1l-89 79q-6 8 -12 0l-89 -79q-5 -4 -10 1z" />
    <glyph glyph-name="Udieresis" unicode="&#xdc;" horiz-adv-x="782" 
d="M677 700q10 0 10 -10v-367q0 -83 -16.5 -145.5t-52 -104t-91.5 -62.5t-136 -21t-136 21t-91.5 62.5t-52 104t-16.5 145.5v367q0 10 10 10h2q10 0 10 -10v-367q0 -77 15 -135t48 -97.5t85 -59.5t126 -20t126 20t85 59t48 97.5t15 135.5v367q0 10 10 10h2zM277 750
q-21 0 -21 21t21 21t21 -21t-21 -21zM504 750q-21 0 -21 21t21 21t21 -21t-21 -21z" />
    <glyph glyph-name="Yacute" unicode="&#xdd;" 
d="M337 304q-5 -7 -5 -15v-279q0 -10 -10 -10h-2q-10 0 -10 10v277q0 8 -5 15l-301 390q-2 2 -0.5 5t4.5 3h9q10 0 16 -8l282 -368q2 -3 5 -3t5 3l281 368q6 8 16 8h8q3 0 4.5 -3t-0.5 -5zM269 757q-2 6 3 9l159 96q2 2 5.5 1t5.5 -4l1 -1q2 -3 1 -6.5t-4 -5.5l-160 -93
q-7 -2 -10 3z" />
    <glyph glyph-name="Thorn" unicode="&#xde;" horiz-adv-x="695" 
d="M114 0q-10 0 -10 10v680q0 10 10 10h2q10 0 10 -10v-129q0 -8 8 -8h266q70 0 119 -12.5t80 -37.5t44.5 -62.5t13.5 -87.5t-13.5 -87t-44.5 -62t-80 -37t-119 -12h-266q-8 0 -8 -8v-137q0 -10 -10 -10h-2zM633 353q0 44 -12 77.5t-39.5 56t-72.5 34t-111 11.5h-264
q-8 0 -8 -8v-340q0 -8 8 -8h264q66 0 111 11t72.5 33.5t39.5 55.5t12 77z" />
    <glyph glyph-name="germandbls" unicode="&#xdf;" horiz-adv-x="608" 
d="M543 150q0 42 -17 69t-42.5 46t-55.5 33t-55.5 30t-42.5 37t-17 55q0 32 17.5 54.5t38.5 44t37.5 45.5t15.5 59q-1 25 -9.5 46t-26.5 36.5t-46 24.5t-67 9q-63 0 -98 -33.5t-35 -107.5v-588q0 -10 -10 -10h-2q-10 0 -10 10v412q0 8 -8 8h-75q-9 0 -9 9v2q0 9 9 9h75
q8 0 8 8v140q0 83 40.5 122.5t115.5 39.5q45 0 77.5 -10t53 -28.5t30.5 -44t10 -56.5q0 -39 -17 -65t-37 -47t-37 -41t-17 -48q0 -27 17 -45t42.5 -33t55.5 -30t55.5 -36t42.5 -51t17 -75q0 -32 -10.5 -60.5t-32.5 -51t-55 -35.5t-79 -13q-35 0 -79.5 6.5t-80.5 20.5
q-3 1 -5 4.5t0 6.5l1 2q1 3 4.5 5t6.5 0q32 -11 71.5 -17.5t81.5 -6.5q40 0 68.5 11.5t47.5 31t28 44.5t9 52z" />
    <glyph glyph-name="agrave" unicode="&#xe0;" horiz-adv-x="523" 
d="M130 674q4 8 11 3l159 -96q5 -2 3 -9l-2 -1q-2 -5 -9 -3l-160 93q-8 4 -4 12zM417 108q-14 -19 -35.5 -39.5t-48.5 -38t-58.5 -29t-65.5 -11.5q-77 0 -119 34.5t-42 98.5q0 25 8 48t27.5 40.5t53.5 28t87 10.5q15 0 37.5 -2t48.5 -6t53 -9t51 -12q8 -2 8 6v52q0 37 -8 67
t-26.5 50.5t-49.5 31.5t-77 11q-51 0 -95 -11t-81 -31q-8 -4 -12 4l-1 2q-4 8 4 12q38 21 85 33t100 12q52 0 87 -12.5t56.5 -35.5t30.5 -56t9 -75v-210q0 -20 5 -34t18 -28q6 -6 -1 -12l-2 -2q-6 -4 -13 1q-29 27 -29 69v42q0 2 -1.5 2.5t-3.5 -1.5zM72 123q0 -54 35.5 -83
t101.5 -29q34 0 65.5 12.5t58.5 31.5t49 42t36 44q4 8 4 15v34q0 8 -8 10q-24 7 -51.5 12t-53 9t-48 6t-37.5 2q-45 0 -74.5 -8.5t-46.5 -23t-24 -34t-7 -40.5z" />
    <glyph glyph-name="aacute" unicode="&#xe1;" horiz-adv-x="523" 
d="M192 572q-2 7 3 9l159 96q7 5 11 -3l2 -1q4 -8 -4 -12l-160 -93q-7 -2 -9 3zM417 108q-14 -19 -35.5 -39.5t-48.5 -38t-58.5 -29t-65.5 -11.5q-77 0 -119 34.5t-42 98.5q0 25 8 48t27.5 40.5t53.5 28t87 10.5q15 0 37.5 -2t48.5 -6t53 -9t51 -12q8 -2 8 6v52q0 37 -8 67
t-26.5 50.5t-49.5 31.5t-77 11q-51 0 -95 -11t-81 -31q-8 -4 -12 4l-1 2q-4 8 4 12q38 21 85 33t100 12q52 0 87 -12.5t56.5 -35.5t30.5 -56t9 -75v-210q0 -20 5 -34t18 -28q6 -6 -1 -12l-2 -2q-6 -4 -13 1q-29 27 -29 69v42q0 2 -1.5 2.5t-3.5 -1.5zM72 123q0 -54 35.5 -83
t101.5 -29q34 0 65.5 12.5t58.5 31.5t49 42t36 44q4 8 4 15v34q0 8 -8 10q-24 7 -51.5 12t-53 9t-48 6t-37.5 2q-45 0 -74.5 -8.5t-46.5 -23t-24 -34t-7 -40.5z" />
    <glyph glyph-name="acircumflex" unicode="&#xe2;" horiz-adv-x="523" 
d="M162 571q-5 5 0 10l99 96q7 7 14 0l99 -96q5 -5 0 -10l-1 -1q-5 -5 -10 0l-89 78q-6 8 -12 0l-89 -78q-5 -5 -10 0zM417 108q-14 -19 -35.5 -39.5t-48.5 -38t-58.5 -29t-65.5 -11.5q-77 0 -119 34.5t-42 98.5q0 25 8 48t27.5 40.5t53.5 28t87 10.5q15 0 37.5 -2t48.5 -6
t53 -9t51 -12q8 -2 8 6v52q0 37 -8 67t-26.5 50.5t-49.5 31.5t-77 11q-51 0 -95 -11t-81 -31q-8 -4 -12 4l-1 2q-4 8 4 12q38 21 85 33t100 12q52 0 87 -12.5t56.5 -35.5t30.5 -56t9 -75v-210q0 -20 5 -34t18 -28q6 -6 -1 -12l-2 -2q-6 -4 -13 1q-29 27 -29 69v42
q0 2 -1.5 2.5t-3.5 -1.5zM72 123q0 -54 35.5 -83t101.5 -29q34 0 65.5 12.5t58.5 31.5t49 42t36 44q4 8 4 15v34q0 8 -8 10q-24 7 -51.5 12t-53 9t-48 6t-37.5 2q-45 0 -74.5 -8.5t-46.5 -23t-24 -34t-7 -40.5z" />
    <glyph glyph-name="atilde" unicode="&#xe3;" horiz-adv-x="523" 
d="M72 123q0 -54 35.5 -83t101.5 -29q34 0 65.5 12.5t58.5 31.5t49 42t36 44q4 8 4 15v34q0 8 -8 10q-24 7 -51.5 12t-53 9t-48 6t-37.5 2q-45 0 -74.5 -8.5t-46.5 -23t-24 -34t-7 -40.5zM188 637q25 0 43 -8.5t34 -18.5t32 -18.5t37 -8.5q20 0 30 12t12 29q0 9 10 9h2
q3 0 5.5 -3t2.5 -6q-3 -26 -19.5 -42.5t-42.5 -16.5q-24 0 -42 8.5t-34 18t-32.5 18t-37.5 8.5q-20 0 -30 -12.5t-12 -29.5q0 -8 -9 -8h-2q-8 0 -8 8q3 28 19 44.5t42 16.5zM451 -4q-29 27 -29 69v42q0 2 -1.5 2.5t-3.5 -1.5q-14 -19 -35.5 -39.5t-48.5 -38t-58.5 -29
t-65.5 -11.5q-77 0 -119 34.5t-42 98.5q0 25 8 48t27.5 40.5t53.5 28t87 10.5q15 0 37.5 -2t48.5 -6t53 -9t51 -12q8 -2 8 6v52q0 37 -8 67t-26.5 50.5t-49.5 31.5t-77 11q-51 0 -95 -11t-81 -31q-8 -4 -12 4l-1 2q-4 8 4 12q38 21 85 33t100 12q52 0 87 -12.5t56.5 -35.5
t30.5 -56t9 -75v-210q0 -20 5 -34t18 -28q6 -6 -1 -12l-2 -2q-6 -4 -13 1z" />
    <glyph glyph-name="adieresis" unicode="&#xe4;" horiz-adv-x="523" 
d="M381 568q-21 0 -21 21t21 21t21 -21t-21 -21zM154 568q-21 0 -21 21t21 21t21 -21t-21 -21zM417 108q-14 -19 -35.5 -39.5t-48.5 -38t-58.5 -29t-65.5 -11.5q-77 0 -119 34.5t-42 98.5q0 25 8 48t27.5 40.5t53.5 28t87 10.5q15 0 37.5 -2t48.5 -6t53 -9t51 -12q8 -2 8 6
v52q0 37 -8 67t-26.5 50.5t-49.5 31.5t-77 11q-51 0 -95 -11t-81 -31q-8 -4 -12 4l-1 2q-4 8 4 12q38 21 85 33t100 12q52 0 87 -12.5t56.5 -35.5t30.5 -56t9 -75v-210q0 -20 5 -34t18 -28q6 -6 -1 -12l-2 -2q-6 -4 -13 1q-29 27 -29 69v42q0 2 -1.5 2.5t-3.5 -1.5zM72 123
q0 -54 35.5 -83t101.5 -29q34 0 65.5 12.5t58.5 31.5t49 42t36 44q4 8 4 15v34q0 8 -8 10q-24 7 -51.5 12t-53 9t-48 6t-37.5 2q-45 0 -74.5 -8.5t-46.5 -23t-24 -34t-7 -40.5z" />
    <glyph glyph-name="aring" unicode="&#xe5;" horiz-adv-x="523" 
d="M270 564q-33 0 -53 19t-20 54t20 54t53 19t53 -19t20 -54t-20 -54t-53 -19zM72 123q0 -54 35.5 -83t101.5 -29q34 0 65.5 12.5t58.5 31.5t49 42t36 44q4 8 4 15v34q0 8 -8 10q-24 7 -51.5 12t-53 9t-48 6t-37.5 2q-45 0 -74.5 -8.5t-46.5 -23t-24 -34t-7 -40.5zM270 694
q-26 0 -41 -14.5t-15 -42.5t15 -42.5t41 -14.5q55 0 55 57t-55 57zM451 -4q-29 27 -29 69v42q0 2 -1.5 2.5t-3.5 -1.5q-14 -19 -35.5 -39.5t-48.5 -38t-58.5 -29t-65.5 -11.5q-77 0 -119 34.5t-42 98.5q0 25 8 48t27.5 40.5t53.5 28t87 10.5q15 0 37.5 -2t48.5 -6t53 -9
t51 -12q8 -2 8 6v52q0 37 -8 67t-26.5 50.5t-49.5 31.5t-77 11q-51 0 -95 -11t-81 -31q-8 -4 -12 4l-1 2q-4 8 4 12q38 21 85 33t100 12q52 0 87 -12.5t56.5 -35.5t30.5 -56t9 -75v-210q0 -20 5 -34t18 -28q6 -6 -1 -12l-2 -2q-6 -4 -13 1z" />
    <glyph glyph-name="ae" unicode="&#xe6;" horiz-adv-x="894" 
d="M72 123q0 -54 35.5 -83t101.5 -29q36 0 69.5 13.5t61.5 34.5t49.5 45.5t34.5 46.5q2 3 3 7.5t0 8.5q-2 11 -3 22.5t-2 23.5q0 8 -8 8h-216q-72 0 -99 -27.5t-27 -70.5zM817 252q0 49 -9 84.5t-29.5 58t-54 33.5t-81.5 11q-91 0 -141.5 -48.5t-57.5 -139.5q0 -8 8 -8h362
q3 0 3 3v6zM431 123q-15 -23 -38.5 -47t-52.5 -43t-62.5 -31t-68.5 -12q-77 0 -119 34.5t-42 98.5q0 25 7 47t24.5 38t46 25.5t72.5 9.5h216q8 0 8 8v28q0 37 -8 67t-26.5 50.5t-49.5 31.5t-77 11q-51 0 -95 -11t-81 -31q-8 -4 -12 4l-1 2q-4 8 4 12q38 21 85 33t100 12
q83 0 124 -31t52 -87q1 -2 2.5 -2t2.5 2q25 57 75.5 87.5t125.5 30.5q56 0 94 -13t61 -38.5t33 -63.5t10 -89v-25q0 -10 -10 -10h-379q-8 0 -8 -8q3 -99 55.5 -150.5t147.5 -51.5q47 0 89 12t74 29q7 4 11 -4l1 -2q4 -8 -3 -11q-34 -19 -78 -32t-94 -13q-80 0 -133 34
t-76 98q-1 3 -3 3t-4 -2z" />
    <glyph glyph-name="ccedilla" unicode="&#xe7;" horiz-adv-x="481" 
d="M287 -67q-5 0 -10 -0.5t-11 -1.5q-8 -2 -15 6l-2 1q-6 7 -1 15l19 30q2 2 1 4.5t-4 2.5q-97 7 -153 67t-56 168q0 113 61.5 174t168.5 61q42 0 76.5 -5.5t64.5 -18.5q9 -4 5 -13v-2q-4 -9 -13 -5q-29 11 -60.5 17t-72.5 6q-98 0 -152 -55t-54 -159t54 -159t152 -55
q38 0 70.5 9t62.5 23q8 3 12 -4l1 -2q4 -7 -4 -11q-28 -15 -58.5 -24.5t-66.5 -11.5q-8 0 -13 -7l-15 -25q-2 -2 0 -4.5t4 -1.5q18 1 34.5 -1.5t29.5 -9.5t20.5 -19t7.5 -30q0 -35 -26.5 -51t-62.5 -16q-16 0 -37 3.5t-35 9.5q-3 1 -4.5 4t0.5 5l1 2q3 7 10 4
q12 -5 31.5 -7.5t33.5 -2.5q29 0 48 12.5t19 36.5q0 13 -5.5 21t-14.5 12.5t-20 6t-21 1.5z" />
    <glyph glyph-name="egrave" unicode="&#xe8;" horiz-adv-x="529" 
d="M156 674q4 8 11 3l159 -96q5 -2 3 -9l-2 -1q-2 -5 -9 -3l-160 93q-3 2 -4 5.5t1 6.5zM454 35q-34 -19 -78.5 -32t-93.5 -13q-107 0 -167 61t-60 174t58 174t165 61q56 0 94 -13t61 -38.5t33 -63.5t10 -89v-25q0 -10 -10 -10h-379q-8 0 -8 -8q3 -99 55.5 -150.5
t147.5 -51.5q46 0 88.5 12t74.5 29q7 4 11 -4l1 -2q4 -8 -3 -11zM452 256q-1 48 -10.5 83t-30 57t-53.5 32.5t-80 10.5q-91 0 -141.5 -48.5t-57.5 -139.5q0 -8 8 -8l357 4q8 0 8 9z" />
    <glyph glyph-name="eacute" unicode="&#xe9;" horiz-adv-x="529" 
d="M242 572q-2 2 -1 5t3 4l159 96q6 5 12 -3l1 -1q4 -8 -4 -12l-160 -93q-7 -2 -9 3zM454 35q-34 -19 -78.5 -32t-93.5 -13q-107 0 -167 61t-60 174t58 174t165 61q56 0 94 -13t61 -38.5t33 -63.5t10 -89v-25q0 -10 -10 -10h-379q-8 0 -8 -8q3 -99 55.5 -150.5t147.5 -51.5
q46 0 88.5 12t74.5 29q7 4 11 -4l1 -2q4 -8 -3 -11zM452 256q-1 48 -10.5 83t-30 57t-53.5 32.5t-80 10.5q-91 0 -141.5 -48.5t-57.5 -139.5q0 -8 8 -8l357 4q8 0 8 9z" />
    <glyph glyph-name="ecircumflex" unicode="&#xea;" horiz-adv-x="529" 
d="M179 571q-5 5 0 10l99 96q7 7 14 0l99 -96q5 -5 0 -10l-1 -1q-5 -5 -10 0l-89 78q-6 8 -12 0l-89 -78q-5 -5 -10 0zM454 35q-34 -19 -78.5 -32t-93.5 -13q-107 0 -167 61t-60 174t58 174t165 61q56 0 94 -13t61 -38.5t33 -63.5t10 -89v-25q0 -10 -10 -10h-379q-8 0 -8 -8
q3 -99 55.5 -150.5t147.5 -51.5q46 0 88.5 12t74.5 29q7 4 11 -4l1 -2q4 -8 -3 -11zM452 256q-1 48 -10.5 83t-30 57t-53.5 32.5t-80 10.5q-91 0 -141.5 -48.5t-57.5 -139.5q0 -8 8 -8l357 4q8 0 8 9z" />
    <glyph glyph-name="edieresis" unicode="&#xeb;" horiz-adv-x="529" 
d="M454 35q-34 -19 -78.5 -32t-93.5 -13q-107 0 -167 61t-60 174t58 174t165 61q56 0 94 -13t61 -38.5t33 -63.5t10 -89v-25q0 -10 -10 -10h-379q-8 0 -8 -8q3 -99 55.5 -150.5t147.5 -51.5q46 0 88.5 12t74.5 29q7 4 11 -4l1 -2q4 -8 -3 -11zM175 568q-21 0 -21 21t21 21
t21 -21t-21 -21zM402 568q-21 0 -21 21t21 21t21 -21t-21 -21zM452 256q-1 48 -10.5 83t-30 57t-53.5 32.5t-80 10.5q-91 0 -141.5 -48.5t-57.5 -139.5q0 -8 8 -8l357 4q8 0 8 9z" />
    <glyph glyph-name="igrave" unicode="&#xec;" horiz-adv-x="189" 
d="M91 450q10 0 10 -10v-369q0 -20 5 -34t18 -28q6 -6 -1 -12l-2 -2q-2 -2 -6.5 -1.5t-6.5 2.5q-29 26 -29 69v375q0 10 10 10h2zM-23 674q2 3 5.5 4t6.5 -1l158 -96q2 -1 3 -4t-1 -5l-1 -1q-2 -5 -9 -3l-160 93q-8 4 -4 12z" />
    <glyph glyph-name="iacute" unicode="&#xed;" horiz-adv-x="189" 
d="M91 450q10 0 10 -10v-369q0 -20 5 -34t18 -28q6 -6 -1 -12l-2 -2q-2 -2 -6.5 -1.5t-6.5 2.5q-29 26 -29 69v375q0 10 10 10h2zM42 572q-2 7 3 9l159 96q2 2 5.5 1t5.5 -4l1 -1q2 -3 1 -6.5t-4 -5.5l-160 -93q-7 -2 -10 3z" />
    <glyph glyph-name="icircumflex" unicode="&#xee;" horiz-adv-x="189" 
d="M91 450q10 0 10 -10v-369q0 -20 5 -34t18 -28q6 -6 -1 -12l-2 -2q-2 -2 -6.5 -1.5t-6.5 2.5q-29 26 -29 69v375q0 10 10 10h2zM-16 571q-5 5 0 10l99 96q7 7 14 0l99 -96q5 -5 0 -10l-1 -1q-5 -5 -10 0l-89 78q-6 8 -12 0l-89 -78q-5 -5 -10 0z" />
    <glyph glyph-name="idieresis" unicode="&#xef;" horiz-adv-x="189" 
d="M19 568q-21 0 -21 21t21 21t21 -21t-21 -21zM166 568q-21 0 -21 21t21 21t21 -21t-21 -21zM93 450q10 0 10 -10v-369q0 -20 5 -34t18 -28q6 -6 -1 -12l-2 -2q-2 -2 -6.5 -1.5t-6.5 2.5q-29 26 -29 69v375q0 10 10 10h2z" />
    <glyph glyph-name="eth" unicode="&#xf0;" horiz-adv-x="560" 
d="M259 710q-34 0 -68 -8q-8 -3 -12 6v2q-3 8 6 12q17 5 36 8t39 3q88 0 142 -51q6 -5 13 0l63 51q8 6 13 -1l1 -2q6 -6 -1 -13l-63 -50q-8 -6 -2 -13q37 -50 53.5 -131.5t16.5 -198.5q0 -73 -12 -134.5t-38.5 -105.5t-69.5 -69t-106 -25q-46 0 -85.5 15t-68.5 45t-45.5 74
t-16.5 102t15 101.5t43 73t66.5 44.5t86.5 15q120 0 202 -114q2 -2 3.5 -1.5t1.5 2.5q-2 103 -17.5 175.5t-47.5 117.5q-2 2 -5.5 2.5t-5.5 -1.5l-68 -53q-7 -5 -12 1l-1 2q-2 2 -2 5.5t3 5.5l67 54q5 5 0 11q-47 43 -124 43zM78 226q0 -53 14 -93t39.5 -67t61 -41t77.5 -14
q53 0 90.5 21t61.5 59t36 90t14 115q0 7 -4 15q-45 69 -95.5 98.5t-107.5 29.5q-87 0 -137 -53.5t-50 -159.5z" />
    <glyph glyph-name="ntilde" unicode="&#xf1;" horiz-adv-x="562" 
d="M429 624q-3 -26 -19.5 -42.5t-42.5 -16.5q-24 0 -42 8.5t-34 18t-32.5 18t-37.5 8.5q-20 0 -30 -12.5t-12 -29.5q0 -8 -9 -8h-2q-8 0 -8 8q2 28 18.5 44.5t42.5 16.5q25 0 43 -8.5t34 -18.5t32 -18.5t37 -8.5q20 0 30 12t12 29q0 9 10 9h1q9 0 9 -9zM488 -4
q-29 27 -29 69v214q0 37 -7.5 67t-25 50.5t-46.5 31.5t-73 11q-33 0 -62 -10.5t-54 -27t-45.5 -38t-35.5 -43.5q-5 -7 -5 -15v-295q0 -10 -10 -10h-2q-10 0 -10 10v430q0 10 10 10h2q10 0 10 -10v-88q0 -2 1.5 -2.5t3.5 1.5q15 19 35.5 38t45.5 35t54 26t62 10
q49 0 82.5 -12.5t54 -35.5t29 -56t8.5 -75v-210q0 -20 5 -34t18 -28q6 -6 -1 -12l-2 -2q-6 -4 -13 1z" />
    <glyph glyph-name="ograve" unicode="&#xf2;" horiz-adv-x="578" 
d="M289 -10q-53 0 -96.5 15.5t-74.5 45.5t-47.5 74t-16.5 100t16.5 100t47.5 74t74.5 45.5t96.5 15.5t96.5 -15.5t74 -45.5t47.5 -74t17 -100t-17 -100t-47.5 -74t-74 -45.5t-96.5 -15.5zM289 439q-98 0 -154.5 -55t-56.5 -159t56.5 -159t154.5 -55t154.5 55t56.5 159
t-56.5 159t-154.5 55zM169 674q4 8 11 3l159 -96q5 -2 3 -9l-2 -1q-2 -5 -9 -3l-160 93q-3 2 -4 5.5t1 6.5z" />
    <glyph glyph-name="oacute" unicode="&#xf3;" horiz-adv-x="578" 
d="M289 -10q-53 0 -96.5 15.5t-74.5 45.5t-47.5 74t-16.5 100t16.5 100t47.5 74t74.5 45.5t96.5 15.5t96.5 -15.5t74 -45.5t47.5 -74t17 -100t-17 -100t-47.5 -74t-74 -45.5t-96.5 -15.5zM289 439q-98 0 -154.5 -55t-56.5 -159t56.5 -159t154.5 -55t154.5 55t56.5 159
t-56.5 159t-154.5 55zM259 572q-2 2 -1 5t3 4l159 96q6 5 12 -3l1 -1q4 -8 -4 -12l-160 -93q-7 -2 -9 3z" />
    <glyph glyph-name="ocircumflex" unicode="&#xf4;" horiz-adv-x="578" 
d="M289 -10q-53 0 -96.5 15.5t-74.5 45.5t-47.5 74t-16.5 100t16.5 100t47.5 74t74.5 45.5t96.5 15.5t96.5 -15.5t74 -45.5t47.5 -74t17 -100t-17 -100t-47.5 -74t-74 -45.5t-96.5 -15.5zM289 439q-98 0 -154.5 -55t-56.5 -159t56.5 -159t154.5 -55t154.5 55t56.5 159
t-56.5 159t-154.5 55zM183 571q-5 5 0 10l99 96q7 7 14 0l99 -96q5 -5 0 -10l-1 -1q-5 -5 -10 0l-89 78q-6 8 -12 0l-89 -78q-5 -5 -10 0z" />
    <glyph glyph-name="otilde" unicode="&#xf5;" horiz-adv-x="578" 
d="M289 -10q-53 0 -96.5 15.5t-74.5 45.5t-47.5 74t-16.5 100t16.5 100t47.5 74t74.5 45.5t96.5 15.5t96.5 -15.5t74 -45.5t47.5 -74t17 -100t-17 -100t-47.5 -74t-74 -45.5t-96.5 -15.5zM289 439q-98 0 -154.5 -55t-56.5 -159t56.5 -159t154.5 -55t154.5 55t56.5 159
t-56.5 159t-154.5 55zM215 637q25 0 43 -8.5t34 -18.5t32 -18.5t37 -8.5q20 0 30 12t12 29q0 9 10 9h1q4 0 6.5 -3t2.5 -6q-3 -26 -19.5 -42.5t-42.5 -16.5q-24 0 -42 8.5t-34 18t-32.5 18t-37.5 8.5q-20 0 -30 -12.5t-12 -29.5q0 -8 -9 -8h-2q-8 0 -8 8q3 28 19 44.5
t42 16.5z" />
    <glyph glyph-name="odieresis" unicode="&#xf6;" horiz-adv-x="578" 
d="M289 -10q-53 0 -96.5 15.5t-74.5 45.5t-47.5 74t-16.5 100t16.5 100t47.5 74t74.5 45.5t96.5 15.5t96.5 -15.5t74 -45.5t47.5 -74t17 -100t-17 -100t-47.5 -74t-74 -45.5t-96.5 -15.5zM289 439q-98 0 -154.5 -55t-56.5 -159t56.5 -159t154.5 -55t154.5 55t56.5 159
t-56.5 159t-154.5 55zM175 568q-21 0 -21 21t21 21t21 -21t-21 -21zM402 568q-21 0 -21 21t21 21t21 -21t-21 -21z" />
    <glyph glyph-name="divide" unicode="&#xf7;" horiz-adv-x="507" 
d="M252 114q-21 0 -21 21t21 21t21 -21t-21 -21zM252 368q-21 0 -21 21t21 21t21 -21t-21 -21zM419 272q9 0 9 -9v-2q0 -9 -9 -9h-331q-9 0 -9 9v2q0 9 9 9h331z" />
    <glyph glyph-name="oslash" unicode="&#xf8;" horiz-adv-x="578" 
d="M118 52q-31 30 -47.5 73t-16.5 100q0 56 16.5 100t47.5 74t74.5 45.5t96.5 15.5q83 0 141 -38q7 -6 13 2l55 64q2 4 6.5 4t7.5 -2l2 -1q8 -6 2 -14l-56 -65q-6 -6 0 -13q30 -30 47 -73t17 -99t-17 -100t-47.5 -74t-74 -45.5t-96.5 -15.5q-84 0 -142 38q-7 6 -13 -2
l-54 -64q-6 -8 -14 -2l-1 2q-8 4 -2 12l55 65q6 6 0 13zM289 439q-98 0 -154.5 -55t-56.5 -159q0 -51 14 -90t40 -66q2 -2 5.5 -2t5.5 2l275 325q2 2 1.5 5.5t-3.5 5.5q-50 34 -127 34zM289 11q98 0 154.5 55t56.5 159q0 100 -54 156q-6 5 -11 0l-276 -326q-2 -2 -1.5 -5.5
t3.5 -5.5q51 -33 128 -33z" />
    <glyph glyph-name="ugrave" unicode="&#xf9;" horiz-adv-x="552" 
d="M158 674q4 8 11 3l159 -96q5 -2 3 -9l-2 -1q-2 -5 -9 -3l-160 93q-3 2 -4 5.5t1 6.5zM439 98q-15 -19 -34.5 -38t-43.5 -34.5t-52.5 -25.5t-60.5 -10q-50 0 -82.5 12.5t-52 35.5t-27.5 56t-8 75v271q0 10 10 10h2q10 0 10 -10v-269q0 -38 6.5 -67.5t23.5 -50t45.5 -31.5
t72.5 -11q33 0 61 10t52 26.5t43.5 38t34.5 43.5q5 7 5 15v296q0 10 10 10h2q10 0 10 -10v-369q0 -20 5 -34t18 -28q6 -6 -1 -12l-2 -2q-6 -4 -13 1q-29 27 -29 69v32q0 2 -1.5 2.5t-3.5 -1.5z" />
    <glyph glyph-name="uacute" unicode="&#xfa;" horiz-adv-x="552" 
d="M222 572q-2 7 3 9l159 96q6 5 12 -3l1 -1q4 -8 -4 -12l-160 -93q-7 -2 -9 3zM439 98q-15 -19 -34.5 -38t-43.5 -34.5t-52.5 -25.5t-60.5 -10q-50 0 -82.5 12.5t-52 35.5t-27.5 56t-8 75v271q0 10 10 10h2q10 0 10 -10v-269q0 -38 6.5 -67.5t23.5 -50t45.5 -31.5t72.5 -11
q33 0 61 10t52 26.5t43.5 38t34.5 43.5q5 7 5 15v296q0 10 10 10h2q10 0 10 -10v-369q0 -20 5 -34t18 -28q6 -6 -1 -12l-2 -2q-6 -4 -13 1q-29 27 -29 69v32q0 2 -1.5 2.5t-3.5 -1.5z" />
    <glyph glyph-name="ucircumflex" unicode="&#xfb;" horiz-adv-x="552" 
d="M169 571q-5 5 0 10l99 96q7 7 14 0l99 -96q5 -5 0 -10l-1 -1q-5 -5 -10 0l-89 78q-6 8 -12 0l-89 -78q-5 -5 -10 0zM439 98q-15 -19 -34.5 -38t-43.5 -34.5t-52.5 -25.5t-60.5 -10q-50 0 -82.5 12.5t-52 35.5t-27.5 56t-8 75v271q0 10 10 10h2q10 0 10 -10v-269
q0 -38 6.5 -67.5t23.5 -50t45.5 -31.5t72.5 -11q33 0 61 10t52 26.5t43.5 38t34.5 43.5q5 7 5 15v296q0 10 10 10h2q10 0 10 -10v-369q0 -20 5 -34t18 -28q6 -6 -1 -12l-2 -2q-6 -4 -13 1q-29 27 -29 69v32q0 2 -1.5 2.5t-3.5 -1.5z" />
    <glyph glyph-name="udieresis" unicode="&#xfc;" horiz-adv-x="552" 
d="M388 568q-21 0 -21 21t21 21t21 -21t-21 -21zM161 568q-21 0 -21 21t21 21t21 -21t-21 -21zM439 98q-15 -19 -34.5 -38t-43.5 -34.5t-52.5 -25.5t-60.5 -10q-50 0 -82.5 12.5t-52 35.5t-27.5 56t-8 75v271q0 10 10 10h2q10 0 10 -10v-269q0 -38 6.5 -67.5t23.5 -50
t45.5 -31.5t72.5 -11q33 0 61 10t52 26.5t43.5 38t34.5 43.5q5 7 5 15v296q0 10 10 10h2q10 0 10 -10v-369q0 -20 5 -34t18 -28q6 -6 -1 -12l-2 -2q-6 -4 -13 1q-29 27 -29 69v32q0 2 -1.5 2.5t-3.5 -1.5z" />
    <glyph glyph-name="yacute" unicode="&#xfd;" horiz-adv-x="516" 
d="M474 450q4 0 6 -3t0 -6l-242 -500q-29 -59 -70 -95t-91 -62q-8 -4 -12 4l-1 1q-4 8 3 12q51 29 88 62.5t63 86.5l22 45q5 8 0 16l-208 430q-2 3 0 6t6 3h5q10 0 14 -9l196 -407q4 -6 8 0l195 407q4 9 14 9h4zM213 572q-2 7 3 9l159 96q6 5 12 -3l1 -1q4 -8 -4 -12
l-160 -93q-7 -2 -9 3z" />
    <glyph glyph-name="thorn" unicode="&#xfe;" horiz-adv-x="563" 
d="M93 -210q-10 0 -10 10v940q0 10 10 10h2q10 0 10 -10v-387q0 -2 1.5 -3t3.5 1q14 18 34 37.5t45 35.5t53.5 26t60.5 10q103 0 154.5 -60.5t51.5 -173.5q0 -56 -17 -100t-48 -74t-73 -46t-91 -16q-57 0 -98.5 14t-69.5 31q-2 2 -4.5 0t-2.5 -4v-231q0 -10 -10 -10h-2z
M485 226q0 104 -45.5 158.5t-136.5 54.5q-32 0 -60.5 -11t-53.5 -28.5t-45 -38.5t-34 -41q-5 -7 -5 -15v-236q0 -9 7 -12q30 -17 71 -31.5t97 -14.5q45 0 82.5 14t65 41.5t42.5 67.5t15 92z" />
    <glyph glyph-name="ydieresis" unicode="&#xff;" horiz-adv-x="516" 
d="M474 450q4 0 6 -3t0 -6l-242 -500q-29 -59 -70 -95t-91 -62q-8 -4 -12 4l-1 1q-4 8 3 12q51 29 88 62.5t63 86.5l22 45q5 8 0 16l-208 430q-2 3 0 6t6 3h5q10 0 14 -9l196 -407q4 -6 8 0l195 407q4 9 14 9h4zM142 568q-21 0 -21 21t21 21t21 -21t-21 -21zM369 568
q-21 0 -21 21t21 21t21 -21t-21 -21z" />
    <glyph glyph-name="Amacron" unicode="&#x100;" horiz-adv-x="714" 
d="M18 0q-4 0 -6 3t0 6l331 694q3 7 11 7h2q7 0 11 -7l331 -694q2 -3 0 -6t-6 -3h-4q-10 0 -14 9l-109 230q-3 8 -12 8h-396q-9 0 -12 -8l-108 -230q-4 -9 -14 -9h-5zM359 677q-4 6 -8 0l-189 -402q-2 -8 5 -8h377q7 0 5 8zM459 769q8 0 8 -9v-2q0 -8 -8 -8h-209q-8 0 -8 8
v2q0 9 8 9h209z" />
    <glyph glyph-name="amacron" unicode="&#x101;" horiz-adv-x="523" 
d="M166 573q-9 0 -9 8v2q0 9 9 9h208q8 0 8 -9v-2q0 -8 -8 -8h-208zM417 108q-14 -19 -35.5 -39.5t-48.5 -38t-58.5 -29t-65.5 -11.5q-77 0 -119 34.5t-42 98.5q0 25 8 48t27.5 40.5t53.5 28t87 10.5q15 0 37.5 -2t48.5 -6t53 -9t51 -12q8 -2 8 6v52q0 37 -8 67t-26.5 50.5
t-49.5 31.5t-77 11q-51 0 -95 -11t-81 -31q-8 -4 -12 4l-1 2q-4 8 4 12q38 21 85 33t100 12q52 0 87 -12.5t56.5 -35.5t30.5 -56t9 -75v-210q0 -20 5 -34t18 -28q6 -6 -1 -12l-2 -2q-6 -4 -13 1q-29 27 -29 69v42q0 2 -1.5 2.5t-3.5 -1.5zM72 123q0 -54 35.5 -83t101.5 -29
q34 0 65.5 12.5t58.5 31.5t49 42t36 44q4 8 4 15v34q0 8 -8 10q-24 7 -51.5 12t-53 9t-48 6t-37.5 2q-45 0 -74.5 -8.5t-46.5 -23t-24 -34t-7 -40.5z" />
    <glyph glyph-name="Abreve" unicode="&#x102;" horiz-adv-x="714" 
d="M18 0q-4 0 -6 3t0 6l331 694q3 7 11 7h2q7 0 11 -7l331 -694q2 -3 0 -6t-6 -3h-4q-10 0 -14 9l-109 230q-3 8 -12 8h-396q-9 0 -12 -8l-108 -230q-4 -9 -14 -9h-5zM359 677q-4 6 -8 0l-189 -402q-2 -8 5 -8h377q7 0 5 8zM452 829q-6 -37 -32 -58t-65 -21q-38 0 -65 21
t-32 58q-1 3 1.5 5.5t4.5 2.5h2q7 0 9 -8q6 -30 28.5 -46t51.5 -16t51 16t28 46q2 8 9 8h2q3 0 5.5 -2.5t1.5 -5.5z" />
    <glyph glyph-name="abreve" unicode="&#x103;" horiz-adv-x="523" 
d="M417 108q-14 -19 -35.5 -39.5t-48.5 -38t-58.5 -29t-65.5 -11.5q-77 0 -119 34.5t-42 98.5q0 25 8 48t27.5 40.5t53.5 28t87 10.5q15 0 37.5 -2t48.5 -6t53 -9t51 -12q8 -2 8 6v52q0 37 -8 67t-26.5 50.5t-49.5 31.5t-77 11q-51 0 -95 -11t-81 -31q-8 -4 -12 4l-1 2
q-4 8 4 12q38 21 85 33t100 12q52 0 87 -12.5t56.5 -35.5t30.5 -56t9 -75v-210q0 -20 5 -34t18 -28q6 -6 -1 -12l-2 -2q-6 -4 -13 1q-29 27 -29 69v42q0 2 -1.5 2.5t-3.5 -1.5zM72 123q0 -54 35.5 -83t101.5 -29q34 0 65.5 12.5t58.5 31.5t49 42t36 44q4 8 4 15v34
q0 8 -8 10q-24 7 -51.5 12t-53 9t-48 6t-37.5 2q-45 0 -74.5 -8.5t-46.5 -23t-24 -34t-7 -40.5zM359 644q-6 -37 -32 -58t-65 -21q-38 0 -65 21t-32 59q-1 2 1.5 4.5t4.5 2.5h2q7 0 9 -7q6 -31 28.5 -47t51.5 -16t51 16t28 46q2 8 9 8h2q3 0 5.5 -2.5t1.5 -5.5z" />
    <glyph glyph-name="Aogonek" unicode="&#x104;" horiz-adv-x="714" 
d="M18 0q-4 0 -6 3t0 6l331 694q3 7 11 7h2q7 0 11 -7l330 -694q5 -9 -2 -16q-23 -26 -36 -53.5t-13 -52.5q0 -19 10 -30t30 -11q32 0 61 13q4 3 8 -3v-2q2 -2 1 -4.5t-3 -3.5q-30 -17 -67 -17q-60 0 -60 58q0 26 14 53t34 53q6 7 1 15l-110 231q-3 8 -12 8h-396
q-9 0 -12 -8l-108 -230q-4 -9 -14 -9h-5zM359 677q-4 6 -8 0l-189 -402q-2 -8 5 -8h377q7 0 5 8z" />
    <glyph glyph-name="aogonek" unicode="&#x105;" horiz-adv-x="523" 
d="M446 -171q-60 0 -60 58q0 26 15.5 53.5t38.5 53.5q6 5 1 13q-19 25 -19 58v42q0 2 -1.5 2.5t-3.5 -1.5q-14 -19 -35.5 -39.5t-48.5 -38t-58.5 -29t-65.5 -11.5q-77 0 -119 34.5t-42 98.5q0 25 8 48t27.5 40.5t53.5 28t87 10.5q15 0 37.5 -2t48.5 -6t53 -9t51 -12
q8 -2 8 6v52q0 37 -8 67t-26.5 50.5t-49.5 31.5t-77 11q-51 0 -95 -11t-81 -31q-8 -4 -12 4l-1 2q-4 8 4 12q38 21 85 33t100 12q52 0 87 -12.5t56.5 -35.5t30.5 -56t9 -75v-210q0 -20 5 -33.5t17 -27.5q7 -7 0 -14q-29 -27 -44.5 -56t-15.5 -53q0 -19 10 -30t30 -11
q32 0 61 13q4 3 8 -3l1 -2q1 -2 0 -4.5t-3 -3.5q-30 -17 -67 -17zM224 229q-45 0 -74.5 -8.5t-46.5 -23t-24 -34t-7 -40.5q0 -54 35.5 -83t101.5 -29q34 0 65.5 12.5t58.5 31.5t49 42t36 44q4 8 4 15v34q0 8 -8 10q-24 7 -51.5 12t-53 9t-48 6t-37.5 2z" />
    <glyph glyph-name="Cacute" unicode="&#x106;" horiz-adv-x="679" 
d="M407 689q-76 0 -135.5 -23t-101 -66.5t-63.5 -107t-22 -143.5t22 -143t63.5 -106.5t101 -66t135.5 -22.5q62 0 111.5 13.5t92.5 37.5q7 5 13 -3l1 -2q5 -7 -3 -13q-48 -26 -98.5 -40t-116.5 -14q-81 0 -145 24t-108.5 69.5t-68.5 112.5t-24 153t24 153t68.5 113.5
t108.5 70.5t145 24q65 0 115 -11t99 -33q9 -4 5 -13l-1 -2q-4 -9 -13 -5q-45 20 -95 31.5t-110 11.5zM384 757q-4 5 2 9l159 96q6 5 12 -3l1 -1q4 -8 -4 -12l-160 -93q-7 -2 -9 3z" />
    <glyph glyph-name="cacute" unicode="&#x107;" horiz-adv-x="480" 
d="M284 11q38 0 70.5 9t62.5 23q8 3 12 -4l1 -2q4 -7 -4 -11q-31 -17 -65.5 -26.5t-76.5 -9.5q-107 0 -168.5 61t-61.5 174t61.5 174t168.5 61q42 0 76.5 -5.5t64.5 -18.5q9 -4 5 -13v-2q-4 -9 -13 -5q-29 11 -60.5 17t-72.5 6q-98 0 -152 -55t-54 -159t54 -159t152 -55z
M254 572q-2 2 -1 5t3 4l159 96q6 5 12 -3l1 -1q4 -8 -4 -12l-160 -93q-7 -2 -9 3z" />
    <glyph glyph-name="Ccircumflex" unicode="&#x108;" horiz-adv-x="679" 
d="M407 689q-76 0 -135.5 -23t-101 -66.5t-63.5 -107t-22 -143.5t22 -143t63.5 -106.5t101 -66t135.5 -22.5q62 0 111.5 13.5t92.5 37.5q7 5 13 -3l1 -2q5 -7 -3 -13q-48 -26 -98.5 -40t-116.5 -14q-81 0 -145 24t-108.5 69.5t-68.5 112.5t-24 153t24 153t68.5 113.5
t108.5 70.5t145 24q65 0 115 -11t99 -33q9 -4 5 -13l-1 -2q-4 -9 -13 -5q-45 20 -95 31.5t-110 11.5zM309 756q-5 5 0 10l99 96q7 7 14 0l99 -96q5 -5 0 -10l-1 -1q-5 -5 -10 -1l-89 79q-6 8 -12 0l-89 -79q-5 -4 -10 1z" />
    <glyph glyph-name="ccircumflex" unicode="&#x109;" horiz-adv-x="480" 
d="M284 11q38 0 70.5 9t62.5 23q8 3 12 -4l1 -2q4 -7 -4 -11q-31 -17 -65.5 -26.5t-76.5 -9.5q-107 0 -168.5 61t-61.5 174t61.5 174t168.5 61q42 0 76.5 -5.5t64.5 -18.5q9 -4 5 -13v-2q-4 -9 -13 -5q-29 11 -60.5 17t-72.5 6q-98 0 -152 -55t-54 -159t54 -159t152 -55z
M184 571q-5 5 0 10l99 96q7 7 14 0l99 -96q5 -5 0 -10l-1 -1q-5 -5 -10 0l-89 78q-6 8 -12 0l-89 -78q-5 -5 -10 0z" />
    <glyph glyph-name="Cdotaccent" unicode="&#x10a;" horiz-adv-x="679" 
d="M407 689q-76 0 -135.5 -23t-101 -66.5t-63.5 -107t-22 -143.5t22 -143t63.5 -106.5t101 -66t135.5 -22.5q62 0 111.5 13.5t92.5 37.5q7 5 13 -3l1 -2q5 -7 -3 -13q-48 -26 -98.5 -40t-116.5 -14q-81 0 -145 24t-108.5 69.5t-68.5 112.5t-24 153t24 153t68.5 113.5
t108.5 70.5t145 24q65 0 115 -11t99 -33q9 -4 5 -13l-1 -2q-4 -9 -13 -5q-45 20 -95 31.5t-110 11.5zM408 750q-21 0 -21 21t21 21t21 -21t-21 -21z" />
    <glyph glyph-name="cdotaccent" unicode="&#x10b;" horiz-adv-x="480" 
d="M284 11q38 0 70.5 9t62.5 23q8 3 12 -4l1 -2q4 -7 -4 -11q-31 -17 -65.5 -26.5t-76.5 -9.5q-107 0 -168.5 61t-61.5 174t61.5 174t168.5 61q42 0 76.5 -5.5t64.5 -18.5q9 -4 5 -13v-2q-4 -9 -13 -5q-29 11 -60.5 17t-72.5 6q-98 0 -152 -55t-54 -159t54 -159t152 -55z
M290 565q-21 0 -21 21t21 21t21 -21t-21 -21z" />
    <glyph glyph-name="Ccaron" unicode="&#x10c;" horiz-adv-x="679" 
d="M407 689q-76 0 -135.5 -23t-101 -66.5t-63.5 -107t-22 -143.5t22 -143t63.5 -106.5t101 -66t135.5 -22.5q62 0 111.5 13.5t92.5 37.5q7 5 13 -3l1 -2q5 -7 -3 -13q-48 -26 -98.5 -40t-116.5 -14q-81 0 -145 24t-108.5 69.5t-68.5 112.5t-24 153t24 153t68.5 113.5
t108.5 70.5t145 24q65 0 115 -11t99 -33q9 -4 5 -13l-1 -2q-4 -9 -13 -5q-45 20 -95 31.5t-110 11.5zM419 757q-7 -7 -14 0l-99 96q-5 5 0 10l1 1q5 5 10 0l89 -80q6 -6 12 0l89 80q5 5 10 0l1 -1q5 -5 0 -10z" />
    <glyph glyph-name="ccaron" unicode="&#x10d;" horiz-adv-x="480" 
d="M284 11q38 0 70.5 9t62.5 23q8 3 12 -4l1 -2q4 -7 -4 -11q-31 -17 -65.5 -26.5t-76.5 -9.5q-107 0 -168.5 61t-61.5 174t61.5 174t168.5 61q42 0 76.5 -5.5t64.5 -18.5q9 -4 5 -13v-2q-4 -9 -13 -5q-29 11 -60.5 17t-72.5 6q-98 0 -152 -55t-54 -159t54 -159t152 -55z
M298 572q-7 -7 -14 0l-99 96q-5 5 0 10l1 1q5 5 10 0l89 -80q6 -6 12 0l89 80q5 5 10 0l1 -1q5 -5 0 -10z" />
    <glyph glyph-name="Dcaron" unicode="&#x10e;" horiz-adv-x="764" 
d="M114 0q-10 0 -10 10v680q0 10 10 10h240q81 0 145.5 -22.5t109.5 -67t69.5 -110t24.5 -151.5t-24.5 -151t-69.5 -109t-109.5 -66.5t-145.5 -22.5h-240zM679 349q0 80 -22.5 141.5t-64.5 103.5t-102 63.5t-136 21.5h-220q-8 0 -8 -8v-642q0 -8 8 -8h220q76 0 136 21
t102 62.5t64.5 103t22.5 141.5zM376 757q-7 -7 -14 0l-99 96q-5 5 0 10l1 1q5 5 10 0l89 -80q6 -6 12 0l89 80q5 5 10 0l1 -1q5 -5 0 -10z" />
    <glyph glyph-name="dcaron" unicode="&#x10f;" horiz-adv-x="567" 
d="M588 750q10 0 10 -10q-2 -29 -12 -60.5t-24 -50.5q-4 -4 -9 -2l-2 2q-4 3 -2 8q12 22 18 50t8 53q0 10 10 10h3zM454 97q-15 -18 -35.5 -37t-45.5 -34.5t-54 -25.5t-60 -10q-103 0 -153.5 60.5t-50.5 173.5q0 56 17 100t48 74t72.5 46t91.5 16q57 0 98.5 -14.5
t69.5 -30.5q2 -2 4.5 0t2.5 4v321q0 10 10 10h2q10 0 10 -10v-669q0 -20 5 -34t18 -28q6 -6 -1 -12l-2 -2q-6 -4 -13 1q-29 27 -29 69v31q0 2 -1.5 2.5t-3.5 -1.5zM79 224q0 -104 44.5 -158.5t135.5 -54.5q32 0 61 10.5t54 27.5t45 37.5t35 41.5q5 7 5 15v238q0 8 -7 12
q-30 17 -71 31.5t-97 14.5q-45 0 -82.5 -14t-65 -41.5t-42.5 -67.5t-15 -92z" />
    <glyph glyph-name="Dcroat" unicode="&#x110;" horiz-adv-x="782" 
d="M132 0q-10 0 -10 10v335q0 8 -8 8h-112q-9 0 -9 9v2q0 9 9 9h112q8 0 8 8v309q0 10 10 10h240q81 0 145.5 -22.5t109.5 -67t69.5 -110t24.5 -151.5t-24.5 -151t-69.5 -109t-109.5 -66.5t-145.5 -22.5h-240zM363 373q9 0 9 -9v-2q0 -9 -9 -9h-211q-8 0 -8 -8v-316
q0 -8 8 -8h220q76 0 136 21t102 62.5t64.5 103t22.5 141.5t-22.5 141.5t-64.5 103.5t-102 63.5t-136 21.5h-220q-8 0 -8 -8v-290q0 -8 8 -8h211z" />
    <glyph glyph-name="dcroat" unicode="&#x111;" horiz-adv-x="567" 
d="M79 224q0 -104 44.5 -158.5t135.5 -54.5q32 0 61 10.5t54 27.5t45 37.5t35 41.5q5 7 5 15v238q0 8 -7 12q-30 17 -71 31.5t-97 14.5q-45 0 -82.5 -14t-65 -41.5t-42.5 -67.5t-15 -92zM454 97q-15 -18 -35.5 -37t-45.5 -34.5t-54 -25.5t-60 -10q-103 0 -153.5 60.5
t-50.5 173.5q0 56 17 100t48 74t72.5 46t91.5 16q57 0 98.5 -14.5t69.5 -30.5q2 -2 4.5 0t2.5 4v170q0 8 -8 8h-136q-9 0 -9 9v2q0 9 9 9h136q8 0 8 8v115q0 10 10 10h2q10 0 10 -10v-115q0 -8 8 -8h107q9 0 9 -9v-2q0 -9 -9 -9h-107q-8 0 -8 -8v-518q0 -20 5 -34t18 -28
q6 -6 -1 -12l-2 -2q-6 -4 -13 1q-29 27 -29 69v31q0 2 -1.5 2.5t-3.5 -1.5z" />
    <glyph glyph-name="Emacron" unicode="&#x112;" 
d="M114 0q-10 0 -10 10v680q0 10 10 10h469q9 0 9 -9v-2q0 -9 -9 -9h-449q-8 0 -8 -8v-295q0 -8 8 -8h371q9 0 9 -9v-2q0 -9 -9 -9h-371q-8 0 -8 -8v-313q0 -8 8 -8h449q9 0 9 -9v-2q0 -9 -9 -9h-469zM452 769q8 0 8 -9v-2q0 -8 -8 -8h-209q-8 0 -8 8v2q0 9 8 9h209z" />
    <glyph glyph-name="emacron" unicode="&#x113;" horiz-adv-x="529" 
d="M388 592q8 0 8 -9v-2q0 -8 -8 -8h-208q-9 0 -9 8v2q0 9 9 9h208zM454 35q-34 -19 -78.5 -32t-93.5 -13q-107 0 -167 61t-60 174t58 174t165 61q56 0 94 -13t61 -38.5t33 -63.5t10 -89v-25q0 -10 -10 -10h-379q-8 0 -8 -8q3 -99 55.5 -150.5t147.5 -51.5q46 0 88.5 12
t74.5 29q7 4 11 -4l1 -2q4 -8 -3 -11zM452 256q-1 48 -10.5 83t-30 57t-53.5 32.5t-80 10.5q-91 0 -141.5 -48.5t-57.5 -139.5q0 -8 8 -8l357 4q8 0 8 9z" />
    <glyph glyph-name="Ebreve" unicode="&#x114;" 
d="M114 0q-10 0 -10 10v680q0 10 10 10h469q9 0 9 -9v-2q0 -9 -9 -9h-449q-8 0 -8 -8v-295q0 -8 8 -8h371q9 0 9 -9v-2q0 -9 -9 -9h-371q-8 0 -8 -8v-313q0 -8 8 -8h449q9 0 9 -9v-2q0 -9 -9 -9h-469zM445 828q-6 -37 -32 -58t-65 -21q-38 0 -65 21t-32 59q-1 2 1.5 4.5
t4.5 2.5h2q7 0 9 -7q6 -31 28.5 -47t51.5 -16t51 16t28 46q2 8 9 8h2q3 0 5.5 -2.5t1.5 -5.5z" />
    <glyph glyph-name="ebreve" unicode="&#x115;" horiz-adv-x="529" 
d="M454 35q-34 -19 -78.5 -32t-93.5 -13q-107 0 -167 61t-60 174t58 174t165 61q56 0 94 -13t61 -38.5t33 -63.5t10 -89v-25q0 -10 -10 -10h-379q-8 0 -8 -8q3 -99 55.5 -150.5t147.5 -51.5q46 0 88.5 12t74.5 29q7 4 11 -4l1 -2q4 -8 -3 -11zM452 256q-1 48 -10.5 83
t-30 57t-53.5 32.5t-80 10.5q-91 0 -141.5 -48.5t-57.5 -139.5q0 -8 8 -8l357 4q8 0 8 9zM380 644q-6 -37 -32 -58t-65 -21q-38 0 -65 21t-32 59q-1 2 1.5 4.5t4.5 2.5h2q7 0 9 -7q6 -31 28.5 -47t51.5 -16t51 16t28 46q2 8 9 8h2q3 0 5.5 -2.5t1.5 -5.5z" />
    <glyph glyph-name="Edotaccent" unicode="&#x116;" 
d="M114 0q-10 0 -10 10v680q0 10 10 10h469q9 0 9 -9v-2q0 -9 -9 -9h-449q-8 0 -8 -8v-295q0 -8 8 -8h371q9 0 9 -9v-2q0 -9 -9 -9h-371q-8 0 -8 -8v-313q0 -8 8 -8h449q9 0 9 -9v-2q0 -9 -9 -9h-469zM347 750q-21 0 -21 21t21 21t21 -21t-21 -21z" />
    <glyph glyph-name="edotaccent" unicode="&#x117;" horiz-adv-x="529" 
d="M286 565q-21 0 -21 21t21 21t21 -21t-21 -21zM454 35q-34 -19 -78.5 -32t-93.5 -13q-107 0 -167 61t-60 174t58 174t165 61q56 0 94 -13t61 -38.5t33 -63.5t10 -89v-25q0 -10 -10 -10h-379q-8 0 -8 -8q3 -99 55.5 -150.5t147.5 -51.5q46 0 88.5 12t74.5 29q7 4 11 -4
l1 -2q4 -8 -3 -11zM452 256q-1 48 -10.5 83t-30 57t-53.5 32.5t-80 10.5q-91 0 -141.5 -48.5t-57.5 -139.5q0 -8 8 -8l357 4q8 0 8 9z" />
    <glyph glyph-name="Eogonek" unicode="&#x118;" 
d="M583 20q9 0 9 -9v-2q0 -9 -6 -15q-21 -23 -35 -49t-14 -51q0 -19 10 -30t30 -11q32 0 61 13q4 3 8 -3l1 -2q1 -2 0 -4.5t-3 -3.5q-30 -17 -67 -17q-60 0 -60 58q0 26 13 51.5t34 48.5q2 2 1 4t-3 2h-448q-10 0 -10 10v680q0 10 10 10h469q9 0 9 -9v-2q0 -9 -9 -9h-449
q-8 0 -8 -8v-295q0 -8 8 -8h371q9 0 9 -9v-2q0 -9 -9 -9h-371q-8 0 -8 -8v-313q0 -8 8 -8h449z" />
    <glyph glyph-name="eogonek" unicode="&#x119;" horiz-adv-x="529" 
d="M55 225q0 113 58 174t165 61q56 0 94 -13t61 -38.5t33 -63.5t10 -89v-25q0 -10 -10 -10h-379q-8 0 -8 -8q3 -99 55.5 -150.5t147.5 -51.5q46 0 88.5 12t74.5 29q7 4 11 -4l1 -2q3 -7 -2 -12q-13 -11 -28.5 -25.5t-29 -31t-22.5 -35t-9 -37.5t10 -30t30 -11q32 0 61 13
q4 3 8 -3v-2q2 -2 1 -4.5t-3 -3.5q-30 -17 -67 -17q-60 0 -60 58q0 29 19.5 56.5t42.5 48.5q1 1 0.5 2t-2.5 0q-28 -10 -59.5 -16t-64.5 -6q-107 0 -167 61t-60 174zM449 243q3 0 3 3v6q0 49 -9 84.5t-29.5 58t-54 33.5t-81.5 11q-91 0 -141.5 -48.5t-57.5 -139.5q0 -8 8 -8
h362z" />
    <glyph glyph-name="Ecaron" unicode="&#x11a;" 
d="M114 0q-10 0 -10 10v680q0 10 10 10h469q9 0 9 -9v-2q0 -9 -9 -9h-449q-8 0 -8 -8v-295q0 -8 8 -8h371q9 0 9 -9v-2q0 -9 -9 -9h-371q-8 0 -8 -8v-313q0 -8 8 -8h449q9 0 9 -9v-2q0 -9 -9 -9h-469zM362 757q-7 -7 -14 0l-99 96q-5 5 0 10l1 1q5 5 10 0l89 -80q6 -6 12 0
l89 80q5 5 10 0l1 -1q5 -5 0 -10z" />
    <glyph glyph-name="ecaron" unicode="&#x11b;" horiz-adv-x="529" 
d="M289 572q-7 -7 -14 0l-99 96q-5 5 0 10l1 1q5 5 10 0l89 -80q6 -6 12 0l89 80q5 5 10 0l1 -1q5 -5 0 -10zM454 35q-34 -19 -78.5 -32t-93.5 -13q-107 0 -167 61t-60 174t58 174t165 61q56 0 94 -13t61 -38.5t33 -63.5t10 -89v-25q0 -10 -10 -10h-379q-8 0 -8 -8
q3 -99 55.5 -150.5t147.5 -51.5q46 0 88.5 12t74.5 29q7 4 11 -4l1 -2q4 -8 -3 -11zM452 256q-1 48 -10.5 83t-30 57t-53.5 32.5t-80 10.5q-91 0 -141.5 -48.5t-57.5 -139.5q0 -8 8 -8l357 4q8 0 8 9z" />
    <glyph glyph-name="Gcircumflex" unicode="&#x11c;" horiz-adv-x="733" 
d="M647 0q-10 0 -10 10v63q0 6 -6 2q-18 -17 -44.5 -32.5t-57.5 -27t-66 -18.5t-69 -7q-73 0 -134.5 24t-105.5 69.5t-69 112.5t-25 153t25 153t71.5 113.5t112 70.5t146.5 24q127 0 227 -44q9 -4 5 -13l-1 -2q-4 -9 -13 -5q-46 20 -102 31.5t-116 11.5q-76 0 -137 -23
t-104 -66.5t-66.5 -107t-23.5 -143.5t23 -143t64 -106.5t98 -66t125 -22.5q34 0 69 7t66.5 20t58 30t44.5 37q5 7 5 15v205q0 8 -8 8h-167q-10 0 -10 10v3q0 10 10 10h187q10 0 10 -10v-336q0 -10 -10 -10h-2zM308 756q-5 5 0 10l99 96q7 7 14 0l99 -96q5 -5 0 -10l-1 -1
q-5 -5 -10 -1l-89 79q-6 8 -12 0l-89 -79q-5 -4 -10 1z" />
    <glyph glyph-name="gcircumflex" unicode="&#x11d;" horiz-adv-x="494" 
d="M138 571q-5 5 0 10l99 96q7 7 14 0l99 -96q5 -5 0 -10l-1 -1q-5 -5 -10 0l-89 78q-6 8 -12 0l-89 -78q-5 -5 -10 0zM499 -77q0 -38 -21.5 -65t-57.5 -44t-82 -25.5t-95 -8.5q-101 0 -154.5 31t-53.5 99q0 32 18.5 62.5t56.5 51.5q7 4 1 10q-11 12 -18 27.5t-7 34.5
q0 22 10 40t27 32q3 2 2.5 4.5t-2.5 4.5q-62 40 -62 127q0 78 50 117t131 39q64 0 108 -24q7 -4 12 3q20 28 31.5 56.5t16.5 62.5q2 10 11 8l3 -1q9 -2 9 -12q-6 -38 -19 -68t-36 -58q-4 -6 1 -13q20 -19 31.5 -47t11.5 -63q0 -78 -49.5 -117.5t-130.5 -39.5q-47 0 -83 12
q-7 3 -14 -2q-35 -25 -35 -61q0 -28 19 -48q6 -8 15 -6q11 1 31 2t43 2.5t45.5 2.5t39.5 1q98 0 147 -28t49 -99zM59 -90q0 -54 46 -81t136 -27q45 0 87.5 7t75 22t52 37.5t19.5 54.5q0 56 -40 81t-130 25q-17 0 -38.5 -1l-43 -2t-39.5 -2.5t-27 -1.5l-16 -4
q-41 -20 -61.5 -49t-20.5 -59zM85 304q0 -66 42.5 -100.5t114.5 -34.5t114 34.5t42 100.5t-42 100.5t-114 34.5t-114.5 -34.5t-42.5 -100.5z" />
    <glyph glyph-name="Gbreve" unicode="&#x11e;" horiz-adv-x="733" 
d="M647 0q-10 0 -10 10v63q0 6 -6 2q-18 -17 -44.5 -32.5t-57.5 -27t-66 -18.5t-69 -7q-73 0 -134.5 24t-105.5 69.5t-69 112.5t-25 153t25 153t71.5 113.5t112 70.5t146.5 24q127 0 227 -44q9 -4 5 -13l-1 -2q-4 -9 -13 -5q-46 20 -102 31.5t-116 11.5q-76 0 -137 -23
t-104 -66.5t-66.5 -107t-23.5 -143.5t23 -143t64 -106.5t98 -66t125 -22.5q34 0 69 7t66.5 20t58 30t44.5 37q5 7 5 15v205q0 8 -8 8h-167q-10 0 -10 10v3q0 10 10 10h187q10 0 10 -10v-336q0 -10 -10 -10h-2zM493 894q-6 -37 -32 -58t-65 -21q-38 0 -65 21t-32 59
q-1 2 1.5 4.5t4.5 2.5h2q7 0 9 -7q6 -31 28.5 -47t51.5 -16t51 16t28 46q2 8 9 8h2q3 0 5.5 -2.5t1.5 -5.5z" />
    <glyph glyph-name="gbreve" unicode="&#x11f;" horiz-adv-x="494" 
d="M499 -77q0 -38 -21.5 -65t-57.5 -44t-82 -25.5t-95 -8.5q-101 0 -154.5 31t-53.5 99q0 32 18.5 62.5t56.5 51.5q7 4 1 10q-11 12 -18 27.5t-7 34.5q0 22 10 40t27 32q3 2 2.5 4.5t-2.5 4.5q-62 40 -62 127q0 78 50 117t131 39q64 0 108 -24q7 -4 12 3q20 28 31.5 56.5
t16.5 62.5q2 10 11 8l3 -1q9 -2 9 -12q-6 -38 -19 -68t-36 -58q-4 -6 1 -13q20 -19 31.5 -47t11.5 -63q0 -78 -49.5 -117.5t-130.5 -39.5q-47 0 -83 12q-7 3 -14 -2q-35 -25 -35 -61q0 -28 19 -48q6 -8 15 -6q11 1 31 2t43 2.5t45.5 2.5t39.5 1q98 0 147 -28t49 -99zM59 -90
q0 -54 46 -81t136 -27q45 0 87.5 7t75 22t52 37.5t19.5 54.5q0 56 -40 81t-130 25q-17 0 -38.5 -1l-43 -2t-39.5 -2.5t-27 -1.5l-16 -4q-41 -20 -61.5 -49t-20.5 -59zM85 304q0 -66 42.5 -100.5t114.5 -34.5t114 34.5t42 100.5t-42 100.5t-114 34.5t-114.5 -34.5
t-42.5 -100.5zM338 644q-6 -37 -32 -58t-65 -21q-38 0 -65 21t-32 59q-1 2 1.5 4.5t4.5 2.5h2q7 0 9 -7q6 -31 28.5 -47t51.5 -16t51 16t28 46q2 8 9 8h2q3 0 5.5 -2.5t1.5 -5.5z" />
    <glyph glyph-name="Gdotaccent" unicode="&#x120;" horiz-adv-x="733" 
d="M647 0q-10 0 -10 10v63q0 6 -6 2q-18 -17 -44.5 -32.5t-57.5 -27t-66 -18.5t-69 -7q-73 0 -134.5 24t-105.5 69.5t-69 112.5t-25 153t25 153t71.5 113.5t112 70.5t146.5 24q127 0 227 -44q9 -4 5 -13l-1 -2q-4 -9 -13 -5q-46 20 -102 31.5t-116 11.5q-76 0 -137 -23
t-104 -66.5t-66.5 -107t-23.5 -143.5t23 -143t64 -106.5t98 -66t125 -22.5q34 0 69 7t66.5 20t58 30t44.5 37q5 7 5 15v205q0 8 -8 8h-167q-10 0 -10 10v3q0 10 10 10h187q10 0 10 -10v-336q0 -10 -10 -10h-2zM417 750q-21 0 -21 21t21 21t21 -21t-21 -21z" />
    <glyph glyph-name="gdotaccent" unicode="&#x121;" horiz-adv-x="494" 
d="M261 586q0 -21 -21 -21t-21 21t21 21t21 -21zM499 -77q0 -38 -21.5 -65t-57.5 -44t-82 -25.5t-95 -8.5q-101 0 -154.5 31t-53.5 99q0 32 18.5 62.5t56.5 51.5q7 4 1 10q-11 12 -18 27.5t-7 34.5q0 22 10 40t27 32q3 2 2.5 4.5t-2.5 4.5q-62 40 -62 127q0 78 50 117
t131 39q64 0 108 -24q7 -4 12 3q20 28 31.5 56.5t16.5 62.5q2 10 11 8l3 -1q9 -2 9 -12q-6 -38 -19 -68t-36 -58q-4 -6 1 -13q20 -19 31.5 -47t11.5 -63q0 -78 -49.5 -117.5t-130.5 -39.5q-47 0 -83 12q-7 3 -14 -2q-35 -25 -35 -61q0 -28 19 -48q6 -8 15 -6q11 1 31 2
t43 2.5t45.5 2.5t39.5 1q98 0 147 -28t49 -99zM59 -90q0 -54 46 -81t136 -27q45 0 87.5 7t75 22t52 37.5t19.5 54.5q0 56 -40 81t-130 25q-17 0 -38.5 -1l-43 -2t-39.5 -2.5t-27 -1.5l-16 -4q-41 -20 -61.5 -49t-20.5 -59zM85 304q0 -66 42.5 -100.5t114.5 -34.5t114 34.5
t42 100.5t-42 100.5t-114 34.5t-114.5 -34.5t-42.5 -100.5z" />
    <glyph glyph-name="uni0122" unicode="&#x122;" horiz-adv-x="733" 
d="M647 0q-10 0 -10 10v63q0 6 -6 2q-18 -17 -44.5 -32.5t-57.5 -27t-66 -18.5t-69 -7q-73 0 -134.5 24t-105.5 69.5t-69 112.5t-25 153t25 153t71.5 113.5t112 70.5t146.5 24q127 0 227 -44q9 -4 5 -13l-1 -2q-4 -9 -13 -5q-46 20 -102 31.5t-116 11.5q-76 0 -137 -23
t-104 -66.5t-66.5 -107t-23.5 -143.5t23 -143t64 -106.5t98 -66t125 -22.5q34 0 69 7t66.5 20t58 30t44.5 37q5 7 5 15v205q0 8 -8 8h-167q-10 0 -10 10v3q0 10 10 10h187q10 0 10 -10v-336q0 -10 -10 -10h-2zM383 -82q-7 6 -7 17q0 21 21 21t21 -22q0 -21 -9.5 -38.5
t-23.5 -29.5q-6 -4 -11 1l-2 1q-5 5 0 10q11 13 16 25q3 10 -5 15z" />
    <glyph glyph-name="uni0123" unicode="&#x123;" horiz-adv-x="494" 
d="M262 605q7 -5 7 -16q0 -21 -21 -21t-21 21q0 23 9.5 40t23.5 29q6 4 11 -1l2 -1q5 -5 0 -10q-12 -14 -16 -24q-3 -10 5 -17zM499 -77q0 -38 -21.5 -65t-57.5 -44t-82 -25.5t-95 -8.5q-101 0 -154.5 31t-53.5 99q0 32 18.5 62.5t56.5 51.5q7 4 1 10q-11 12 -18 27.5
t-7 34.5q0 22 10 40t27 32q3 2 2.5 4.5t-2.5 4.5q-62 40 -62 127q0 78 50 117t131 39q64 0 108 -24q7 -4 12 3q20 28 31.5 56.5t16.5 62.5q2 10 11 8l3 -1q9 -2 9 -12q-6 -38 -19 -68t-36 -58q-4 -6 1 -13q20 -19 31.5 -47t11.5 -63q0 -78 -49.5 -117.5t-130.5 -39.5
q-47 0 -83 12q-7 3 -14 -2q-35 -25 -35 -61q0 -28 19 -48q6 -8 15 -6q11 1 31 2t43 2.5t45.5 2.5t39.5 1q98 0 147 -28t49 -99zM59 -90q0 -54 46 -81t136 -27q45 0 87.5 7t75 22t52 37.5t19.5 54.5q0 56 -40 81t-130 25q-17 0 -38.5 -1l-43 -2t-39.5 -2.5t-27 -1.5l-16 -4
q-41 -20 -61.5 -49t-20.5 -59zM85 304q0 -66 42.5 -100.5t114.5 -34.5t114 34.5t42 100.5t-42 100.5t-114 34.5t-114.5 -34.5t-42.5 -100.5z" />
    <glyph glyph-name="Hcircumflex" unicode="&#x124;" horiz-adv-x="787" 
d="M671 0q-10 0 -10 10v324q0 8 -8 8h-519q-8 0 -8 -8v-324q0 -10 -10 -10h-2q-10 0 -10 10v680q0 10 10 10h2q10 0 10 -10v-320q0 -8 8 -8h519q8 0 8 8v320q0 10 10 10h2q10 0 10 -10v-680q0 -10 -10 -10h-2zM287 756q-5 5 0 10l99 96q7 7 14 0l99 -96q5 -5 0 -10l-1 -1
q-5 -5 -10 -1l-89 79q-6 8 -12 0l-89 -79q-5 -4 -10 1z" />
    <glyph glyph-name="hcircumflex" unicode="&#x125;" horiz-adv-x="562" 
d="M486 -4q-29 27 -29 69v214q0 37 -7.5 67t-25 50.5t-46.5 31.5t-73 11q-33 0 -62 -10.5t-54 -27t-45.5 -38t-35.5 -43.5q-5 -7 -5 -15v-295q0 -10 -10 -10h-2q-10 0 -10 10v730q0 10 10 10h2q10 0 10 -10v-388q0 -2 1.5 -2.5t3.5 1.5q15 19 35.5 38t45.5 35t54 26t62 10
q49 0 82.5 -12.5t54 -35.5t29 -56t8.5 -75v-210q0 -20 5 -34t18 -28q6 -6 -1 -12l-2 -2q-6 -4 -13 1zM-14 780q-5 5 0 10l99 96q7 7 14 0l99 -96q5 -5 0 -10l-1 -1q-5 -5 -10 0l-89 78q-6 8 -12 0l-89 -78q-5 -5 -10 0z" />
    <glyph glyph-name="Hbar" unicode="&#x126;" horiz-adv-x="799" 
d="M120 0q-10 0 -10 10v542q0 8 -8 8h-93q-9 0 -9 9v2q0 9 9 9h93q8 0 8 8v102q0 10 10 10h2q10 0 10 -10v-102q0 -8 8 -8h519q8 0 8 8v102q0 10 10 10h2q10 0 10 -10v-102q0 -8 8 -8h92q9 0 9 -9v-2q0 -9 -9 -9h-92q-8 0 -8 -8v-542q0 -10 -10 -10h-2q-10 0 -10 10v324
q0 8 -8 8h-519q-8 0 -8 -8v-324q0 -10 -10 -10h-2zM140 560q-8 0 -8 -8v-182q0 -8 8 -8h519q8 0 8 8v182q0 8 -8 8h-519z" />
    <glyph glyph-name="hbar" unicode="&#x127;" horiz-adv-x="562" 
d="M488 -4q-29 27 -29 69v214q0 37 -7.5 67t-25 50.5t-46.5 31.5t-73 11q-33 0 -62 -10.5t-54 -27t-45.5 -38t-35.5 -43.5q-5 -7 -5 -15v-295q0 -10 -10 -10h-2q-10 0 -10 10v579q0 8 -8 8h-108q-9 0 -9 9v2q0 9 9 9h108q8 0 8 8v115q0 10 10 10h2q10 0 10 -10v-115
q0 -8 8 -8h135q9 0 9 -9v-2q0 -9 -9 -9h-135q-8 0 -8 -8v-237q0 -2 1.5 -2.5t3.5 1.5q15 19 35.5 38t45.5 35t54 26t62 10q49 0 82.5 -12.5t54 -35.5t29 -56t8.5 -75v-210q0 -20 5 -34t18 -28q6 -6 -1 -12l-2 -2q-6 -4 -13 1z" />
    <glyph glyph-name="Itilde" unicode="&#x128;" horiz-adv-x="286" 
d="M55 679q-9 0 -9 10v2q0 9 9 9h175q10 0 10 -9v-2q0 -10 -10 -10h-68q-8 0 -8 -8v-642q0 -8 8 -8h68q10 0 10 -10v-2q0 -9 -10 -9h-175q-9 0 -9 9v2q0 10 9 10h69q8 0 8 8v642q0 8 -8 8h-69zM70 819q25 0 43 -8.5t34 -18.5t32 -18.5t37 -8.5q20 0 30 12t12 29q0 9 9 9h2
q4 0 6.5 -3t1.5 -6q-2 -26 -18.5 -42.5t-42.5 -16.5q-24 0 -42 8.5t-34 18t-32.5 18t-37.5 8.5q-20 0 -30 -12.5t-12 -29.5q0 -8 -9 -8h-2q-8 0 -8 8q2 28 18.5 44.5t42.5 16.5z" />
    <glyph glyph-name="itilde" unicode="&#x129;" horiz-adv-x="189" 
d="M19 637q25 0 43 -8.5t34 -18.5t32 -18.5t37 -8.5q20 0 30 12t12 29q0 9 10 9h1q4 0 6.5 -3t2.5 -6q-3 -26 -19.5 -42.5t-42.5 -16.5q-24 0 -42 8.5t-34 18t-32.5 18t-37.5 8.5q-20 0 -30 -12.5t-12 -29.5q0 -8 -9 -8h-2q-8 0 -8 8q2 28 18.5 44.5t42.5 16.5zM93 450
q10 0 10 -10v-369q0 -20 5 -34t18 -28q6 -6 -1 -12l-2 -2q-2 -2 -6.5 -1.5t-6.5 2.5q-29 26 -29 69v375q0 10 10 10h2z" />
    <glyph glyph-name="Imacron" unicode="&#x12a;" horiz-adv-x="286" 
d="M55 679q-9 0 -9 10v2q0 9 9 9h175q10 0 10 -9v-2q0 -10 -10 -10h-68q-8 0 -8 -8v-642q0 -8 8 -8h68q10 0 10 -10v-2q0 -9 -10 -9h-175q-9 0 -9 9v2q0 10 9 10h69q8 0 8 8v642q0 8 -8 8h-69zM247 769q9 0 9 -9v-2q0 -8 -9 -8h-208q-8 0 -8 8v2q0 9 8 9h208z" />
    <glyph glyph-name="imacron" unicode="&#x12b;" horiz-adv-x="189" 
d="M93 450q10 0 10 -10v-369q0 -20 5 -34t18 -28q6 -6 -1 -12l-2 -2q-2 -2 -6.5 -1.5t-6.5 2.5q-29 26 -29 69v375q0 10 10 10h2zM176 592q9 0 9 -9v-2q0 -8 -9 -8h-168q-8 0 -8 8v2q0 9 8 9h168z" />
    <glyph glyph-name="Ibreve" unicode="&#x12c;" horiz-adv-x="286" 
d="M46 691q0 9 9 9h175q10 0 10 -9v-2q0 -10 -10 -10h-68q-8 0 -8 -8v-642q0 -8 8 -8h68q10 0 10 -10v-2q0 -9 -10 -9h-175q-9 0 -9 9v2q0 10 9 10h69q8 0 8 8v642q0 8 -8 8h-69q-9 0 -9 10v2zM240 828q-6 -37 -32 -58t-65 -21q-38 0 -65 21t-32 59q-1 2 1.5 4.5t4.5 2.5h2
q7 0 9 -7q6 -31 28.5 -47t51.5 -16t51 16t28 46q2 8 9 8h2q3 0 5.5 -2.5t1.5 -5.5z" />
    <glyph glyph-name="Iogonek" unicode="&#x12e;" horiz-adv-x="286" 
d="M55 679q-9 0 -9 10v2q0 9 9 9h175q10 0 10 -9v-2q0 -10 -10 -10h-68q-8 0 -8 -8v-642q0 -8 8 -8h68q10 0 10 -10v-2q0 -9 -10 -9h-70q-8 0 -14 -6q-20 -23 -34.5 -50.5t-14.5 -52.5q0 -19 11 -32t31 -13q32 0 60 13q6 4 8 -3l1 -2q2 -2 1 -4.5t-3 -3.5q-30 -17 -67 -17
q-30 0 -46 17t-16 45q0 26 14 52.5t34 50.5q2 2 1 4t-4 2h-67q-9 0 -9 9v2q0 10 9 10h69q8 0 8 8v642q0 8 -8 8h-69z" />
    <glyph glyph-name="iogonek" unicode="&#x12f;" horiz-adv-x="189" 
d="M93 450q10 0 10 -10v-369q0 -20 5 -33.5t17 -27.5q7 -7 -1 -14q-26 -25 -42.5 -55t-16.5 -54q0 -19 10 -30t30 -11q32 0 61 13q4 3 8 -3v-2q2 -2 1 -4.5t-3 -3.5q-30 -17 -67 -17q-60 0 -60 58q0 26 14.5 51t40.5 55q6 6 1 14q-9 12 -14.5 26.5t-5.5 31.5v375q0 10 10 10
h2zM91 634q-21 0 -21 21t21 21t21 -21t-21 -21z" />
    <glyph glyph-name="Idotaccent" unicode="&#x130;" horiz-adv-x="286" 
d="M55 679q-9 0 -9 10v2q0 9 9 9h175q10 0 10 -9v-2q0 -10 -10 -10h-68q-8 0 -8 -8v-642q0 -8 8 -8h68q10 0 10 -10v-2q0 -9 -10 -9h-175q-9 0 -9 9v2q0 10 9 10h69q8 0 8 8v642q0 8 -8 8h-69zM143 750q-21 0 -21 21t21 21t21 -21t-21 -21z" />
    <glyph glyph-name="dotlessi" unicode="&#x131;" horiz-adv-x="189" 
d="M93 450q10 0 10 -10v-369q0 -20 5 -34t18 -28q6 -6 -1 -12l-2 -2q-2 -2 -6.5 -1.5t-6.5 2.5q-29 26 -29 69v375q0 10 10 10h2z" />
    <glyph glyph-name="IJ" unicode="&#x132;" horiz-adv-x="574" 
d="M55 679q-9 0 -9 10v2q0 9 9 9h175q10 0 10 -9v-2q0 -10 -10 -10h-68q-8 0 -8 -8v-642q0 -8 8 -8h68q10 0 10 -10v-2q0 -9 -10 -9h-175q-9 0 -9 9v2q0 10 9 10h69q8 0 8 8v642q0 8 -8 8h-69zM353 679q-9 0 -9 10v2q0 9 9 9h175q10 0 10 -9v-2q0 -10 -10 -10h-68
q-8 0 -8 -8v-608q0 -69 -18 -118t-56 -81q-8 -6 -14 2l-2 2q-2 3 -2 7.5t4 6.5q35 30 50.5 74.5t15.5 106.5v608q0 8 -9 8h-68z" />
    <glyph glyph-name="ij" unicode="&#x133;" horiz-adv-x="484" 
d="M93 450q10 0 10 -10v-369q0 -20 5 -34t18 -28q6 -6 -1 -12l-2 -2q-2 -2 -6.5 -1.5t-6.5 2.5q-29 26 -29 69v375q0 10 10 10h2zM91 634q-21 0 -21 21t21 21t21 -21t-21 -21zM391 450q10 0 10 -10v-438q0 -66 -20 -117.5t-53 -97.5q-5 -6 -13 -2l-1 2q-8 4 -2 12
q33 48 50 95.5t17 107.5v438q0 10 10 10h2zM389 634q-21 0 -21 21t21 21t21 -21t-21 -21z" />
    <glyph glyph-name="Jcircumflex" unicode="&#x134;" horiz-adv-x="266" 
d="M43 679q-9 0 -9 10v2q0 9 9 9h175q10 0 10 -9v-2q0 -10 -10 -10h-68q-8 0 -8 -8v-608q0 -69 -18 -118t-56 -81q-8 -6 -14 2l-2 2q-6 8 2 14q35 30 50.5 74.5t15.5 106.5v608q0 8 -8 8h-69zM25 756q-5 5 0 10l99 96q7 7 14 0l99 -96q5 -5 0 -10l-1 -1q-5 -5 -10 -1l-89 79
q-6 8 -12 0l-89 -79q-5 -4 -10 1z" />
    <glyph glyph-name="jcircumflex" unicode="&#x135;" horiz-adv-x="188" 
d="M93 450q10 0 10 -10v-438q0 -66 -20 -117.5t-54 -97.5q-2 -3 -5.5 -3.5t-6.5 1.5l-2 2q-3 2 -3.5 5.5t1.5 6.5q34 48 51 95.5t17 107.5v438q0 10 10 10h2zM-14 571q-5 5 0 10l99 96q7 7 14 0l99 -96q5 -5 0 -10l-1 -1q-5 -5 -10 0l-89 78q-6 8 -12 0l-89 -78q-5 -5 -10 0
z" />
    <glyph glyph-name="uni0136" unicode="&#x136;" horiz-adv-x="702" 
d="M306 345q-6 6 -14 6h-158q-8 0 -8 -8v-333q0 -10 -10 -10h-2q-10 0 -10 10v680q0 10 10 10h2q10 0 10 -10v-311q0 -8 8 -8h158q8 0 14 6l332 316q7 7 17 7h12q3 0 4 -2.5t-1 -4.5l-344 -326q-6 -6 0 -12l357 -348q2 -2 1 -4.5t-4 -2.5h-11q-10 0 -17 7zM348 -82
q-7 6 -7 17q0 21 21 21t21 -23q-1 -21 -10 -38t-23 -29q-6 -4 -11 1l-2 1q-5 5 0 10q11 13 16 25q3 10 -5 15z" />
    <glyph glyph-name="uni0137" unicode="&#x137;" horiz-adv-x="499" 
d="M468 450q3 0 4 -2.5t-1 -4.5l-218 -210q-6 -6 0 -12l223 -214q2 -2 1 -4.5t-4 -2.5h-11q-10 0 -17 7l-213 204q-6 6 -14 6h-105q-8 0 -8 -8v-199q0 -10 -10 -10h-2q-10 0 -10 10v730q0 10 10 10h2q10 0 10 -10v-495q0 -8 8 -8h106q8 0 14 6l208 200q7 7 17 7h10zM238 -82
q-7 6 -7 17q0 21 21 21t21 -21q0 -23 -9.5 -40t-23.5 -29q-6 -4 -11 1l-2 1q-5 5 0 10q11 13 16 25q3 10 -5 15z" />
    <glyph glyph-name="kgreenlandic" unicode="&#x138;" horiz-adv-x="499" 
d="M468 450q3 0 4 -2.5t-1 -4.5l-218 -210q-6 -6 0 -12l223 -214q2 -2 1 -4.5t-4 -2.5h-11q-10 0 -17 7l-213 204q-6 6 -14 6h-105q-8 0 -8 -8v-199q0 -10 -10 -10h-2q-10 0 -10 10v430q0 10 10 10h2q10 0 10 -10v-195q0 -8 8 -8h106q8 0 14 6l208 200q7 7 17 7h10z" />
    <glyph glyph-name="Lacute" unicode="&#x139;" horiz-adv-x="589" 
d="M114 0q-10 0 -10 10v680q0 10 10 10h2q10 0 10 -10v-662q0 -8 8 -8h436q9 0 9 -9v-2q0 -9 -9 -9h-456zM112 757q-4 5 2 9l159 96q6 5 12 -3l1 -1q4 -8 -4 -12l-160 -93q-7 -2 -9 3z" />
    <glyph glyph-name="lacute" unicode="&#x13a;" horiz-adv-x="197" 
d="M95 750q10 0 10 -10v-669q0 -20 5 -34t18 -28q6 -6 -1 -12l-2 -2q-2 -2 -6.5 -1.5t-6.5 2.5q-29 26 -29 69v675q0 10 10 10h2zM71 801q-2 7 3 9l159 96q6 5 12 -3l1 -1q4 -8 -4 -12l-160 -93q-7 -2 -9 3z" />
    <glyph glyph-name="uni013B" unicode="&#x13b;" horiz-adv-x="589" 
d="M114 0q-10 0 -10 10v680q0 10 10 10h2q10 0 10 -10v-662q0 -8 8 -8h436q9 0 9 -9v-2q0 -9 -9 -9h-456zM319 -82q-7 6 -7 17q0 21 21 21t21 -21q0 -22 -9 -39.5t-24 -29.5q-6 -4 -11 1l-2 1q-4 6 0 10q11 13 16 25q3 10 -5 15z" />
    <glyph glyph-name="uni013C" unicode="&#x13c;" horiz-adv-x="197" 
d="M95 750q10 0 10 -10v-669q0 -20 5 -34t18 -28q6 -6 -1 -12l-2 -2q-2 -2 -6.5 -1.5t-6.5 2.5q-29 26 -29 69v675q0 10 10 10h2zM87 -82q-7 6 -7 17q0 21 21 21t21 -23q-1 -21 -10 -38t-23 -29q-6 -4 -11 1l-2 1q-5 5 0 10q11 13 16 25q3 10 -5 15z" />
    <glyph glyph-name="Lcaron" unicode="&#x13d;" horiz-adv-x="589" 
d="M114 0q-10 0 -10 10v680q0 10 10 10h2q10 0 10 -10v-662q0 -8 8 -8h436q9 0 9 -9v-2q0 -9 -9 -9h-456zM343 637q12 22 18 50t8 53q0 10 10 10h3q4 0 7 -3t2 -7q-2 -29 -12 -60.5t-24 -50.5q-1 -2 -3.5 -2.5t-4.5 0.5l-2 2q-5 3 -2 8z" />
    <glyph glyph-name="lcaron" unicode="&#x13e;" horiz-adv-x="197" 
d="M175 637q12 22 18 50t8 53q0 10 10 10h3q4 0 7 -3t2 -7q-2 -29 -12 -60.5t-23 -50.5q-4 -4 -9 -2l-2 2q-5 3 -2 8zM97 750q10 0 10 -10v-669q0 -20 5 -34t18 -28q6 -6 -1 -12l-2 -2q-2 -2 -6.5 -1.5t-6.5 2.5q-29 26 -29 69v675q0 10 10 10h2z" />
    <glyph glyph-name="Ldot" unicode="&#x13f;" horiz-adv-x="589" 
d="M114 0q-10 0 -10 10v680q0 10 10 10h2q10 0 10 -10v-662q0 -8 8 -8h436q9 0 9 -9v-2q0 -9 -9 -9h-456zM380 347q-21 0 -21 21t21 21t21 -21t-21 -21z" />
    <glyph glyph-name="ldot" unicode="&#x140;" horiz-adv-x="244" 
d="M97 750q10 0 10 -10v-669q0 -20 5 -34t18 -28q6 -6 -1 -12l-2 -2q-2 -2 -6.5 -1.5t-6.5 2.5q-29 26 -29 69v675q0 10 10 10h2zM218 347q-21 0 -21 21t21 21t21 -21t-21 -21z" />
    <glyph glyph-name="Lslash" unicode="&#x141;" horiz-adv-x="615" 
d="M138 0q-10 0 -10 10v295q0 3 -2.5 4.5t-4.5 -0.5l-115 -66q-7 -4 -11 4l-2 1q-4 8 4 12l124 72q7 3 7 12v346q0 10 10 10h2q10 0 10 -10v-333q0 -3 2.5 -4.5t4.5 0.5l155 90q3 2 6.5 1t5.5 -4l1 -2q5 -7 -3 -13l-165 -95q-7 -4 -7 -12v-290q0 -8 8 -8h436q9 0 9 -9v-2
q0 -9 -9 -9h-456z" />
    <glyph glyph-name="lslash" unicode="&#x142;" horiz-adv-x="317" 
d="M169 750q10 0 10 -10v-369q0 -3 2.5 -4.5t4.5 0.5l107 63q7 5 13 -3l1 -2q4 -8 -4 -12l-117 -69q-7 -4 -7 -12v-261q0 -20 5 -34t18 -28q6 -6 -1 -12l-2 -2q-6 -4 -13 1q-29 27 -29 69v254q0 3 -2.5 4.5t-4.5 -0.5l-113 -66q-8 -3 -12 4l-2 1q-4 8 4 12l123 72q7 3 7 12
v382q0 10 10 10h2z" />
    <glyph glyph-name="Nacute" unicode="&#x143;" horiz-adv-x="805" 
d="M689 0q-10 0 -16 8l-542 652q-5 5 -5 -2v-648q0 -10 -10 -10h-2q-10 0 -10 10v680q0 10 10 10h2q10 0 16 -8l542 -653q5 -5 5 2v649q0 10 10 10h2q10 0 10 -10v-680q0 -10 -10 -10h-2zM377 757q-4 5 2 9l159 96q6 5 12 -3l1 -1q4 -8 -4 -12l-160 -93q-7 -2 -9 3z" />
    <glyph glyph-name="nacute" unicode="&#x144;" horiz-adv-x="562" 
d="M225 572q-2 2 -1 5t3 4l159 96q6 5 12 -3l1 -1q4 -8 -4 -12l-160 -93q-7 -2 -9 3zM488 -4q-29 27 -29 69v214q0 37 -7.5 67t-25 50.5t-46.5 31.5t-73 11q-33 0 -62 -10.5t-54 -27t-45.5 -38t-35.5 -43.5q-5 -7 -5 -15v-295q0 -10 -10 -10h-2q-10 0 -10 10v430q0 10 10 10
h2q10 0 10 -10v-88q0 -2 1.5 -2.5t3.5 1.5q15 19 35.5 38t45.5 35t54 26t62 10q49 0 82.5 -12.5t54 -35.5t29 -56t8.5 -75v-210q0 -20 5 -34t18 -28q6 -6 -1 -12l-2 -2q-6 -4 -13 1z" />
    <glyph glyph-name="uni0145" unicode="&#x145;" horiz-adv-x="805" 
d="M689 0q-10 0 -16 8l-542 652q-5 5 -5 -2v-648q0 -10 -10 -10h-2q-10 0 -10 10v680q0 10 10 10h2q10 0 16 -8l542 -653q5 -5 5 2v649q0 10 10 10h2q10 0 10 -10v-680q0 -10 -10 -10h-2zM393 -82q-7 7 -7 17q0 21 21 21t21 -21q0 -22 -9 -39.5t-24 -29.5q-6 -4 -11 1l-2 1
q-4 6 0 10q11 13 16 25q3 10 -5 15z" />
    <glyph glyph-name="uni0146" unicode="&#x146;" horiz-adv-x="562" 
d="M277 -82q-7 6 -7 17q0 21 21 21t21 -21q0 -22 -9 -39.5t-24 -29.5q-6 -4 -11 1l-2 1q-4 6 0 10q11 13 16 25q3 10 -5 15zM488 -4q-29 27 -29 69v214q0 37 -7.5 67t-25 50.5t-46.5 31.5t-73 11q-33 0 -62 -10.5t-54 -27t-45.5 -38t-35.5 -43.5q-5 -7 -5 -15v-295
q0 -10 -10 -10h-2q-10 0 -10 10v430q0 10 10 10h2q10 0 10 -10v-88q0 -2 1.5 -2.5t3.5 1.5q15 19 35.5 38t45.5 35t54 26t62 10q49 0 82.5 -12.5t54 -35.5t29 -56t8.5 -75v-210q0 -20 5 -34t18 -28q6 -6 -1 -12l-2 -2q-6 -4 -13 1z" />
    <glyph glyph-name="Ncaron" unicode="&#x147;" horiz-adv-x="805" 
d="M689 0q-10 0 -16 8l-542 652q-5 5 -5 -2v-648q0 -10 -10 -10h-2q-10 0 -10 10v680q0 10 10 10h2q10 0 16 -8l542 -653q5 -5 5 2v649q0 10 10 10h2q10 0 10 -10v-680q0 -10 -10 -10h-2zM409 757q-7 -7 -14 0l-99 96q-5 5 0 10l1 1q5 5 10 0l89 -80q6 -6 12 0l89 80
q5 5 10 0l1 -1q5 -5 0 -10z" />
    <glyph glyph-name="ncaron" unicode="&#x148;" horiz-adv-x="562" 
d="M286 572q-7 -7 -14 0l-99 96q-5 5 0 10l1 1q5 5 10 0l89 -80q6 -6 12 0l89 80q5 5 10 0l1 -1q5 -5 0 -10zM488 -4q-29 27 -29 69v214q0 37 -7.5 67t-25 50.5t-46.5 31.5t-73 11q-33 0 -62 -10.5t-54 -27t-45.5 -38t-35.5 -43.5q-5 -7 -5 -15v-295q0 -10 -10 -10h-2
q-10 0 -10 10v430q0 10 10 10h2q10 0 10 -10v-88q0 -2 1.5 -2.5t3.5 1.5q15 19 35.5 38t45.5 35t54 26t62 10q49 0 82.5 -12.5t54 -35.5t29 -56t8.5 -75v-210q0 -20 5 -34t18 -28q6 -6 -1 -12l-2 -2q-6 -4 -13 1z" />
    <glyph glyph-name="napostrophe" unicode="&#x149;" horiz-adv-x="562" 
d="M-44 637q12 22 18 50t8 53q0 10 10 10h3q10 0 10 -10q-2 -29 -12 -60.5t-24 -50.5q-4 -4 -9 -2l-2 2q-5 3 -2 8zM487 -4q-29 27 -29 69v214q0 37 -7.5 67t-25 50.5t-46.5 31.5t-73 11q-33 0 -62 -10.5t-54 -27t-45.5 -38t-35.5 -43.5q-5 -7 -5 -15v-295q0 -10 -10 -10h-2
q-10 0 -10 10v430q0 10 10 10h2q10 0 10 -10v-88q0 -2 1.5 -2.5t3.5 1.5q15 19 35.5 38t45.5 35t54 26t62 10q49 0 82.5 -12.5t54 -35.5t29 -56t8.5 -75v-210q0 -20 5 -34t18 -28q6 -6 -1 -12l-2 -2q-6 -4 -13 1z" />
    <glyph glyph-name="Eng" unicode="&#x14a;" horiz-adv-x="804" 
d="M114 0q-10 0 -10 10v680q0 10 10 10h2q10 0 16 -8l542 -653q5 -5 5 2v649q0 10 10 10h2q10 0 10 -10v-688q0 -33 -10 -65t-26.5 -61.5t-38.5 -53.5t-46 -40q-7 -5 -11 2l-1 2q-5 7 2 12q22 16 41.5 37.5t34 47t23 53t10.5 55.5q0 10 -5 15l-543 654q-5 5 -5 -2v-648
q0 -10 -10 -10h-2z" />
    <glyph glyph-name="eng" unicode="&#x14b;" horiz-adv-x="558" 
d="M110 351q15 19 35.5 38t45.5 35t54 26t62 10q49 0 82.5 -12.5t54 -35.5t29 -56t8.5 -75v-279q0 -33 -10 -65t-26.5 -61.5t-38.5 -53.5t-46 -40q-7 -5 -11 2l-1 2q-5 7 2 12q47 34 78 89t31 115v277q0 37 -7.5 67t-25 50.5t-46.5 31.5t-73 11q-33 0 -62 -10.5t-54 -27
t-45.5 -38t-35.5 -43.5q-5 -7 -5 -15v-295q0 -10 -10 -10h-2q-10 0 -10 10v430q0 10 10 10h2q10 0 10 -10v-88q0 -2 1.5 -2.5t3.5 1.5z" />
    <glyph glyph-name="Omacron" unicode="&#x14c;" horiz-adv-x="826" 
d="M413 -10q-81 0 -146 24t-111 69.5t-71 112.5t-25 153t25 153t71 113.5t111 70.5t146 24t146 -24t111 -70.5t71 -113.5t25 -153t-25 -153t-71 -112.5t-111 -69.5t-146 -24zM413 689q-76 0 -137 -23t-103.5 -66.5t-65.5 -107t-23 -143.5t23 -143t65.5 -106.5t103.5 -66
t137 -22.5t136.5 22.5t103.5 66t66 106.5t23 143t-23 143.5t-66 107t-103.5 66.5t-136.5 23zM517 769q8 0 8 -9v-2q0 -8 -8 -8h-209q-8 0 -8 8v2q0 9 8 9h209z" />
    <glyph glyph-name="omacron" unicode="&#x14d;" horiz-adv-x="578" 
d="M289 -10q-53 0 -96.5 15.5t-74.5 45.5t-47.5 74t-16.5 100t16.5 100t47.5 74t74.5 45.5t96.5 15.5t96.5 -15.5t74 -45.5t47.5 -74t17 -100t-17 -100t-47.5 -74t-74 -45.5t-96.5 -15.5zM289 439q-98 0 -154.5 -55t-56.5 -159t56.5 -159t154.5 -55t154.5 55t56.5 159
t-56.5 159t-154.5 55zM393 592q8 0 8 -9v-2q0 -8 -8 -8h-209q-8 0 -8 8v2q0 9 8 9h209z" />
    <glyph glyph-name="Obreve" unicode="&#x14e;" horiz-adv-x="826" 
d="M413 -10q-81 0 -146 24t-111 69.5t-71 112.5t-25 153t25 153t71 113.5t111 70.5t146 24t146 -24t111 -70.5t71 -113.5t25 -153t-25 -153t-71 -112.5t-111 -69.5t-146 -24zM413 689q-76 0 -137 -23t-103.5 -66.5t-65.5 -107t-23 -143.5t23 -143t65.5 -106.5t103.5 -66
t137 -22.5t136.5 22.5t103.5 66t66 106.5t23 143t-23 143.5t-66 107t-103.5 66.5t-136.5 23zM510 829q-6 -37 -32 -58t-65 -21q-38 0 -65 21t-32 59q-1 2 1.5 4.5t4.5 2.5h2q7 0 9 -7q6 -31 28.5 -47t51.5 -16t51 16t28 46q2 8 9 8h2q3 0 5.5 -2.5t1.5 -5.5z" />
    <glyph glyph-name="obreve" unicode="&#x14f;" horiz-adv-x="578" 
d="M524 225q0 -56 -17 -100t-47.5 -74t-74 -45.5t-96.5 -15.5t-96.5 15.5t-74.5 45.5t-47.5 74t-16.5 100t16.5 100t47.5 74t74.5 45.5t96.5 15.5t96.5 -15.5t74 -45.5t47.5 -74t17 -100zM78 225q0 -104 56.5 -159t154.5 -55t154.5 55t56.5 159t-56.5 159t-154.5 55
t-154.5 -55t-56.5 -159zM386 644q-6 -37 -32 -58t-65 -21q-38 0 -65 21t-32 59q-1 2 1.5 4.5t4.5 2.5h2q7 0 9 -7q6 -31 28.5 -47t51.5 -16t51 16t28 46q2 8 9 8h2q3 0 5.5 -2.5t1.5 -5.5z" />
    <glyph glyph-name="Ohungarumlaut" unicode="&#x150;" horiz-adv-x="826" 
d="M413 -10q-81 0 -146 24t-111 69.5t-71 112.5t-25 153t25 153t71 113.5t111 70.5t146 24t146 -24t111 -70.5t71 -113.5t25 -153t-25 -153t-71 -112.5t-111 -69.5t-146 -24zM413 689q-76 0 -137 -23t-103.5 -66.5t-65.5 -107t-23 -143.5t23 -143t65.5 -106.5t103.5 -66
t137 -22.5t136.5 22.5t103.5 66t66 106.5t23 143t-23 143.5t-66 107t-103.5 66.5t-136.5 23zM344 757q-4 6 2 10l143 95q3 2 6.5 1t5.5 -4l1 -1q6 -8 -3 -13l-144 -91q-6 -4 -10 2zM500 757q-4 6 2 10l149 95q3 2 6.5 1t5.5 -4l1 -1q6 -8 -3 -13l-150 -91q-6 -4 -10 2z" />
    <glyph glyph-name="ohungarumlaut" unicode="&#x151;" horiz-adv-x="578" 
d="M289 -10q-53 0 -96.5 15.5t-74.5 45.5t-47.5 74t-16.5 100t16.5 100t47.5 74t74.5 45.5t96.5 15.5t96.5 -15.5t74 -45.5t47.5 -74t17 -100t-17 -100t-47.5 -74t-74 -45.5t-96.5 -15.5zM289 439q-98 0 -154.5 -55t-56.5 -159t56.5 -159t154.5 -55t154.5 55t56.5 159
t-56.5 159t-154.5 55zM225 572q-4 6 2 10l143 95q3 2 6.5 1t5.5 -4l1 -1q6 -8 -3 -13l-144 -91q-6 -4 -10 2zM381 572q-4 6 2 10l149 95q3 2 6.5 1t5.5 -4l1 -1q6 -8 -3 -13l-150 -91q-6 -4 -10 2z" />
    <glyph glyph-name="OE" unicode="&#x152;" horiz-adv-x="1105" 
d="M414 0q-81 0 -146 22.5t-111 66.5t-71 109t-25 151t25 151.5t71 110t111 67t146 22.5h626q9 0 9 -9v-2q0 -9 -9 -9h-449q-8 0 -8 -8v-295q0 -8 8 -8h371q9 0 9 -9v-2q0 -9 -9 -9h-371q-8 0 -8 -8v-313q0 -8 8 -8h449q9 0 9 -9v-2q0 -9 -9 -9h-626zM414 679
q-76 0 -137 -21.5t-103.5 -63.5t-65.5 -103.5t-23 -141.5t23 -141.5t65.5 -103t103.5 -62.5t137 -21h139q8 0 8 8v642q0 8 -8 8h-139z" />
    <glyph glyph-name="oe" unicode="&#x153;" horiz-adv-x="964" 
d="M500 128q-23 -67 -78.5 -102.5t-136.5 -35.5q-107 0 -169 61t-62 174t62 174t169 61q81 0 136 -35.5t78 -102.5q0 -2 2 -2t3 2q21 67 74.5 102.5t134.5 35.5q56 0 94 -13t61 -38.5t33 -63.5t10 -89v-25q0 -10 -10 -10h-379q-8 0 -8 -8q3 -99 55.5 -150.5t147.5 -51.5
q47 0 89 12t74 29q7 4 11 -4l1 -2q4 -8 -3 -11q-34 -19 -78 -32t-94 -13q-81 0 -135 35.5t-77 102.5q-1 2 -3 2t-2 -2zM490 220q0 108 -53.5 163.5t-151.5 55.5t-152.5 -55t-54.5 -159t54.5 -159t152.5 -55q95 0 148.5 53t56.5 156zM887 256q0 48 -9.5 83t-30 57t-53.5 32.5
t-81 10.5q-91 0 -141.5 -48.5t-57.5 -139.5q0 -8 8 -8l357 4q8 0 8 9z" />
    <glyph glyph-name="Racute" unicode="&#x154;" horiz-adv-x="760" 
d="M698 0q-10 0 -16 8l-183 262q-6 7 -13 6q-44 -6 -99 -6h-253q-8 0 -8 -8v-252q0 -10 -10 -10h-2q-10 0 -10 10v680q0 10 10 10h273q82 0 138.5 -12.5t91.5 -39t51 -67t16 -97.5q0 -81 -36.5 -131t-121.5 -70q-8 -2 -3 -9l186 -266q2 -2 0.5 -5t-4.5 -3h-7zM660 484
q0 50 -14 87t-46.5 61t-85 35.5t-129.5 11.5h-251q-8 0 -8 -8v-372q0 -8 8 -8h251q77 0 129.5 12t85 36.5t46.5 60.5t14 84zM316 757q-2 6 3 9l159 96q6 5 12 -3l1 -1q4 -8 -4 -12l-160 -93q-7 -2 -9 3z" />
    <glyph glyph-name="racute" unicode="&#x155;" horiz-adv-x="388" 
d="M168 572q-2 2 -1 5t3 4l159 96q6 5 12 -3l1 -1q4 -8 -4 -12l-160 -93q-7 -2 -9 3zM93 0q-10 0 -10 10v430q0 10 10 10h2q10 0 10 -10v-116q0 -2 1.5 -2.5t2.5 1.5q12 25 28.5 49.5t37 44t44 31.5t50.5 12q38 0 65.5 -18t27.5 -55q0 -29 -19 -64q-5 -9 -14 -4l-2 1
q-10 4 -4 13q6 12 10.5 24.5t4.5 25.5q0 23 -18 38t-53 15q-27 0 -50 -14t-43 -36t-36.5 -50t-29.5 -55q-3 -8 -3 -16v-255q0 -10 -10 -10h-2z" />
    <glyph glyph-name="uni0156" unicode="&#x156;" horiz-adv-x="760" 
d="M698 0q-10 0 -16 8l-183 262q-6 7 -13 6q-44 -6 -99 -6h-253q-8 0 -8 -8v-252q0 -10 -10 -10h-2q-10 0 -10 10v680q0 10 10 10h273q82 0 138.5 -12.5t91.5 -39t51 -67t16 -97.5q0 -81 -36.5 -131t-121.5 -70q-8 -2 -3 -9l186 -266q2 -2 0.5 -5t-4.5 -3h-7zM660 484
q0 50 -14 87t-46.5 61t-85 35.5t-129.5 11.5h-251q-8 0 -8 -8v-372q0 -8 8 -8h251q77 0 129.5 12t85 36.5t46.5 60.5t14 84zM378 -82q-7 7 -7 17q0 21 21 21t21 -21q0 -22 -9 -39.5t-24 -29.5q-6 -4 -11 1l-2 1q-4 6 0 10q11 13 16 25q3 10 -5 15z" />
    <glyph glyph-name="uni0157" unicode="&#x157;" horiz-adv-x="388" 
d="M78 -82q-7 6 -7 17q0 21 21 21t21 -21q0 -22 -9.5 -39.5t-23.5 -29.5q-6 -4 -11 1l-2 1q-5 5 0 10q11 13 16 25q3 10 -5 15zM91 0q-10 0 -10 10v430q0 10 10 10h2q10 0 10 -10v-116q0 -2 1.5 -2.5t2.5 1.5q12 25 28.5 49.5t37 44t44 31.5t50.5 12q38 0 65.5 -18t27.5 -55
q0 -29 -19 -64q-5 -9 -14 -4l-2 1q-10 4 -4 13q6 12 10.5 24.5t4.5 25.5q0 23 -18 38t-53 15q-27 0 -50 -14t-43 -36t-36.5 -50t-29.5 -55q-3 -8 -3 -16v-255q0 -10 -10 -10h-2z" />
    <glyph glyph-name="Rcaron" unicode="&#x158;" horiz-adv-x="760" 
d="M698 0q-10 0 -16 8l-183 262q-6 7 -13 6q-44 -6 -99 -6h-253q-8 0 -8 -8v-252q0 -10 -10 -10h-2q-10 0 -10 10v680q0 10 10 10h273q82 0 138.5 -12.5t91.5 -39t51 -67t16 -97.5q0 -81 -36.5 -131t-121.5 -70q-8 -2 -3 -9l186 -266q2 -2 0.5 -5t-4.5 -3h-7zM660 484
q0 50 -14 87t-46.5 61t-85 35.5t-129.5 11.5h-251q-8 0 -8 -8v-372q0 -8 8 -8h251q77 0 129.5 12t85 36.5t46.5 60.5t14 84zM377 757q-7 -7 -14 0l-99 96q-5 5 0 10l1 1q5 5 10 0l89 -80q6 -6 12 0l89 80q5 5 10 0l1 -1q5 -5 0 -10z" />
    <glyph glyph-name="rcaron" unicode="&#x159;" horiz-adv-x="388" 
d="M228 572q-7 -7 -14 0l-99 96q-5 5 0 10l1 1q5 5 10 0l89 -80q6 -6 12 0l89 80q5 5 10 0l1 -1q5 -5 0 -10zM93 0q-10 0 -10 10v430q0 10 10 10h2q10 0 10 -10v-116q0 -2 1.5 -2.5t2.5 1.5q12 25 28.5 49.5t37 44t44 31.5t50.5 12q38 0 65.5 -18t27.5 -55q0 -29 -19 -64
q-5 -9 -14 -4l-2 1q-10 4 -4 13q6 12 10.5 24.5t4.5 25.5q0 23 -18 38t-53 15q-27 0 -50 -14t-43 -36t-36.5 -50t-29.5 -55q-3 -8 -3 -16v-255q0 -10 -10 -10h-2z" />
    <glyph glyph-name="Sacute" unicode="&#x15a;" horiz-adv-x="597" 
d="M286 -10q-60 0 -121 11t-105 34q-8 6 -4 13l1 2q6 9 13 4q21 -11 47 -19t54.5 -13t57.5 -8t57 -3q47 0 89.5 11t74.5 33t51 53t19 72q0 52 -20 83.5t-52 50.5t-72.5 28.5t-82.5 18.5q-43 9 -85 19.5t-75 29t-53 50t-20 82.5q0 42 17 73.5t47.5 52.5t72.5 31.5t93 10.5
q60 0 116 -11.5t106 -32.5q9 -4 5 -12l-1 -2q-4 -9 -13 -5q-47 20 -101.5 31t-111.5 11q-45 0 -83 -9t-65.5 -27.5t-42.5 -46t-15 -64.5q0 -44 18.5 -71t49 -43.5t69 -25.5t77.5 -17q45 -9 89 -20t79 -32.5t56.5 -57.5t21.5 -95q0 -47 -21 -82.5t-56.5 -59.5t-82.5 -36
t-98 -12zM279 757q-4 5 2 9l159 96q6 5 12 -3l1 -1q4 -8 -4 -12l-160 -93q-7 -2 -9 3z" />
    <glyph glyph-name="sacute" unicode="&#x15b;" horiz-adv-x="469" 
d="M262 247q32 -5 61.5 -13t52 -22.5t36 -37.5t13.5 -57q0 -30 -14 -53.5t-39 -40t-59.5 -25t-76.5 -8.5t-89 7t-84 22q-3 2 -5 5.5t0 6.5l1 2q3 7 11 5q35 -13 78 -20t88 -7q75 0 120 27.5t45 78.5q0 28 -11 47t-30 30.5t-44.5 18t-55.5 11.5q-35 5 -72 11t-68 18.5
t-50.5 34t-19.5 57.5q0 30 15 51.5t40.5 35.5t59.5 21t72 7q32 0 72.5 -6t78.5 -20q8 -2 6 -12l-1 -2q-3 -8 -12 -6q-34 12 -72.5 18.5t-71.5 6.5t-63 -5.5t-52 -16.5t-35 -29t-13 -43q0 -30 17.5 -47t44.5 -27t60.5 -14.5t65.5 -9.5zM177 572q-2 7 3 9l159 96q7 5 11 -3
l1 -1q2 -3 1 -6.5t-4 -5.5l-160 -93q-7 -2 -9 3z" />
    <glyph glyph-name="Scircumflex" unicode="&#x15c;" horiz-adv-x="597" 
d="M286 -10q-60 0 -121 11t-105 34q-8 6 -4 13l1 2q6 9 13 4q21 -11 47 -19t54.5 -13t57.5 -8t57 -3q47 0 89.5 11t74.5 33t51 53t19 72q0 52 -20 83.5t-52 50.5t-72.5 28.5t-82.5 18.5q-43 9 -85 19.5t-75 29t-53 50t-20 82.5q0 42 17 73.5t47.5 52.5t72.5 31.5t93 10.5
q60 0 116 -11.5t106 -32.5q9 -4 5 -12l-1 -2q-4 -9 -13 -5q-47 20 -101.5 31t-111.5 11q-45 0 -83 -9t-65.5 -27.5t-42.5 -46t-15 -64.5q0 -44 18.5 -71t49 -43.5t69 -25.5t77.5 -17q45 -9 89 -20t79 -32.5t56.5 -57.5t21.5 -95q0 -47 -21 -82.5t-56.5 -59.5t-82.5 -36
t-98 -12zM201 756q-5 5 0 10l99 96q7 7 14 0l99 -96q5 -5 0 -10l-1 -1q-5 -5 -10 -1l-89 79q-6 8 -12 0l-89 -79q-5 -4 -10 1z" />
    <glyph glyph-name="scircumflex" unicode="&#x15d;" horiz-adv-x="469" 
d="M262 247q32 -5 61.5 -13t52 -22.5t36 -37.5t13.5 -57q0 -30 -14 -53.5t-39 -40t-59.5 -25t-76.5 -8.5t-89 7t-84 22q-3 2 -5 5.5t0 6.5l1 2q3 7 11 5q35 -13 78 -20t88 -7q75 0 120 27.5t45 78.5q0 28 -11 47t-30 30.5t-44.5 18t-55.5 11.5q-35 5 -72 11t-68 18.5
t-50.5 34t-19.5 57.5q0 30 15 51.5t40.5 35.5t59.5 21t72 7q32 0 72.5 -6t78.5 -20q8 -2 6 -12l-1 -2q-3 -8 -12 -6q-34 12 -72.5 18.5t-71.5 6.5t-63 -5.5t-52 -16.5t-35 -29t-13 -43q0 -30 17.5 -47t44.5 -27t60.5 -14.5t65.5 -9.5zM122 571q-5 5 0 10l99 96q7 7 14 0
l99 -96q5 -5 0 -10l-1 -1q-5 -5 -10 0l-89 78q-6 8 -12 0l-89 -78q-5 -5 -10 0z" />
    <glyph glyph-name="Scedilla" unicode="&#x15e;" horiz-adv-x="597" 
d="M293 -67q-5 0 -10 -0.5t-11 -1.5q-9 -2 -15 6l-2 1q-6 7 -1 15l19 30q2 2 0.5 4.5t-3.5 2.5q-57 2 -113 13t-97 32q-8 6 -4 13l1 2q6 9 13 4q21 -11 47 -19t54.5 -13t57.5 -8t57 -3q47 0 89.5 11t74.5 33t51 53t19 72q0 52 -20 83.5t-52 50.5t-72.5 28.5t-82.5 18.5
q-43 9 -85 19.5t-75 29t-53 50t-20 82.5q0 42 17 73.5t47.5 52.5t72.5 31.5t93 10.5q60 0 116 -11.5t106 -32.5q9 -4 5 -12l-1 -2q-4 -9 -13 -5q-47 20 -101.5 31t-111.5 11q-45 0 -83 -9t-65.5 -27.5t-42.5 -46t-15 -64.5q0 -44 18.5 -71t49 -43.5t69 -25.5t77.5 -17
q45 -9 89 -20t79 -32.5t56.5 -57.5t21.5 -95q0 -44 -19 -78t-51 -58t-75 -37.5t-91 -16.5q-8 0 -13 -7l-15 -25q-2 -2 0 -4.5t4 -1.5q18 1 34.5 -1.5t29.5 -9.5t20.5 -19t7.5 -30q0 -35 -26.5 -51t-62.5 -16q-16 0 -37 3.5t-35 9.5q-3 1 -4.5 4t0.5 5l1 2q3 7 10 4
q12 -5 31.5 -7.5t33.5 -2.5q29 0 48 12.5t19 36.5q0 13 -5.5 21t-14.5 12.5t-20 6t-21 1.5z" />
    <glyph glyph-name="scedilla" unicode="&#x15f;" horiz-adv-x="470" 
d="M244 -67q-5 0 -10 -0.5t-11 -1.5q-8 -2 -15 6l-2 1q-6 7 -1 15l19 30q2 2 1 4.5t-4 2.5q-40 2 -82.5 8.5t-75.5 20.5q-3 2 -5 5.5t0 6.5l1 2q3 7 11 5q35 -13 78 -20t88 -7q75 0 120 27.5t45 78.5q0 28 -11 47t-30 30.5t-44.5 18t-55.5 11.5q-35 5 -72 11t-68 18.5
t-50.5 34t-19.5 57.5q0 30 15 51.5t40.5 35.5t59.5 21t72 7q32 0 72.5 -6t78.5 -20q8 -2 6 -12l-1 -2q-3 -8 -12 -6q-34 12 -72.5 18.5t-71.5 6.5t-63 -5.5t-52 -16.5t-35 -29t-13 -43q0 -30 17.5 -47t44.5 -27t60.5 -14.5t65.5 -9.5t61.5 -13t52 -22.5t36 -37.5t13.5 -57
q0 -56 -45.5 -88.5t-120.5 -37.5q-8 0 -13 -7l-15 -26q-2 -2 0 -4.5t4 -1.5q18 1 34.5 -1.5t29.5 -9.5t20.5 -19t7.5 -30q0 -35 -26.5 -51t-62.5 -16q-16 0 -37 3.5t-35 9.5q-3 1 -4.5 4t0.5 5l1 2q4 7 10 4q12 -5 31.5 -7.5t33.5 -2.5q29 0 48 12.5t19 36.5q0 13 -5.5 21
t-14.5 12.5t-20 6t-21 1.5z" />
    <glyph glyph-name="Scaron" unicode="&#x160;" horiz-adv-x="597" 
d="M286 -10q-60 0 -121 11t-105 34q-8 6 -4 13l1 2q6 9 13 4q21 -11 47 -19t54.5 -13t57.5 -8t57 -3q47 0 89.5 11t74.5 33t51 53t19 72q0 52 -20 83.5t-52 50.5t-72.5 28.5t-82.5 18.5q-43 9 -85 19.5t-75 29t-53 50t-20 82.5q0 42 17 73.5t47.5 52.5t72.5 31.5t93 10.5
q60 0 116 -11.5t106 -32.5q9 -4 5 -12l-1 -2q-4 -9 -13 -5q-47 20 -101.5 31t-111.5 11q-45 0 -83 -9t-65.5 -27.5t-42.5 -46t-15 -64.5q0 -44 18.5 -71t49 -43.5t69 -25.5t77.5 -17q45 -9 89 -20t79 -32.5t56.5 -57.5t21.5 -95q0 -47 -21 -82.5t-56.5 -59.5t-82.5 -36
t-98 -12zM317 757q-7 -7 -14 0l-99 96q-5 5 0 10l1 1q5 5 10 0l89 -80q6 -6 12 0l89 80q5 5 10 0l1 -1q5 -5 0 -10z" />
    <glyph glyph-name="scaron" unicode="&#x161;" horiz-adv-x="469" 
d="M262 247q32 -5 61.5 -13t52 -22.5t36 -37.5t13.5 -57q0 -30 -14 -53.5t-39 -40t-59.5 -25t-76.5 -8.5t-89 7t-84 22q-3 2 -5 5.5t0 6.5l1 2q3 7 11 5q35 -13 78 -20t88 -7q75 0 120 27.5t45 78.5q0 28 -11 47t-30 30.5t-44.5 18t-55.5 11.5q-35 5 -72 11t-68 18.5
t-50.5 34t-19.5 57.5q0 30 15 51.5t40.5 35.5t59.5 21t72 7q32 0 72.5 -6t78.5 -20q8 -2 6 -12l-1 -2q-3 -8 -12 -6q-34 12 -72.5 18.5t-71.5 6.5t-63 -5.5t-52 -16.5t-35 -29t-13 -43q0 -30 17.5 -47t44.5 -27t60.5 -14.5t65.5 -9.5zM238 572q-7 -7 -14 0l-99 96q-5 5 0 10
l1 1q5 5 10 0l89 -80q6 -6 12 0l89 80q5 5 10 0l1 -1q5 -5 0 -10z" />
    <glyph glyph-name="uni0162" unicode="&#x162;" horiz-adv-x="646" 
d="M17 680q-9 0 -9 9v2q0 9 9 9h612q9 0 9 -9v-2q0 -9 -9 -9h-287q-8 0 -8 -8v-662q0 -10 -10 -10h-2q-10 0 -10 10v662q0 8 -8 8h-287zM309 -82q-7 6 -7 17q0 21 21 21t21 -21q0 -22 -9.5 -39.5t-23.5 -29.5q-6 -4 -11 1l-2 1q-5 5 0 10q11 13 16 25q3 10 -5 15z" />
    <glyph glyph-name="uni0163" unicode="&#x163;" horiz-adv-x="382" 
d="M355 450q9 0 9 -9v-2q0 -9 -9 -9h-206q-8 0 -8 -8v-294q0 -66 25 -91.5t80 -25.5q38 0 62 7.5t51 19.5q3 2 6.5 0.5t4.5 -4.5l1 -2q4 -7 -4 -11q-29 -14 -55.5 -22.5t-64.5 -8.5q-68 0 -98 30.5t-30 105.5v296q0 8 -8 8h-75q-9 0 -9 9v2q0 9 9 9h75q8 0 8 8v161
q0 10 10 10h2q10 0 10 -10v-161q0 -8 8 -8h206zM228 -82q-7 6 -7 17q0 21 21 21t21 -21q0 -22 -9 -39.5t-24 -29.5q-6 -4 -11 1l-2 1q-4 6 0 10q11 13 16 25q3 10 -5 15z" />
    <glyph glyph-name="Tcaron" unicode="&#x164;" horiz-adv-x="646" 
d="M17 680q-9 0 -9 9v2q0 9 9 9h612q9 0 9 -9v-2q0 -9 -9 -9h-287q-8 0 -8 -8v-662q0 -10 -10 -10h-2q-10 0 -10 10v662q0 8 -8 8h-287zM330 757q-7 -7 -14 0l-99 96q-5 5 0 10l1 1q5 5 10 0l89 -80q6 -6 12 0l89 80q5 5 10 0l1 -1q5 -5 0 -10z" />
    <glyph glyph-name="tcaron" unicode="&#x165;" horiz-adv-x="382" 
d="M355 450q9 0 9 -9v-2q0 -9 -9 -9h-206q-8 0 -8 -8v-294q0 -66 25 -91.5t80 -25.5q38 0 62 7.5t51 19.5q3 2 6.5 0.5t4.5 -4.5l1 -2q4 -7 -4 -11q-29 -14 -55.5 -22.5t-64.5 -8.5q-68 0 -98 30.5t-30 105.5v296q0 8 -8 8h-75q-9 0 -9 9v2q0 9 9 9h75q8 0 8 8v161
q0 10 10 10h2q10 0 10 -10v-161q0 -8 8 -8h206zM271 637q12 22 18 50t8 53q0 10 10 10h3q4 0 7 -3t2 -7q-2 -29 -12 -60.5t-24 -50.5q-1 -2 -3.5 -2.5t-4.5 0.5l-2 2q-5 3 -2 8z" />
    <glyph glyph-name="Tbar" unicode="&#x166;" 
d="M18 680q-9 0 -9 9v2q0 9 9 9h612q9 0 9 -9v-2q0 -9 -9 -9h-287q-8 0 -8 -8v-152q0 -8 8 -8h215q9 0 9 -9v-2q0 -9 -9 -9h-215q-8 0 -8 -8v-474q0 -10 -10 -10h-2q-10 0 -10 10v474q0 8 -8 8h-215q-9 0 -9 9v2q0 9 9 9h215q8 0 8 8v152q0 8 -8 8h-287z" />
    <glyph glyph-name="tbar" unicode="&#x167;" horiz-adv-x="390" 
d="M360 450q9 0 9 -9v-2q0 -9 -9 -9h-206q-8 0 -8 -8v-98q0 -8 8 -8h206q9 0 9 -9v-2q0 -9 -9 -9h-206q-8 0 -8 -8v-160q0 -66 25 -91.5t80 -25.5q38 0 62 7.5t51 19.5q8 4 12 -4v-2q4 -7 -4 -11q-29 -14 -55.5 -22.5t-64.5 -8.5q-68 0 -98 30.5t-30 105.5v162q0 8 -8 8h-75
q-9 0 -9 9v2q0 9 9 9h75q8 0 8 8v98q0 8 -8 8h-75q-9 0 -9 9v2q0 9 9 9h75q8 0 8 8v161q0 10 10 10h2q10 0 10 -10v-161q0 -8 8 -8h206z" />
    <glyph glyph-name="Utilde" unicode="&#x168;" horiz-adv-x="782" 
d="M677 700q10 0 10 -10v-367q0 -83 -16.5 -145.5t-52 -104t-91.5 -62.5t-136 -21t-136 21t-91.5 62.5t-52 104t-16.5 145.5v367q0 10 10 10h2q10 0 10 -10v-367q0 -77 15 -135t48 -97.5t85 -59.5t126 -20t126 20t85 59t48 97.5t15 135.5v367q0 10 10 10h2zM317 819
q25 0 43 -8.5t34 -18.5t32 -18.5t37 -8.5q20 0 30 12t12 29q0 9 10 9h1q4 0 6.5 -3t2.5 -6q-3 -26 -19.5 -42.5t-42.5 -16.5q-24 0 -42 8.5t-34 18t-32.5 18t-37.5 8.5q-20 0 -30 -12.5t-12 -29.5q0 -8 -9 -8h-2q-8 0 -8 8q3 28 19 44.5t42 16.5z" />
    <glyph glyph-name="utilde" unicode="&#x169;" horiz-adv-x="552" 
d="M409 624q-3 -26 -19.5 -42.5t-42.5 -16.5q-24 0 -42 8.5t-34 18t-32.5 18t-37.5 8.5q-20 0 -30 -12.5t-12 -29.5q0 -8 -9 -8h-2q-8 0 -8 8q3 28 19 44.5t42 16.5q25 0 43 -8.5t34 -18.5t32 -18.5t37 -8.5q20 0 30 12t12 29q0 9 10 9h1q4 0 6.5 -3t2.5 -6zM439 98
q-15 -19 -34.5 -38t-43.5 -34.5t-52.5 -25.5t-60.5 -10q-50 0 -82.5 12.5t-52 35.5t-27.5 56t-8 75v271q0 10 10 10h2q10 0 10 -10v-269q0 -38 6.5 -67.5t23.5 -50t45.5 -31.5t72.5 -11q33 0 61 10t52 26.5t43.5 38t34.5 43.5q5 7 5 15v296q0 10 10 10h2q10 0 10 -10v-369
q0 -20 5 -34t18 -28q6 -6 -1 -12l-2 -2q-6 -4 -13 1q-29 27 -29 69v32q0 2 -1.5 2.5t-3.5 -1.5z" />
    <glyph glyph-name="Umacron" unicode="&#x16a;" horiz-adv-x="782" 
d="M677 700q10 0 10 -10v-367q0 -83 -16.5 -145.5t-52 -104t-91.5 -62.5t-136 -21t-136 21t-91.5 62.5t-52 104t-16.5 145.5v367q0 10 10 10h2q10 0 10 -10v-367q0 -77 15 -135t48 -97.5t85 -59.5t126 -20t126 20t85 59t48 97.5t15 135.5v367q0 10 10 10h2zM495 769
q8 0 8 -9v-2q0 -8 -8 -8h-209q-8 0 -8 8v2q0 9 8 9h209z" />
    <glyph glyph-name="umacron" unicode="&#x16b;" horiz-adv-x="552" 
d="M379 592q8 0 8 -9v-2q0 -8 -8 -8h-209q-8 0 -8 8v2q0 9 8 9h209zM439 98q-15 -19 -34.5 -38t-43.5 -34.5t-52.5 -25.5t-60.5 -10q-50 0 -82.5 12.5t-52 35.5t-27.5 56t-8 75v271q0 10 10 10h2q10 0 10 -10v-269q0 -38 6.5 -67.5t23.5 -50t45.5 -31.5t72.5 -11q33 0 61 10
t52 26.5t43.5 38t34.5 43.5q5 7 5 15v296q0 10 10 10h2q10 0 10 -10v-369q0 -20 5 -34t18 -28q6 -6 -1 -12l-2 -2q-6 -4 -13 1q-29 27 -29 69v32q0 2 -1.5 2.5t-3.5 -1.5z" />
    <glyph glyph-name="Ubreve" unicode="&#x16c;" horiz-adv-x="782" 
d="M677 700q10 0 10 -10v-367q0 -83 -16.5 -145.5t-52 -104t-91.5 -62.5t-136 -21t-136 21t-91.5 62.5t-52 104t-16.5 145.5v367q0 10 10 10h2q10 0 10 -10v-367q0 -77 15 -135t48 -97.5t85 -59.5t126 -20t126 20t85 59t48 97.5t15 135.5v367q0 10 10 10h2zM488 828
q-6 -37 -32 -58t-65 -21q-38 0 -65 21t-32 59q-1 2 1.5 4.5t4.5 2.5h2q7 0 9 -7q6 -31 28.5 -47t51.5 -16t51 16t28 46q2 8 9 8h2q3 0 5.5 -2.5t1.5 -5.5z" />
    <glyph glyph-name="ubreve" unicode="&#x16d;" horiz-adv-x="552" 
d="M439 98q-15 -19 -34.5 -38t-43.5 -34.5t-52.5 -25.5t-60.5 -10q-50 0 -82.5 12.5t-52 35.5t-27.5 56t-8 75v271q0 10 10 10h2q10 0 10 -10v-269q0 -38 6.5 -67.5t23.5 -50t45.5 -31.5t72.5 -11q33 0 61 10t52 26.5t43.5 38t34.5 43.5q5 7 5 15v296q0 10 10 10h2
q10 0 10 -10v-369q0 -20 5 -34t18 -28q6 -6 -1 -12l-2 -2q-6 -4 -13 1q-29 27 -29 69v32q0 2 -1.5 2.5t-3.5 -1.5zM373 644q-6 -37 -32 -58t-65 -21q-38 0 -65 21t-32 59q-1 2 1.5 4.5t4.5 2.5h2q7 0 9 -7q6 -31 28.5 -47t51.5 -16t51 16t28 46q2 8 9 8h2q3 0 5.5 -2.5
t1.5 -5.5z" />
    <glyph glyph-name="Uring" unicode="&#x16e;" horiz-adv-x="782" 
d="M677 700q10 0 10 -10v-367q0 -83 -16.5 -145.5t-52 -104t-91.5 -62.5t-136 -21t-136 21t-91.5 62.5t-52 104t-16.5 145.5v367q0 10 10 10h2q10 0 10 -10v-367q0 -77 15 -135t48 -97.5t85 -59.5t126 -20t126 20t85 59t48 97.5t15 135.5v367q0 10 10 10h2zM391 750
q-33 0 -53 19t-20 54t20 54t53 19t53 -19t20 -54t-20 -54t-53 -19zM391 880q-26 0 -41 -14.5t-15 -42.5t15 -42.5t41 -14.5q55 0 55 57t-55 57z" />
    <glyph glyph-name="uring" unicode="&#x16f;" horiz-adv-x="552" 
d="M348 637q0 -35 -20 -54t-53 -19t-53 19t-20 54t20 54t53 19t53 -19t20 -54zM219 637q0 -28 15 -42.5t41 -14.5q55 0 55 57t-55 57q-26 0 -41 -14.5t-15 -42.5zM439 98q-15 -19 -34.5 -38t-43.5 -34.5t-52.5 -25.5t-60.5 -10q-50 0 -82.5 12.5t-52 35.5t-27.5 56t-8 75
v271q0 10 10 10h2q10 0 10 -10v-269q0 -38 6.5 -67.5t23.5 -50t45.5 -31.5t72.5 -11q33 0 61 10t52 26.5t43.5 38t34.5 43.5q5 7 5 15v296q0 10 10 10h2q10 0 10 -10v-369q0 -20 5 -34t18 -28q6 -6 -1 -12l-2 -2q-6 -4 -13 1q-29 27 -29 69v32q0 2 -1.5 2.5t-3.5 -1.5z" />
    <glyph glyph-name="Uhungarumlaut" unicode="&#x170;" horiz-adv-x="782" 
d="M677 700q10 0 10 -10v-367q0 -83 -16.5 -145.5t-52 -104t-91.5 -62.5t-136 -21t-136 21t-91.5 62.5t-52 104t-16.5 145.5v367q0 10 10 10h2q10 0 10 -10v-367q0 -77 15 -135t48 -97.5t85 -59.5t126 -20t126 20t85 59t48 97.5t15 135.5v367q0 10 10 10h2zM285 757
q-4 6 2 10l143 95q6 5 12 -3l1 -1q5 -7 -3 -13l-144 -91q-6 -4 -10 2zM441 757q-4 6 2 10l149 95q6 5 12 -3l1 -1q5 -7 -3 -13l-150 -91q-6 -4 -10 2z" />
    <glyph glyph-name="uhungarumlaut" unicode="&#x171;" horiz-adv-x="552" 
d="M320 572q-4 6 2 10l149 95q6 5 12 -3l1 -1q5 -7 -3 -13l-150 -91q-6 -4 -10 2zM164 572q-4 6 2 10l143 95q6 5 12 -3l1 -1q5 -7 -3 -13l-144 -91q-6 -4 -10 2zM439 98q-15 -19 -34.5 -38t-43.5 -34.5t-52.5 -25.5t-60.5 -10q-50 0 -82.5 12.5t-52 35.5t-27.5 56t-8 75
v271q0 10 10 10h2q10 0 10 -10v-269q0 -38 6.5 -67.5t23.5 -50t45.5 -31.5t72.5 -11q33 0 61 10t52 26.5t43.5 38t34.5 43.5q5 7 5 15v296q0 10 10 10h2q10 0 10 -10v-369q0 -20 5 -34t18 -28q6 -6 -1 -12l-2 -2q-6 -4 -13 1q-29 27 -29 69v32q0 2 -1.5 2.5t-3.5 -1.5z" />
    <glyph glyph-name="Uogonek" unicode="&#x172;" horiz-adv-x="782" 
d="M677 700q10 0 10 -10v-367q0 -158 -62 -241t-204 -91q-8 0 -14 -6q-20 -23 -33 -48.5t-13 -49.5q0 -19 10 -30t30 -11q32 0 61 13q4 3 8 -3v-2q2 -2 1 -4.5t-3 -3.5q-30 -17 -67 -17q-60 0 -60 58q0 26 12.5 50t32.5 47q2 2 1 4t-3 2q-78 1 -133 22.5t-89.5 63.5
t-50.5 104t-16 143v367q0 10 10 10h2q10 0 10 -10v-367q0 -77 15 -135t48 -97.5t85 -59.5t126 -20t126 20t85 59t48 97.5t15 135.5v367q0 10 10 10h2z" />
    <glyph glyph-name="uogonek" unicode="&#x173;" horiz-adv-x="552" 
d="M468 -171q-60 0 -60 58q0 26 14 52t40 55q6 6 1 13q-19 23 -19 58v32q0 2 -1.5 2.5t-3.5 -1.5q-15 -19 -34.5 -38t-43.5 -34.5t-52.5 -25.5t-60.5 -10q-50 0 -82.5 12.5t-52 35.5t-27.5 56t-8 75v271q0 10 10 10h2q10 0 10 -10v-269q0 -38 6.5 -67.5t23.5 -50t45.5 -31.5
t72.5 -11q33 0 61 10t52 26.5t43.5 38t34.5 43.5q5 7 5 15v296q0 10 10 10h2q10 0 10 -10v-369q0 -20 5 -33t16 -27q7 -7 0 -14q-59 -59 -59 -110q0 -19 10 -30t30 -11q32 0 61 13q4 3 8 -3l1 -2q1 -2 0 -4.5t-3 -3.5q-30 -17 -67 -17z" />
    <glyph glyph-name="Wcircumflex" unicode="&#x174;" horiz-adv-x="1054" 
d="M528 656q-1 2 -3 2t-3 -2l-206 -657q-4 -9 -13 -9h-2q-8 0 -12 9l-269 692q-2 3 0 6t6 3h5q9 0 13 -9l254 -660q1 -2 3 -1.5t3 2.5l207 658q3 10 13 10h3q10 0 13 -10l208 -657q0 -2 2 -2.5t3 1.5l253 659q4 9 13 9h5q4 0 6 -3t0 -6l-268 -692q-4 -9 -12 -9h-2
q-9 0 -13 9zM419 756q-5 5 0 10l99 96q7 7 14 0l99 -96q5 -5 0 -10l-1 -1q-5 -5 -10 -1l-89 79q-6 8 -12 0l-89 -79q-5 -4 -10 1z" />
    <glyph glyph-name="wcircumflex" unicode="&#x175;" horiz-adv-x="757" 
d="M530 0q-9 0 -13 9l-138 399q-1 2 -3 2t-3 -2l-136 -399q-4 -9 -13 -9h-3q-9 0 -14 9l-170 432q-2 3 0 6t6 3h4q9 0 13 -9l159 -407q1 -2 3 -1.5t3 2.5l138 406q4 9 13 9h2q9 0 13 -9l139 -406q1 -2 3 -2.5t3 1.5l158 407q4 9 13 9h3q4 0 6 -3t0 -6l-169 -432
q-4 -9 -14 -9h-3zM270 571q-5 5 0 10l99 96q7 7 14 0l99 -96q5 -5 0 -10l-1 -1q-5 -5 -10 0l-89 78q-6 8 -12 0l-89 -78q-5 -5 -10 0z" />
    <glyph glyph-name="Ycircumflex" unicode="&#x176;" 
d="M337 304q-5 -7 -5 -15v-279q0 -10 -10 -10h-2q-10 0 -10 10v277q0 8 -5 15l-301 390q-2 2 -0.5 5t4.5 3h9q10 0 16 -8l282 -368q2 -3 5 -3t5 3l281 368q6 8 16 8h8q3 0 4.5 -3t-0.5 -5zM213 756q-5 5 0 10l99 96q7 7 14 0l99 -96q5 -5 0 -10l-1 -1q-5 -5 -10 -1l-89 79
q-6 8 -12 0l-89 -79q-5 -4 -10 1z" />
    <glyph glyph-name="ycircumflex" unicode="&#x177;" horiz-adv-x="516" 
d="M474 450q4 0 6 -3t0 -6l-242 -500q-29 -59 -70 -95t-91 -62q-8 -4 -12 4l-1 1q-4 8 3 12q51 29 88 62.5t63 86.5l22 45q5 8 0 16l-208 430q-2 3 0 6t6 3h5q10 0 14 -9l196 -407q4 -6 8 0l195 407q4 9 14 9h4zM150 571q-5 5 0 10l99 96q7 7 14 0l99 -96q5 -5 0 -10l-1 -1
q-5 -5 -10 0l-89 78q-6 8 -12 0l-89 -78q-5 -5 -10 0z" />
    <glyph glyph-name="Ydieresis" unicode="&#x178;" 
d="M337 304q-5 -7 -5 -15v-279q0 -10 -10 -10h-2q-10 0 -10 10v277q0 8 -5 15l-301 390q-2 2 -0.5 5t4.5 3h9q10 0 16 -8l282 -368q2 -3 5 -3t5 3l281 368q6 8 16 8h8q3 0 4.5 -3t-0.5 -5zM205 750q-21 0 -21 21t21 21t21 -21t-21 -21zM432 750q-21 0 -21 21t21 21t21 -21
t-21 -21z" />
    <glyph glyph-name="Zacute" unicode="&#x179;" horiz-adv-x="628" 
d="M589 20q9 0 9 -9v-2q0 -9 -9 -9h-553q-9 0 -9 9v2q0 10 6 16l516 647q2 2 0.5 4t-3.5 2h-488q-9 0 -9 9v2q0 9 9 9h517q9 0 9 -9v-2q0 -10 -6 -16l-517 -647q-2 -2 -0.5 -4t3.5 -2h525zM264 757q-4 5 2 9l159 96q6 5 12 -3l1 -1q4 -8 -4 -12l-160 -93q-7 -2 -9 3z" />
    <glyph glyph-name="zacute" unicode="&#x17a;" horiz-adv-x="481" 
d="M437 20q9 0 9 -9v-2q0 -9 -9 -9h-395q-9 0 -9 9v2q0 9 6 15l359 398q2 2 0.5 4t-3.5 2h-336q-9 0 -9 9v2q0 9 9 9h364q9 0 9 -9v-2q0 -9 -6 -15l-360 -398q-2 -2 -0.5 -4t3.5 -2h368zM215 572q-2 2 -1 5t3 4l159 96q6 5 12 -3l1 -1q4 -8 -4 -12l-160 -93q-7 -2 -9 3z" />
    <glyph glyph-name="Zdotaccent" unicode="&#x17b;" horiz-adv-x="628" 
d="M589 20q9 0 9 -9v-2q0 -9 -9 -9h-553q-9 0 -9 9v2q0 10 6 16l516 647q2 2 0.5 4t-3.5 2h-488q-9 0 -9 9v2q0 9 9 9h517q9 0 9 -9v-2q0 -10 -6 -16l-517 -647q-2 -2 -0.5 -4t3.5 -2h525zM312 750q-21 0 -21 21t21 21t21 -21t-21 -21z" />
    <glyph glyph-name="zdotaccent" unicode="&#x17c;" horiz-adv-x="481" 
d="M437 20q9 0 9 -9v-2q0 -9 -9 -9h-395q-9 0 -9 9v2q0 9 6 15l359 398q2 2 0.5 4t-3.5 2h-336q-9 0 -9 9v2q0 9 9 9h364q9 0 9 -9v-2q0 -9 -6 -15l-360 -398q-2 -2 -0.5 -4t3.5 -2h368zM239 565q-21 0 -21 21t21 21t21 -21t-21 -21z" />
    <glyph glyph-name="Zcaron" unicode="&#x17d;" horiz-adv-x="628" 
d="M589 20q9 0 9 -9v-2q0 -9 -9 -9h-553q-9 0 -9 9v2q0 10 6 16l516 647q2 2 0.5 4t-3.5 2h-488q-9 0 -9 9v2q0 9 9 9h517q9 0 9 -9v-2q0 -10 -6 -16l-517 -647q-2 -2 -0.5 -4t3.5 -2h525zM328 757q-7 -7 -14 0l-99 96q-5 5 0 10l1 1q5 5 10 0l89 -80q6 -6 12 0l89 80
q5 5 10 0l1 -1q5 -5 0 -10z" />
    <glyph glyph-name="zcaron" unicode="&#x17e;" horiz-adv-x="481" 
d="M437 20q9 0 9 -9v-2q0 -9 -9 -9h-395q-9 0 -9 9v2q0 9 6 15l359 398q2 2 0.5 4t-3.5 2h-336q-9 0 -9 9v2q0 9 9 9h364q9 0 9 -9v-2q0 -9 -6 -15l-360 -398q-2 -2 -0.5 -4t3.5 -2h368zM254 572q-7 -7 -14 0l-99 96q-5 5 0 10l1 1q5 5 10 0l89 -80q6 -6 12 0l89 80
q5 5 10 0l1 -1q5 -5 0 -10z" />
    <glyph glyph-name="longs" unicode="&#x17f;" horiz-adv-x="243" 
d="M128 0q-10 0 -10 10v412q0 8 -8 8h-75q-9 0 -9 9v2q0 9 9 9h75q8 0 8 8v140q0 83 36 122.5t111 39.5q45 0 80 -9t65 -23q8 -2 4 -10v-2q-3 -7 -12 -5q-29 13 -61 20.5t-77 7.5q-63 0 -93.5 -33.5t-30.5 -107.5v-588q0 -10 -10 -10h-2z" />
    <glyph glyph-name="florin" unicode="&#x192;" horiz-adv-x="646" 
d="M98 -162q-18 0 -35 2t-32 5q-10 2 -6 10v2q3 9 12 7q14 -2 29.5 -3.5t34.5 -1.5q23 0 42.5 5t34.5 17t25 32.5t14 51.5l60 457q1 3 -1.5 5.5t-5.5 2.5h-74q-4 0 -6.5 3t-1.5 6v2q2 9 10 9h75q3 0 6 2.5t3 5.5l19 140q11 83 52 122.5t116 39.5q45 0 78.5 -8.5t62.5 -22.5
q3 -2 4 -5.5t-1 -5.5l-1 -2q-5 -7 -13 -4q-27 12 -57.5 19.5t-75.5 7.5q-63 0 -98 -33.5t-45 -107.5l-19 -140q-1 -3 1.5 -5.5t5.5 -2.5h206q10 0 8 -9v-2q-2 -9 -10 -9h-206q-3 0 -6 -2.5t-3 -5.5l-61 -457q-9 -71 -45 -99t-96 -28z" />
    <glyph glyph-name="AEacute" unicode="&#x1fc;" horiz-adv-x="1049" 
d="M9 0q-3 0 -5 3t0 6l424 682q4 9 15 9h538q9 0 9 -9v-2q0 -9 -9 -9h-415q-8 0 -8 -8v-300q0 -8 8 -8h341q9 0 9 -9v-2q0 -9 -9 -9h-341q-8 0 -8 -8v-308q0 -8 8 -8h419q9 0 9 -9v-2q0 -9 -9 -9h-439q-10 0 -10 10v326q0 8 -8 8h-282q-8 0 -13 -7l-203 -328q-5 -9 -15 -9
h-6zM455 680q-8 0 -13 -7l-187 -302q-2 -2 -0.5 -4.5t4.5 -2.5h269q8 0 8 8v300q0 8 -8 8h-73zM552 757q-4 5 2 9l159 96q6 5 12 -3l1 -1q4 -8 -4 -12l-160 -93q-7 -2 -9 3z" />
    <glyph glyph-name="aeacute" unicode="&#x1fd;" horiz-adv-x="894" 
d="M417 572q-2 2 -1 5t3 4l159 96q6 5 12 -3l1 -1q4 -8 -4 -12l-160 -93q-7 -2 -9 3zM72 123q0 -54 35.5 -83t101.5 -29q36 0 69.5 13.5t61.5 34.5t49.5 45.5t34.5 46.5q2 3 3 7.5t0 8.5q-2 11 -3 22.5t-2 23.5q0 8 -8 8h-216q-72 0 -99 -27.5t-27 -70.5zM817 252
q0 49 -9 84.5t-29.5 58t-54 33.5t-81.5 11q-91 0 -141.5 -48.5t-57.5 -139.5q0 -8 8 -8h362q3 0 3 3v6zM431 123q-15 -23 -38.5 -47t-52.5 -43t-62.5 -31t-68.5 -12q-77 0 -119 34.5t-42 98.5q0 25 7 47t24.5 38t46 25.5t72.5 9.5h216q8 0 8 8v28q0 37 -8 67t-26.5 50.5
t-49.5 31.5t-77 11q-51 0 -95 -11t-81 -31q-8 -4 -12 4l-1 2q-4 8 4 12q38 21 85 33t100 12q83 0 124 -31t52 -87q1 -2 2.5 -2t2.5 2q25 57 75.5 87.5t125.5 30.5q56 0 94 -13t61 -38.5t33 -63.5t10 -89v-25q0 -10 -10 -10h-379q-8 0 -8 -8q3 -99 55.5 -150.5t147.5 -51.5
q47 0 89 12t74 29q7 4 11 -4l1 -2q4 -8 -3 -11q-34 -19 -78 -32t-94 -13q-80 0 -133 34t-76 98q-1 3 -3 3t-4 -2z" />
    <glyph glyph-name="Oslashacute" unicode="&#x1fe;" horiz-adv-x="824" 
d="M150 88q-44 46 -67.5 111t-23.5 150q0 86 25 153t71 113.5t111 70.5t146 24q141 0 232 -73q2 -2 6 -1.5t6 2.5l69 77q6 7 14 1l1 -2q8 -6 1 -13l-68 -77q-6 -7 0 -13q44 -46 68 -112t24 -150q0 -86 -25 -153t-71 -112.5t-111 -69.5t-146 -24q-143 0 -234 73q-6 5 -12 -1
l-67 -75q-5 -7 -13 -1l-2 1q-7 5 -1 13l67 75q3 3 2.5 7t-2.5 6zM412 689q-76 0 -137 -23t-103.5 -66.5t-65.5 -107t-23 -143.5q0 -78 21.5 -139t61.5 -105q6 -6 12 0l452 504q2 2 1.5 6t-2.5 6q-42 33 -96.5 50.5t-120.5 17.5zM412 11q76 0 136.5 22.5t103.5 66t66 106.5
t23 143q0 78 -21.5 139.5t-62.5 105.5q-2 2 -5.5 2t-5.5 -2l-454 -503q-2 -2 -1.5 -6t2.5 -6q85 -68 219 -68zM380 757q-4 5 2 9l159 96q6 5 12 -3l1 -1q4 -8 -3 -12l-161 -93q-6 -2 -9 3z" />
    <glyph glyph-name="oslashacute" unicode="&#x1ff;" horiz-adv-x="578" 
d="M118 52q-31 30 -47.5 73t-16.5 100q0 56 16.5 100t47.5 74t74.5 45.5t96.5 15.5q83 0 141 -38q7 -6 13 2l55 64q2 4 6.5 4t7.5 -2l2 -1q8 -6 2 -14l-56 -65q-6 -6 0 -13q30 -30 47 -73t17 -99t-17 -100t-47.5 -74t-74 -45.5t-96.5 -15.5q-84 0 -142 38q-7 6 -13 -2
l-54 -64q-6 -8 -14 -2l-1 2q-8 4 -2 12l55 65q6 6 0 13zM289 439q-98 0 -154.5 -55t-56.5 -159q0 -51 14 -90t40 -66q2 -2 5.5 -2t5.5 2l275 325q2 2 1.5 5.5t-3.5 5.5q-50 34 -127 34zM289 11q98 0 154.5 55t56.5 159q0 100 -54 156q-6 5 -11 0l-276 -326q-2 -2 -1.5 -5.5
t3.5 -5.5q51 -33 128 -33zM243 572q-2 7 3 9l159 96q6 5 12 -3l1 -1q4 -8 -4 -12l-160 -93q-7 -2 -9 3z" />
    <glyph glyph-name="uni0218" unicode="&#x218;" horiz-adv-x="597" 
d="M286 -10q-60 0 -121 11t-105 34q-8 6 -4 13l1 2q6 9 13 4q21 -11 47 -19t54.5 -13t57.5 -8t57 -3q47 0 89.5 11t74.5 33t51 53t19 72q0 52 -20 83.5t-52 50.5t-72.5 28.5t-82.5 18.5q-43 9 -85 19.5t-75 29t-53 50t-20 82.5q0 42 17 73.5t47.5 52.5t72.5 31.5t93 10.5
q60 0 116 -11.5t106 -32.5q9 -4 5 -12l-1 -2q-4 -9 -13 -5q-47 20 -101.5 31t-111.5 11q-45 0 -83 -9t-65.5 -27.5t-42.5 -46t-15 -64.5q0 -44 18.5 -71t49 -43.5t69 -25.5t77.5 -17q45 -9 89 -20t79 -32.5t56.5 -57.5t21.5 -95q0 -47 -21 -82.5t-56.5 -59.5t-82.5 -36
t-98 -12zM292 -82q-7 6 -7 17q0 21 21 21t21 -21q0 -22 -9.5 -39.5t-23.5 -29.5q-6 -4 -11 1l-2 1q-5 5 0 10q11 13 16 25q3 10 -5 15z" />
    <glyph glyph-name="uni0219" unicode="&#x219;" horiz-adv-x="469" 
d="M262 247q32 -5 61.5 -13t52 -22.5t36 -37.5t13.5 -57q0 -30 -14 -53.5t-39 -40t-59.5 -25t-76.5 -8.5t-89 7t-84 22q-3 2 -5 5.5t0 6.5l1 2q3 7 11 5q35 -13 78 -20t88 -7q75 0 120 27.5t45 78.5q0 28 -11 47t-30 30.5t-44.5 18t-55.5 11.5q-35 5 -72 11t-68 18.5
t-50.5 34t-19.5 57.5q0 30 15 51.5t40.5 35.5t59.5 21t72 7q32 0 72.5 -6t78.5 -20q8 -2 6 -12l-1 -2q-3 -8 -12 -6q-34 12 -72.5 18.5t-71.5 6.5t-63 -5.5t-52 -16.5t-35 -29t-13 -43q0 -30 17.5 -47t44.5 -27t60.5 -14.5t65.5 -9.5zM236 -82q-7 7 -7 17q0 21 21 21t21 -21
q0 -22 -9 -39.5t-24 -29.5q-6 -4 -11 1l-2 1q-4 6 0 10q11 13 16 25q3 10 -5 15z" />
    <glyph glyph-name="uni0237" unicode="&#x237;" horiz-adv-x="188" 
d="M92 450q10 0 10 -10v-438q0 -66 -20 -117.5t-54 -97.5q-2 -3 -5.5 -3.5t-6.5 1.5l-2 2q-3 2 -3.5 5.5t1.5 6.5q34 48 51 95.5t17 107.5v438q0 10 10 10h2z" />
    <glyph glyph-name="circumflex" unicode="&#x2c6;" horiz-adv-x="422" 
d="M103 571q-5 5 0 10l99 96q7 7 14 0l99 -96q5 -5 0 -10l-1 -1q-5 -5 -10 0l-89 78q-6 8 -12 0l-89 -78q-5 -5 -10 0z" />
    <glyph glyph-name="caron" unicode="&#x2c7;" horiz-adv-x="422" 
d="M216 572q-7 -7 -14 0l-99 96q-5 5 0 10l1 1q5 5 10 0l89 -80q6 -6 12 0l89 80q5 5 10 0l1 -1q5 -5 0 -10z" />
    <glyph glyph-name="breve" unicode="&#x2d8;" horiz-adv-x="396" 
d="M295 644q-6 -37 -32 -58t-65 -21q-38 0 -65 21t-32 59q-1 2 1.5 4.5t4.5 2.5h2q7 0 9 -7q6 -31 28.5 -47t51.5 -16t51 16t28 46q2 8 9 8h2q3 0 5.5 -2.5t1.5 -5.5z" />
    <glyph glyph-name="dotaccent" unicode="&#x2d9;" horiz-adv-x="211" 
d="M104 565q-21 0 -21 21t21 21t21 -21t-21 -21z" />
    <glyph glyph-name="ring" unicode="&#x2da;" horiz-adv-x="346" 
d="M173 564q-33 0 -53 19t-20 54t20 54t53 19t53 -19t20 -54t-20 -54t-53 -19zM173 694q-26 0 -41 -14.5t-15 -42.5t15 -42.5t41 -14.5q55 0 55 57t-55 57z" />
    <glyph glyph-name="ogonek" unicode="&#x2db;" horiz-adv-x="332" 
d="M100 -113q0 26 13.5 51t34.5 48q5 7 15 7h2q3 0 4 -2.5t-1 -4.5q-20 -23 -34 -49t-14 -50q0 -19 10 -30t30 -11q32 0 61 13q4 3 8 -3v-2q2 -2 1 -4.5t-3 -3.5q-30 -17 -67 -17q-60 0 -60 58z" />
    <glyph glyph-name="tilde" unicode="&#x2dc;" horiz-adv-x="469" 
d="M161 637q25 0 43 -8.5t34 -18.5t32 -18.5t37 -8.5q20 0 30 12t12 29q0 9 10 9h2q3 0 5.5 -3t2.5 -6q-3 -26 -19.5 -42.5t-42.5 -16.5q-24 0 -42 8.5t-34 18t-32.5 18t-37.5 8.5q-20 0 -30 -12.5t-12 -29.5q0 -8 -9 -8h-2q-8 0 -8 8q3 28 19 44.5t42 16.5z" />
    <glyph glyph-name="hungarumlaut" unicode="&#x2dd;" horiz-adv-x="529" 
d="M102 572q-4 6 2 10l143 95q3 2 6.5 1t5.5 -4l1 -1q6 -8 -3 -13l-144 -91q-6 -4 -10 2zM258 572q-4 6 2 10l149 95q3 2 6.5 1t5.5 -4l1 -1q6 -8 -3 -13l-150 -91q-6 -4 -10 2z" />
    <glyph glyph-name="pi" unicode="&#x3c0;" horiz-adv-x="598" 
d="M101 9q13 14 18 28t5 34v352q0 8 -8 8q-29 -2 -50 -9.5t-30 -12.5q-8 -4 -11 3l-1 2q-4 6 2 10q11 6 36 16t61 10h437q8 0 8 -8v-2q0 -9 -8 -9h-70q-8 0 -8 -8v-413q0 -10 -10 -10h-2q-10 0 -10 10v413q0 8 -8 8h-298q-8 0 -8 -8v-358q0 -42 -29 -69q-7 -5 -13 -1l-2 2
q-7 6 -1 12z" />
    <glyph glyph-name="Wgrave" unicode="&#x1e80;" horiz-adv-x="1054" 
d="M528 656q-1 2 -3 2t-3 -2l-206 -657q-4 -9 -13 -9h-2q-8 0 -12 9l-269 692q-2 3 0 6t6 3h5q9 0 13 -9l254 -660q1 -2 3 -1.5t3 2.5l207 658q3 10 13 10h3q10 0 13 -10l208 -657q0 -2 2 -2.5t3 1.5l253 659q4 9 13 9h5q4 0 6 -3t0 -6l-268 -692q-4 -9 -12 -9h-2
q-9 0 -13 9zM381 859q4 8 11 3l159 -96q5 -3 3 -9l-2 -1q-2 -5 -9 -3l-160 93q-8 4 -4 12z" />
    <glyph glyph-name="wgrave" unicode="&#x1e81;" horiz-adv-x="757" 
d="M530 0q-9 0 -13 9l-138 399q-1 2 -3 2t-3 -2l-136 -399q-4 -9 -13 -9h-3q-9 0 -14 9l-170 432q-2 3 0 6t6 3h4q9 0 13 -9l159 -407q1 -2 3 -1.5t3 2.5l138 406q4 9 13 9h2q9 0 13 -9l139 -406q1 -2 3 -2.5t3 1.5l158 407q4 9 13 9h3q4 0 6 -3t0 -6l-169 -432
q-4 -9 -14 -9h-3zM210 674q6 8 12 3l159 -96q2 -1 3 -4t-1 -5l-1 -1q-2 -5 -9 -3l-160 93q-8 4 -4 12z" />
    <glyph glyph-name="Wacute" unicode="&#x1e82;" horiz-adv-x="1054" 
d="M528 656q-1 2 -3 2t-3 -2l-206 -657q-4 -9 -13 -9h-2q-8 0 -12 9l-269 692q-2 3 0 6t6 3h5q9 0 13 -9l254 -660q1 -2 3 -1.5t3 2.5l207 658q3 10 13 10h3q10 0 13 -10l208 -657q0 -2 2 -2.5t3 1.5l253 659q4 9 13 9h5q4 0 6 -3t0 -6l-268 -692q-4 -9 -12 -9h-2
q-9 0 -13 9zM497 757q-2 6 3 9l159 96q6 5 12 -3l1 -1q4 -8 -4 -12l-160 -93q-7 -2 -9 3z" />
    <glyph glyph-name="wacute" unicode="&#x1e83;" horiz-adv-x="757" 
d="M530 0q-9 0 -13 9l-138 399q-1 2 -3 2t-3 -2l-136 -399q-4 -9 -13 -9h-3q-9 0 -14 9l-170 432q-2 3 0 6t6 3h4q9 0 13 -9l159 -407q1 -2 3 -1.5t3 2.5l138 406q4 9 13 9h2q9 0 13 -9l139 -406q1 -2 3 -2.5t3 1.5l158 407q4 9 13 9h3q4 0 6 -3t0 -6l-169 -432
q-4 -9 -14 -9h-3zM376 572q-2 2 -1 5t3 4l159 96q6 5 12 -3l1 -1q4 -8 -4 -12l-160 -93q-7 -2 -9 3z" />
    <glyph glyph-name="Wdieresis" unicode="&#x1e84;" horiz-adv-x="1054" 
d="M528 656q-1 2 -3 2t-3 -2l-206 -657q-4 -9 -13 -9h-2q-8 0 -12 9l-269 692q-2 3 0 6t6 3h5q9 0 13 -9l254 -660q1 -2 3 -1.5t3 2.5l207 658q3 10 13 10h3q10 0 13 -10l208 -657q0 -2 2 -2.5t3 1.5l253 659q4 9 13 9h5q4 0 6 -3t0 -6l-268 -692q-4 -9 -12 -9h-2
q-9 0 -13 9zM638 750q-21 0 -21 21t21 21t21 -21t-21 -21zM411 750q-21 0 -21 21t21 21t21 -21t-21 -21z" />
    <glyph glyph-name="wdieresis" unicode="&#x1e85;" horiz-adv-x="757" 
d="M530 0q-9 0 -13 9l-138 399q-1 2 -3 2t-3 -2l-136 -399q-4 -9 -13 -9h-3q-9 0 -14 9l-170 432q-2 3 0 6t6 3h4q9 0 13 -9l159 -407q1 -2 3 -1.5t3 2.5l138 406q4 9 13 9h2q9 0 13 -9l139 -406q1 -2 3 -2.5t3 1.5l158 407q4 9 13 9h3q4 0 6 -3t0 -6l-169 -432
q-4 -9 -14 -9h-3zM490 568q-21 0 -21 21t21 21t21 -21t-21 -21zM263 568q-21 0 -21 21t21 21t21 -21t-21 -21z" />
    <glyph glyph-name="Ygrave" unicode="&#x1ef2;" 
d="M337 304q-5 -7 -5 -15v-279q0 -10 -10 -10h-2q-10 0 -10 10v277q0 8 -5 15l-301 390q-2 2 -0.5 5t4.5 3h9q10 0 16 -8l282 -368q2 -3 5 -3t5 3l281 368q6 8 16 8h8q3 0 4.5 -3t-0.5 -5zM176 859q6 8 12 3l159 -96q6 -4 2 -9l-1 -1q-2 -5 -9 -3l-160 93q-8 4 -4 12z" />
    <glyph glyph-name="ygrave" unicode="&#x1ef3;" horiz-adv-x="516" 
d="M474 450q4 0 6 -3t0 -6l-242 -500q-29 -59 -70 -95t-91 -62q-8 -4 -12 4l-1 1q-4 8 3 12q51 29 88 62.5t63 86.5l22 45q5 8 0 16l-208 430q-2 3 0 6t6 3h5q10 0 14 -9l196 -407q4 -6 8 0l195 407q4 9 14 9h4zM151 674q2 3 5.5 4t5.5 -1l159 -96q5 -2 3 -9l-1 -1
q-3 -5 -10 -3l-160 93q-3 2 -4 5.5t1 6.5z" />
    <glyph glyph-name="endash" unicode="&#x2013;" horiz-adv-x="533" 
d="M449 272q9 0 9 -9v-2q0 -9 -9 -9h-365q-9 0 -9 9v2q0 9 9 9h365z" />
    <glyph glyph-name="emdash" unicode="&#x2014;" horiz-adv-x="746" 
d="M662 272q9 0 9 -9v-2q0 -9 -9 -9h-578q-9 0 -9 9v2q0 9 9 9h578z" />
    <glyph glyph-name="quoteleft" unicode="&#x2018;" horiz-adv-x="159" 
d="M109 687q-12 -22 -18.5 -50t-7.5 -53q0 -10 -10 -10h-3q-10 0 -10 10q2 30 12 61t24 50q3 4 9 2l2 -1q4 -4 2 -9z" />
    <glyph glyph-name="quoteright" unicode="&#x2019;" horiz-adv-x="157" 
d="M57 587q12 22 18 50t8 53q0 10 10 10h3q4 0 7 -3t2 -7q-2 -29 -12 -60t-23 -51q-4 -4 -9 -1l-2 1q-5 3 -2 8z" />
    <glyph glyph-name="quotesinglbase" unicode="&#x201a;" horiz-adv-x="153" 
d="M38 -81q12 22 18 50t8 53q0 10 10 10h3q4 0 7 -3t2 -7q-2 -30 -12 -61t-23 -50q-2 -2 -4.5 -2.5t-4.5 0.5l-2 1q-6 4 -2 9z" />
    <glyph glyph-name="quotedblleft" unicode="&#x201c;" horiz-adv-x="247" 
d="M196 687q-12 -22 -18 -50t-7 -53q0 -10 -11 -10h-2q-10 0 -10 10q2 30 12 61t24 50q3 4 9 2l1 -1q6 -4 2 -9zM109 687q-12 -22 -18.5 -50t-7.5 -53q0 -10 -10 -10h-3q-10 0 -10 10q2 30 12 61t24 50q3 4 9 2l2 -1q4 -4 2 -9z" />
    <glyph glyph-name="quotedblright" unicode="&#x201d;" horiz-adv-x="245" 
d="M145 587q12 22 18 50t8 53q0 10 10 10h3q4 0 7 -3t2 -7q-2 -29 -12 -60t-24 -51q-1 -2 -3.5 -2.5t-4.5 1.5l-2 1q-5 3 -2 8zM57 587q12 22 18 50t8 53q0 10 10 10h3q4 0 7 -3t2 -7q-2 -29 -12 -60t-23 -51q-4 -4 -9 -1l-2 1q-5 3 -2 8z" />
    <glyph glyph-name="quotedblbase" unicode="&#x201e;" horiz-adv-x="241" 
d="M126 -81q12 22 18 50t8 53q0 10 10 10h3q4 0 7 -3t2 -7q-2 -30 -12 -61t-24 -50q-1 -2 -3.5 -2.5t-4.5 0.5l-2 1q-6 4 -2 9zM38 -81q12 22 18 50t8 53q0 10 10 10h3q4 0 7 -3t2 -7q-2 -30 -12 -61t-23 -50q-2 -2 -4.5 -2.5t-4.5 0.5l-2 1q-6 4 -2 9z" />
    <glyph glyph-name="dagger" unicode="&#x2020;" horiz-adv-x="407" 
d="M361 450q9 0 9 -9v-2q0 -9 -9 -9h-139q-8 0 -8 -8v-622q0 -10 -10 -10h-2q-10 0 -10 10v622q0 8 -8 8h-138q-9 0 -9 9v2q0 9 9 9h138q8 0 8 8v232q0 10 10 10h2q10 0 10 -10v-232q0 -8 8 -8h139z" />
    <glyph glyph-name="daggerdbl" unicode="&#x2021;" horiz-adv-x="411" 
d="M363 183q9 0 9 -9v-2q0 -9 -9 -9h-139q-8 0 -8 -8v-355q0 -10 -10 -10h-2q-10 0 -10 10v355q0 8 -8 8h-138q-9 0 -9 9v2q0 9 9 9h138q8 0 8 8v231q0 8 -8 8h-138q-9 0 -9 9v2q0 9 9 9h138q8 0 8 8v232q0 10 10 10h2q10 0 10 -10v-232q0 -8 8 -8h139q9 0 9 -9v-2
q0 -9 -9 -9h-139q-8 0 -8 -8v-231q0 -8 8 -8h139z" />
    <glyph glyph-name="bullet" unicode="&#x2022;" horiz-adv-x="298" 
d="M149 272q-23 0 -36.5 13.5t-13.5 36.5t13.5 36.5t36.5 13.5t36.5 -13.5t13.5 -36.5t-13.5 -36.5t-36.5 -13.5z" />
    <glyph glyph-name="ellipsis" unicode="&#x2026;" horiz-adv-x="582" 
d="M80 -10q-21 0 -21 21t21 21t21 -21t-21 -21zM291 -10q-21 0 -21 21t21 21t21 -21t-21 -21zM502 -10q-21 0 -21 21t21 21t21 -21t-21 -21z" />
    <glyph glyph-name="perthousand" unicode="&#x2030;" horiz-adv-x="1184" 
d="M129 -4q-6 4 -2 12l534 695q6 8 13 2l1 -1q7 -5 2 -12l-534 -695q-5 -7 -12 -2zM200 339q-84 0 -120 48t-36 137q0 90 36 138t120 48q83 0 118.5 -47.5t35.5 -138.5q0 -90 -35.5 -137.5t-118.5 -47.5zM200 690q-74 0 -105 -43t-31 -123t31 -122.5t105 -42.5
q73 0 103 42.5t30 122.5q0 81 -30 123.5t-103 42.5zM606 -10q-84 0 -120 48t-36 137q0 90 36 138t120 48q83 0 118.5 -47.5t35.5 -138.5q0 -90 -35.5 -137.5t-118.5 -47.5zM606 341q-74 0 -105 -43t-31 -123t31 -122.5t105 -42.5q73 0 103 42.5t30 122.5q0 81 -30 123.5
t-103 42.5zM994 -14q-84 0 -120 48t-36 137q0 90 36 138t120 48q83 0 118.5 -47.5t35.5 -138.5q0 -90 -35.5 -137.5t-118.5 -47.5zM994 337q-74 0 -105 -43t-31 -123t31 -122.5t105 -42.5q73 0 103 42.5t30 122.5q0 81 -30 123.5t-103 42.5z" />
    <glyph glyph-name="guilsinglleft" unicode="&#x2039;" horiz-adv-x="274" 
d="M205 53q-8 -6 -14 2l-139 172q-5 8 0 16l139 172q6 8 14 2l2 -3q3 -2 3.5 -6.5t-2.5 -7.5l-129 -158q-5 -7 0 -14l129 -158q3 -3 2.5 -7.5t-3.5 -6.5z" />
    <glyph glyph-name="guilsinglright" unicode="&#x203a;" horiz-adv-x="274" 
d="M216 243q5 -8 0 -16l-139 -172q-6 -8 -14 -2l-2 3q-8 6 -2 14l130 158q5 7 0 14l-130 158q-6 8 2 14l2 3q8 6 14 -2z" />
    <glyph glyph-name="fraction" unicode="&#x2044;" horiz-adv-x="398" 
d="M3 -5q-8 6 -4 13l379 694q6 7 14 4l1 -1q9 -6 4 -13l-380 -694q-2 -3 -5.5 -4t-6.5 1h-2z" />
    <glyph glyph-name="uni2070" unicode="&#x2070;" horiz-adv-x="446" 
d="M224 312q-90 0 -127.5 50.5t-37.5 145.5q0 94 37.5 145t127.5 51q89 0 126 -51t37 -145q0 -95 -37 -145.5t-126 -50.5zM224 685q-78 0 -111 -46t-33 -131t33 -131t111 -46q77 0 109.5 46t32.5 131t-32.5 131t-109.5 46z" />
    <glyph glyph-name="Euro" unicode="&#x20ac;" horiz-adv-x="470" 
d="M397 2q-18 -5 -41.5 -8.5t-46.5 -3.5q-87 0 -137.5 40t-67.5 116q-2 8 -11 8h-37q-4 0 -6 3t-1 6l1 2q4 9 13 9h27q8 0 8 8q-1 11 -1.5 21.5t-0.5 21.5t0.5 21.5t1.5 21.5q0 8 -8 8h-34q-4 0 -6 3t-1 6l1 2q4 9 13 9h30q9 0 11 8q17 75 67.5 115.5t137.5 40.5
q27 0 51.5 -5t43.5 -12q3 -1 5 -4.5t0 -6.5v-2q-3 -8 -11 -6q-19 7 -42 11t-47 4q-75 0 -120 -34.5t-60 -100.5q-2 -8 6 -8h216q4 0 6 -3t1 -6l-1 -2q-4 -9 -13 -9h-213q-3 0 -6 -2.5t-3 -5.5q-2 -11 -2 -21.5v-21.5v-21.5t2 -21.5q0 -3 3 -5.5t6 -2.5h220q4 0 6 -3t1 -6
l-1 -2q-4 -9 -13 -9h-209q-8 0 -6 -8q15 -66 60 -100.5t120 -34.5q25 0 45.5 2.5t42.5 8.5q9 2 9 -6v-2q0 -8 -9 -12z" />
    <glyph glyph-name="trademark" unicode="&#x2122;" horiz-adv-x="926" 
d="M473 318q-9 0 -9 9v365q0 9 9 9h2q9 0 14 -7l153 -213q5 -7 10 0l157 214q3 6 12 6h2q7 0 7 -7v-373q0 -8 -8 -8h-2q-9 0 -9 8v335q0 7 -5 2l-148 -202q-3 -5 -9 -5h-2q-6 0 -9 5l-148 202q-5 5 -5 -2v-329q0 -9 -10 -9h-2zM58 682q-8 0 -8 9v2q0 8 8 8h331q8 0 8 -8v-2
q0 -9 -8 -9h-147q-8 0 -8 -8v-352q0 -9 -10 -9h-2q-9 0 -9 9v352q0 8 -8 8h-147z" />
    <glyph glyph-name="Omega" unicode="&#x2126;" horiz-adv-x="738" 
d="M661 20q9 0 9 -9v-2q0 -9 -9 -9h-146q-9 0 -9 9v2q0 9 5 16q27 40 52 83.5t44 89.5t30 94.5t11 97.5q0 69 -16.5 124t-51 93.5t-87 59t-124.5 20.5t-124.5 -20.5t-87 -59t-51 -93.5t-16.5 -124q0 -49 11 -97.5t30 -94.5t43.5 -89.5t51.5 -83.5q5 -7 5 -16v-2q0 -9 -9 -9
h-146q-9 0 -9 9v2q0 9 9 9h121q2 0 3.5 2.5t-0.5 4.5q-24 37 -48 81t-43 91.5t-31 96t-12 96.5q0 75 18.5 134t56 100t94.5 62.5t134 21.5t134 -21.5t94.5 -62.5t56 -100t18.5 -134q0 -48 -12 -96.5t-31 -96t-43 -91.5t-48 -81q-2 -2 -0.5 -4.5t3.5 -2.5h120z" />
    <glyph glyph-name="onethird" unicode="&#x2153;" horiz-adv-x="747" 
d="M144 -5q-8 6 -4 13l379 694q6 8 13 4l2 -1q9 -6 4 -13l-380 -694q-2 -3 -5.5 -4t-6.5 1h-2zM691 96q0 25 -15 41.5t-39.5 27t-54.5 16t-60 8.5q-7 2 -7 8v2q0 7 7 9q24 6 47 15.5t41 21.5t29 26.5t11 31.5q0 28 -27.5 42t-78.5 14q-26 0 -55.5 -4t-56.5 -10q-7 -2 -9 6
l-1 2q-2 7 5 9q29 8 60 12t57 4q60 0 94 -19.5t34 -55.5q0 -18 -10 -34.5t-26.5 -29t-38 -22t-43.5 -14.5q-2 -2 0 -2q30 -1 58.5 -7.5t51 -19.5t36 -32t13.5 -46q0 -44 -39.5 -75t-127.5 -31q-40 0 -71 4t-63 12q-8 2 -6 10l1 2q2 8 10 6q30 -7 60 -11t69 -4
q70 0 107.5 24.5t37.5 62.5zM69 639q-8 -4 -13 4l-1 1q-5 8 3 14l82 50q4 2 8 2h2q5 0 5 -4v-352q0 -8 8 -8h71q9 0 9 -9v-2q0 -9 -9 -9h-178q-9 0 -9 9v2q0 9 9 9h71q8 0 8 8v317q0 3 -2.5 4.5t-4.5 -0.5z" />
    <glyph glyph-name="partialdiff" unicode="&#x2202;" horiz-adv-x="556" 
d="M69 226q0 -53 14 -93t39.5 -67t61 -41t77.5 -14q53 0 90.5 21t61.5 59t36 90t14 115q0 7 -4 15q-45 69 -95.5 98.5t-107.5 29.5q-87 0 -137 -53.5t-50 -159.5zM250 710q-32 0 -63 -7.5t-51 -17.5q-8 -5 -13 4l-1 1q-4 7 4 13q23 11 56.5 20.5t68.5 9.5q125 0 180.5 -101
t55.5 -308q0 -73 -12 -134.5t-38.5 -105.5t-69.5 -69t-106 -25q-46 0 -85.5 15t-68.5 45t-45.5 74t-16.5 102t15 101.5t43 73t66.5 44.5t86.5 15q120 0 202 -114q2 -2 3.5 -1.5t1.5 2.5q-3 184 -52 273.5t-161 89.5z" />
    <glyph glyph-name="Delta" unicode="&#x2206;" horiz-adv-x="690" 
d="M28 11q0 10 4 17l301 675q3 7 11 7h2q7 0 11 -7l301 -675q4 -7 4 -17v-2q0 -9 -9 -9h-616q-9 0 -9 9v2zM348 676q-1 2 -3 2t-3 -2l-287 -648q-2 -8 5 -8h571q3 0 5 2.5t0 5.5z" />
    <glyph glyph-name="product" unicode="&#x220f;" horiz-adv-x="695" 
d="M160 -119q-10 0 -10 10v781q0 8 -8 8h-103q-9 0 -9 9v2q0 9 9 9h617q9 0 9 -9v-2q0 -9 -9 -9h-103q-8 0 -8 -8v-781q0 -10 -10 -10h-2q-10 0 -10 10v781q0 8 -8 8h-335q-8 0 -8 -8v-781q0 -10 -10 -10h-2z" />
    <glyph glyph-name="summation" unicode="&#x2211;" horiz-adv-x="606" 
d="M39 675q-6 6 -6 15v2q0 8 8 8h518q9 0 9 -9v-2q0 -9 -9 -9h-485q-2 0 -3.5 -2t0.5 -4l348 -376q7 -7 0 -14l-348 -376q-2 -2 -0.5 -4t3.5 -2h485q9 0 9 -9v-2q0 -9 -9 -9h-518q-8 0 -8 8v2q0 9 6 15l349 378q8 6 0 12z" />
    <glyph glyph-name="minus" unicode="&#x2212;" horiz-adv-x="507" 
d="M419 272q9 0 9 -9v-2q0 -9 -9 -9h-331q-9 0 -9 9v2q0 9 9 9h331z" />
    <glyph glyph-name="radical" unicode="&#x221a;" horiz-adv-x="559" 
d="M69 351q4 4 11 4h2q6 0 8 -5l131 -316q1 -2 3 -2t3 2l306 707q4 9 14 9h4q4 0 6 -3t0 -6l-319 -732q-5 -9 -14 -9h-2q-8 0 -13 9l-132 313q-1 3 -4 4t-6 -1l-46 -33q-7 -5 -12 2l-1 1q-5 8 2 13z" />
    <glyph glyph-name="infinity" unicode="&#x221e;" horiz-adv-x="1111" 
d="M852 437q94 0 144 -53t50 -142t-50 -142t-144 -53q-40 0 -80 13t-77.5 36t-71.5 54t-63 67q-4 7 -10 -1q-28 -36 -61.5 -66.5t-71 -53.5t-78 -36t-80.5 -13q-94 0 -144 53t-50 142t50 142t144 53q40 0 80 -13t77.5 -36t71.5 -53.5t63 -66.5q6 -8 10 0q28 36 62 66.5
t71.5 53.5t77.5 36t80 13zM852 68q85 0 127.5 47t42.5 127t-42.5 127t-127.5 47q-38 0 -76.5 -13t-74.5 -35.5t-68.5 -52.5t-57.5 -65q-5 -7 0 -14q25 -35 57.5 -65.5t68.5 -53.5t74.5 -36t76.5 -13zM259 416q-85 0 -127.5 -47t-42.5 -127t42.5 -127t127.5 -47q38 0 76.5 13
t74.5 35.5t68 52.5t58 65q5 7 0 14q-26 35 -58 65.5t-68 53.5t-74.5 36t-76.5 13z" />
    <glyph glyph-name="integral" unicode="&#x222b;" horiz-adv-x="245" 
d="M50 -230q42 2 62.5 22t20.5 65q0 51 -3.5 114.5t-8.5 134t-11.5 144t-11.5 144t-8.5 134.5t-3.5 115q0 33 9 53.5t24 32.5t34 16.5t40 4.5h7q5 0 5 -5l-2 -6q-1 -3 -2.5 -6t-5.5 -3h-3q-42 -2 -62.5 -22t-20.5 -65q0 -51 3.5 -115t8.5 -134t11.5 -143.5t11.5 -143.5
t8.5 -134.5t3.5 -115.5q0 -33 -9 -53.5t-24 -32.5t-34 -16.5t-40 -4.5h-8q-4 0 -4 5l2 6q1 3 3 6t5 3h3v0z" />
    <glyph glyph-name="approxequal" unicode="&#x2248;" horiz-adv-x="490" 
d="M155 380q30 0 52.5 -10.5t43 -23t41 -23t46.5 -10.5t38 15.5t14 37.5q0 9 10 9h2q4 0 6.5 -3t2.5 -6q-2 -35 -21.5 -53.5t-53.5 -18.5q-29 0 -51 10.5t-42 22.5t-41.5 22.5t-48.5 10.5q-26 0 -38 -16t-14 -37q0 -9 -9 -9h-2q-4 0 -6.5 3t-2.5 6q2 35 22 54t52 19z
M155 228q30 0 52.5 -10.5t43 -23t41 -23t46.5 -10.5t38 15.5t14 37.5q0 9 10 9h2q4 0 6.5 -3t2.5 -6q-2 -35 -21.5 -53.5t-53.5 -18.5q-29 0 -51 10.5t-42 22.5t-41.5 22.5t-48.5 10.5q-26 0 -38 -16t-14 -37q0 -9 -9 -9h-2q-4 0 -6.5 3t-2.5 6q2 35 22 54t52 19z" />
    <glyph glyph-name="notequal" unicode="&#x2260;" horiz-adv-x="467" 
d="M390 183q9 0 9 -9v-2q0 -9 -9 -9h-174q-8 0 -11 -8l-40 -113q-4 -9 -12 -6h-2q-8 3 -6 12l38 107q2 3 0 5.5t-5 2.5h-103q-9 0 -9 9v2q0 9 9 9h110q8 0 11 8l48 138q2 3 0 5.5t-5 2.5h-164q-9 0 -9 9v2q0 9 9 9h171q8 0 11 8l41 114q4 9 13 6h1q9 -3 7 -12l-39 -108
q-2 -3 0 -5.5t5 -2.5h105q9 0 9 -9v-2q0 -9 -9 -9h-112q-8 0 -11 -8l-49 -138q-2 -3 0 -5.5t5 -2.5h167z" />
    <glyph glyph-name="lessequal" unicode="&#x2264;" horiz-adv-x="445" 
d="M363 134q-6 -8 -14 -2l-288 227q-8 6 0 12l288 227q8 6 14 -2l1 -1q6 -8 -2 -14l-269 -211q-2 -2 -2 -5t2 -5l269 -211q8 -6 2 -14zM374 20q9 0 9 -9v-2q0 -9 -9 -9h-312q-9 0 -9 9v2q0 9 9 9h312z" />
    <glyph glyph-name="greaterequal" unicode="&#x2265;" horiz-adv-x="445" 
d="M384 371q8 -6 0 -12l-289 -227q-7 -6 -13 2l-1 1q-6 8 2 14l268 211q2 2 2 5t-2 5l-268 211q-8 6 -2 14l1 1q6 8 13 2zM71 0q-9 0 -9 9v2q0 9 9 9h312q9 0 9 -9v-2q0 -9 -9 -9h-312z" />
    <glyph glyph-name="lozenge" unicode="&#x25ca;" horiz-adv-x="592" 
d="M293 -10q-9 0 -12 7l-246 365q-6 8 0 16l246 365q3 7 12 7h2q8 0 12 -7l246 -365q6 -8 0 -16l-246 -365q-4 -7 -12 -7h-2zM58 377q-4 -7 0 -14l231 -344q5 -7 10 0l230 344q3 7 0 14l-230 344q-5 7 -10 0z" />
    <glyph glyph-name="uniF6C3" unicode="&#xf6c3;" horiz-adv-x="251" 
d="M114 -82q-7 6 -7 17q0 21 21 21t21 -21q0 -22 -9 -39.5t-24 -29.5q-6 -4 -11 1l-2 1q-4 6 0 10q11 13 16 25q3 10 -5 15z" />
    <glyph glyph-name="uniF8FF" unicode="&#xf8ff;" horiz-adv-x="1627" 
d="M921 327q0 65 1.5 109t3.5 72q3 33 6 52h76q1 -13 3 -25q1 -11 2 -24t1 -25q1 2 4 14.5t11.5 26.5t24 25.5t41.5 11.5q40 0 56.5 -23.5t17.5 -77.5l2 -136h-112q0 34 1 54t1 40q0 14 -3.5 19.5t-11.5 5.5t-12.5 -5.5t-4.5 -19.5q0 -20 2.5 -40t2.5 -54h-113zM202 327
q0 65 1.5 120.5t3.5 97.5q3 48 6 89h95q2 -42 5 -90q2 -42 3.5 -97.5t1.5 -119.5h-116zM1186 440q0 25 5.5 47.5t19.5 39.5t37 27t58 10q37 0 61 -10t37 -27t18 -39.5t5 -47.5q0 -53 -29 -86t-92 -33q-62 0 -91 33t-29 86zM1306 399q24 0 24 30q0 27 -24 27q-23 0 -23 -27
q0 -30 23 -30zM500 385q-6 -31 -22.5 -47.5t-51.5 -16.5q-42 0 -65.5 27.5t-23.5 84.5q0 63 30 97t102 34q60 0 88 -29t28 -83v-125h-76zM464 399q24 0 24 30q0 27 -24 27q-9 0 -15 -6.5t-6 -20.5t6 -22t15 -8zM648 6q0 64 1.5 116t3.5 89q3 43 6 77h78q1 -15 3 -29
q2 -12 3 -24.5t1 -21.5q2 11 6 25.5t13 27t23 21.5t36 9q35 0 56.5 -29t21.5 -83q0 -67 -33 -101.5t-94 -34.5q0 -5 1 -11q0 -5 0.5 -13t0.5 -18h-127zM758 129q10 1 19 5q7 4 13 11t6 20q0 21 -19 21q-23 0 -23 -30q0 -6 0.5 -10.5t1.5 -8.5zM1122 64q-6 -4 -17 -8
q-9 -3 -22.5 -5.5t-32.5 -2.5q-70 0 -101.5 33.5t-31.5 87.5q0 127 123 127q52 0 82 -30t30 -84q0 -8 -1 -14.5t-2 -11.5l-2 -10h-120q1 -7 6 -12t13.5 -8.5t24.5 -3.5q25 0 39 7q7 4 12 8v-73zM1060 171v2q0 1 0.5 2.5t0.5 3.5q0 19 -18 19q-22 0 -22 -27h39zM598 554
l116 36l4 -30h172q2 -20 4 -53q2 -28 3 -72t1 -108h-114v82.5t2 61.5h-57l2 -63q0 -1 2 -1q2 -1 9 -1t13 2q3 1 4 2v-72q-2 -5 -10 -9q-7 -3 -19.5 -5.5t-32.5 -2.5q-42 0 -60 16.5t-18 47.5q0 9 0.5 23t0.5 27t0.5 23.5t0.5 12.5h-23v83zM841 573q-26 0 -42.5 17.5
t-16.5 43.5q0 24 16.5 41.5t42.5 17.5t42.5 -17.5t16.5 -41.5q0 -26 -16.5 -43.5t-42.5 -17.5zM200 277l121 40l4 -29h165q-1 -29 -1 -52q-1 -20 -1 -36v-18q0 -26 16 -26q15 0 15 26q0 2 -0.5 18t-0.5 36q-1 23 -1 52h106q1 -18 3 -40q1 -19 2 -46t1 -59q0 -72 -36 -104.5
t-114 -32.5q-26 0 -44 3t-29 7q-13 4 -20 11v83q7 -6 18 -10q9 -4 22.5 -6.5t31.5 -2.5q25 0 39 5.5t22 12.5q9 8 11 18q-4 -4 -11 -8q-7 -3 -18 -5t-28 -2q-43 0 -68 16t-25 58v8h-45l2 -61q13 0 21 3q4 1 7 3v-74q-5 -5 -15 -9q-8 -3 -21 -5.5t-31 -2.5q-38 0 -55.5 17
t-17.5 47q0 9 0.5 22.5t0.5 26t0.5 22t0.5 11.5h-27v83zM1198 272h16q15 0 15 -12q0 -9 -8 -12l8 -13h-9l-7 11h-7v-11h-8v37zM1214 253q7 0 7 6t-7 6h-8v-12h8zM1175 253q0 15 11 26t26 11t26 -11t11 -26t-11 -26t-26 -11t-26 11t-11 26zM1212 223q12 0 21 9t9 21t-9 21
t-21 9t-21 -9t-9 -21t9 -21t21 -9z" />
    <glyph glyph-name="uniFB00" unicode="&#xfb00;" horiz-adv-x="659" 
d="M638 450q9 0 9 -9v-2q0 -9 -9 -9h-206q-8 0 -8 -8v-412q0 -10 -10 -10h-2q-10 0 -10 10v412q0 8 -8 8h-246q-8 0 -8 -8v-412q0 -10 -10 -10h-2q-10 0 -10 10v412q0 8 -8 8h-75q-9 0 -9 9v2q0 9 9 9h75q8 0 8 8v133q0 83 32 120.5t107 37.5q42 0 81.5 -14.5t74.5 -36.5
q7 -5 11 2q34 60 125 60q45 0 79.5 -9t65.5 -23q8 -2 4 -10v-2q-4 -7 -12 -4q-29 12 -61 19.5t-77 7.5q-63 0 -93.5 -33.5t-30.5 -107.5v-140q0 -8 8 -8h206zM402 598q0 20 1.5 36.5t6.5 30.5q2 8 -5 13q-30 21 -69 35.5t-80 14.5q-64 0 -90 -31.5t-26 -105.5v-133
q0 -8 8 -8h246q8 0 8 8v140z" />
    <glyph glyph-name="uniFB01" unicode="&#xfb01;" horiz-adv-x="569" 
d="M118 598q0 83 37.5 122.5t117.5 39.5q61 0 110.5 -18t97.5 -44q12 -5 12 -19q0 -21 -21 -21t-21 21q0 14 -11 19q-42 19 -80.5 30t-87.5 11q-67 0 -99.5 -33.5t-32.5 -107.5v-140q0 -8 8 -8h326q10 0 10 -10v-369q0 -20 5 -34t18 -28q6 -6 -1 -12l-2 -2q-6 -4 -13 1
q-29 27 -29 69v357q0 8 -8 8h-306q-8 0 -8 -8v-412q0 -10 -10 -10h-2q-10 0 -10 10v412q0 8 -8 8h-75q-9 0 -9 9v2q0 9 9 9h75q8 0 8 8v140z" />
    <glyph glyph-name="uniFB02" unicode="&#xfb02;" horiz-adv-x="557" 
d="M334 450q9 0 9 -9v-2q0 -9 -9 -9h-186q-8 0 -8 -8v-412q0 -10 -10 -10h-2q-10 0 -10 10v412q0 8 -8 8h-75q-9 0 -9 9v2q0 9 9 9h75q8 0 8 8v140q0 83 34 122.5t109 39.5q51 0 95 -18.5t82 -42.5q2 -2 4.5 0t2.5 4v37q0 10 10 10h2q10 0 10 -10v-669q0 -20 5 -34t18 -28
q6 -6 -1 -12l-2 -2q-6 -4 -13 1q-29 27 -29 69v599q0 8 -7 13q-37 23 -82 42.5t-96 19.5q-63 0 -91.5 -33.5t-28.5 -107.5v-140q0 -8 8 -8h186z" />
    <glyph glyph-name="uniFB03" unicode="&#xfb03;" horiz-adv-x="846" 
d="M751 450q10 0 10 -10v-369q0 -20 5 -34t18 -28q6 -6 -1 -12l-2 -2q-6 -4 -13 1q-29 27 -29 69v357q0 8 -8 8h-271q-8 0 -8 -8v-412q0 -10 -10 -10h-2q-10 0 -10 10v412q0 8 -8 8h-274q-8 0 -8 -8v-412q0 -10 -10 -10h-2q-10 0 -10 10v412q0 8 -8 8h-75q-9 0 -9 9v2
q0 9 9 9h75q8 0 8 8v133q0 83 32 120.5t107 37.5q22 0 46.5 -4.5t48.5 -12t46.5 -17.5t40.5 -22q7 -5 11 3q17 32 47.5 48t81.5 16q27 0 49.5 -5t43.5 -13.5t42 -19.5t44 -24q12 -7 12 -19q0 -21 -21 -21q-8 0 -13.5 5.5t-5.5 15.5q0 11 -6 16q-36 19 -70 31.5t-76 12.5
q-67 0 -96.5 -33.5t-29.5 -107.5v-140q0 -8 8 -8h291zM430 598q0 36 7 61q2 10 -5 13q-16 12 -37 22t-45 17.5t-48 12t-46 4.5q-64 0 -90 -31.5t-26 -105.5v-133q0 -8 8 -8h274q8 0 8 8v140z" />
    <glyph glyph-name="uniFB04" unicode="&#xfb04;" horiz-adv-x="869" 
d="M440 0q-10 0 -10 10v412q0 8 -8 8h-274q-8 0 -8 -8v-412q0 -10 -10 -10h-2q-10 0 -10 10v412q0 8 -8 8h-75q-9 0 -9 9v2q0 9 9 9h75q8 0 8 8v133q0 83 32 120.5t107 37.5q21 0 45 -4t48 -11.5t47 -17.5t41 -22q7 -5 11 3q31 63 124 63q51 0 95 -18.5t82 -42.5q2 -2 4.5 0
t2.5 4v37q0 10 10 10h2q10 0 10 -10v-669q0 -20 5.5 -34t17.5 -28q6 -6 -1 -12l-2 -2q-6 -4 -13 1q-29 27 -29 69v599q0 8 -7 13q-37 23 -82 42.5t-96 19.5q-63 0 -91.5 -33.5t-28.5 -107.5v-140q0 -8 8 -8h186q9 0 9 -9v-2q0 -9 -9 -9h-186q-8 0 -8 -8v-412q0 -10 -10 -10
h-2zM256 728q-64 0 -90 -31.5t-26 -105.5v-133q0 -8 8 -8h274q8 0 8 8v140q0 34 6 63q2 7 -5 12q-16 12 -37.5 22t-44.5 17.5t-47 11.5t-46 4z" />
    <glyph glyph-name="A.aalt" horiz-adv-x="952" 
d="M197 413q-32 0 -59.5 11t-47.5 30.5t-31 46.5t-11 60t11 60t31 47t47.5 31t59.5 11h317q10 0 14 -9l410 -902q2 -3 0 -6t-6 -3h-5q-10 0 -14 9l-146 324q-3 8 -12 8h-480q-9 0 -12 -8l-146 -324q-5 -9 -14 -9h-5q-4 0 -6 3t0 6l402 883q2 8 -5 8h-292q-56 0 -91.5 -36
t-35.5 -93t35.5 -92.5t91.5 -35.5q45 0 75 22q8 5 14 -1l2 -2q6 -7 -2 -13q-17 -11 -40 -18.5t-49 -7.5zM518 674q-1 2 -3 2t-4 -2l-232 -515q-2 -8 5 -8h462q7 0 5 8z" />
    <glyph glyph-name="Aacute.aalt" horiz-adv-x="952" 
d="M506 757q-2 7 3 9l159 96q7 5 11 -3l2 -1q4 -8 -4 -12l-160 -93q-7 -2 -9 3zM197 413q-32 0 -59.5 11t-47.5 30.5t-31 46.5t-11 60t11 60t31 47t47.5 31t59.5 11h317q10 0 14 -9l410 -902q2 -3 0 -6t-6 -3h-5q-10 0 -14 9l-146 324q-3 8 -12 8h-480q-9 0 -12 -8
l-146 -324q-5 -9 -14 -9h-5q-4 0 -6 3t0 6l402 883q2 8 -5 8h-292q-56 0 -91.5 -36t-35.5 -93t35.5 -92.5t91.5 -35.5q45 0 75 22q8 5 14 -1l2 -2q6 -7 -2 -13q-17 -11 -40 -18.5t-49 -7.5zM518 674q-1 2 -3 2t-4 -2l-232 -515q-2 -8 5 -8h462q7 0 5 8z" />
    <glyph glyph-name="Abreve.aalt" horiz-adv-x="952" 
d="M197 413q-32 0 -59.5 11t-47.5 30.5t-31 46.5t-11 60t11 60t31 47t47.5 31t59.5 11h317q10 0 14 -9l410 -902q2 -3 0 -6t-6 -3h-5q-10 0 -14 9l-146 324q-3 8 -12 8h-480q-9 0 -12 -8l-146 -324q-5 -9 -14 -9h-5q-4 0 -6 3t0 6l402 883q2 8 -5 8h-292q-56 0 -91.5 -36
t-35.5 -93t35.5 -92.5t91.5 -35.5q45 0 75 22q8 5 14 -1l2 -2q6 -7 -2 -13q-17 -11 -40 -18.5t-49 -7.5zM518 674q-1 2 -3 2t-4 -2l-232 -515q-2 -8 5 -8h462q7 0 5 8zM611 828q-6 -37 -32 -58t-65 -21q-38 0 -65 21t-32 59q-1 2 1.5 4.5t4.5 2.5h2q7 0 9 -7q6 -31 28.5 -47
t51.5 -16t51 16t28 46q2 8 9 8h2q3 0 5.5 -2.5t1.5 -5.5z" />
    <glyph glyph-name="Acircumflex.aalt" horiz-adv-x="952" 
d="M409 756q-5 5 0 10l99 96q7 7 14 0l99 -96q5 -5 0 -10l-1 -1q-5 -5 -10 -1l-89 79q-6 8 -12 0l-89 -79q-5 -4 -10 1zM197 413q-32 0 -59.5 11t-47.5 30.5t-31 46.5t-11 60t11 60t31 47t47.5 31t59.5 11h317q10 0 14 -9l410 -902q2 -3 0 -6t-6 -3h-5q-10 0 -14 9l-146 324
q-3 8 -12 8h-480q-9 0 -12 -8l-146 -324q-5 -9 -14 -9h-5q-4 0 -6 3t0 6l402 883q2 8 -5 8h-292q-56 0 -91.5 -36t-35.5 -93t35.5 -92.5t91.5 -35.5q45 0 75 22q8 5 14 -1l2 -2q6 -7 -2 -13q-17 -11 -40 -18.5t-49 -7.5zM518 674q-1 2 -3 2t-4 -2l-232 -515q-2 -8 5 -8h462
q7 0 5 8z" />
    <glyph glyph-name="Adieresis.aalt" horiz-adv-x="952" 
d="M629 750q-21 0 -21 21t21 21t21 -21t-21 -21zM402 750q-21 0 -21 21t21 21t21 -21t-21 -21zM197 413q-32 0 -59.5 11t-47.5 30.5t-31 46.5t-11 60t11 60t31 47t47.5 31t59.5 11h317q10 0 14 -9l410 -902q2 -3 0 -6t-6 -3h-5q-10 0 -14 9l-146 324q-3 8 -12 8h-480
q-9 0 -12 -8l-146 -324q-5 -9 -14 -9h-5q-4 0 -6 3t0 6l402 883q2 8 -5 8h-292q-56 0 -91.5 -36t-35.5 -93t35.5 -92.5t91.5 -35.5q45 0 75 22q8 5 14 -1l2 -2q6 -7 -2 -13q-17 -11 -40 -18.5t-49 -7.5zM518 674q-1 2 -3 2t-4 -2l-232 -515q-2 -8 5 -8h462q7 0 5 8z" />
    <glyph glyph-name="Agrave.aalt" horiz-adv-x="952" 
d="M346 859q6 8 12 3l159 -96q6 -4 2 -9l-1 -1q-2 -5 -9 -3l-160 93q-8 4 -4 12zM197 413q-32 0 -59.5 11t-47.5 30.5t-31 46.5t-11 60t11 60t31 47t47.5 31t59.5 11h317q10 0 14 -9l410 -902q2 -3 0 -6t-6 -3h-5q-10 0 -14 9l-146 324q-3 8 -12 8h-480q-9 0 -12 -8
l-146 -324q-5 -9 -14 -9h-5q-4 0 -6 3t0 6l402 883q2 8 -5 8h-292q-56 0 -91.5 -36t-35.5 -93t35.5 -92.5t91.5 -35.5q45 0 75 22q8 5 14 -1l2 -2q6 -7 -2 -13q-17 -11 -40 -18.5t-49 -7.5zM518 674q-1 2 -3 2t-4 -2l-232 -515q-2 -8 5 -8h462q7 0 5 8z" />
    <glyph glyph-name="Amacron.aalt" horiz-adv-x="952" 
d="M620 769q8 0 8 -9v-2q0 -8 -8 -8h-209q-8 0 -8 8v2q0 9 8 9h209zM197 413q-32 0 -59.5 11t-47.5 30.5t-31 46.5t-11 60t11 60t31 47t47.5 31t59.5 11h317q10 0 14 -9l410 -902q2 -3 0 -6t-6 -3h-5q-10 0 -14 9l-146 324q-3 8 -12 8h-480q-9 0 -12 -8l-146 -324
q-5 -9 -14 -9h-5q-4 0 -6 3t0 6l402 883q2 8 -5 8h-292q-56 0 -91.5 -36t-35.5 -93t35.5 -92.5t91.5 -35.5q45 0 75 22q8 5 14 -1l2 -2q6 -7 -2 -13q-17 -11 -40 -18.5t-49 -7.5zM518 674q-1 2 -3 2t-4 -2l-232 -515q-2 -8 5 -8h462q7 0 5 8z" />
    <glyph glyph-name="Aogonek.aalt" horiz-adv-x="952" 
d="M518 674q-1 2 -3 2t-4 -2l-232 -515q-2 -8 5 -8h462q7 0 5 8zM197 413q-32 0 -59.5 11t-47.5 30.5t-31 46.5t-11 60t11 60t31 47t47.5 31t59.5 11h317q10 0 14 -9l408 -902q4 -9 -3 -16q-22 -23 -36 -49t-14 -50q0 -19 10 -30t30 -11q32 0 61 13q5 3 8 -3l1 -2
q3 -4 -3 -8q-15 -11 -31.5 -14t-35.5 -3q-60 0 -60 58q0 26 13.5 51t34.5 49q6 6 2 14l-146 325q-5 8 -13 8h-478q-8 0 -13 -8l-146 -324q-4 -9 -14 -9h-5q-4 0 -6 3t0 6l401 883q4 8 -5 8h-291q-56 0 -91.5 -36t-35.5 -93t35.5 -92.5t91.5 -35.5q23 0 42 6t34 16
q4 2 6.5 2.5t6.5 -3.5l2 -2q6 -8 -1 -13q-17 -12 -40.5 -19t-49.5 -7z" />
    <glyph glyph-name="Aring.aalt" horiz-adv-x="953" 
d="M518 674q-1 2 -3 2t-4 -2l-232 -515q-2 -8 5 -8h462q7 0 5 8zM515 825q-26 0 -41 -14.5t-15 -42.5t15 -42.5t41 -14.5q55 0 55 57t-55 57zM48 561q0 33 11 60t31 47t47.5 31t59.5 11h261q7 0 3 6q-19 19 -19 52q0 35 20 54t53 19t53 -19t20 -54q0 -29 -13.5 -46.5
t-36.5 -23.5q-8 -2 -4 -10l404 -889q2 -3 0 -6t-6 -3h-5q-10 0 -14 9l-146 324q-5 8 -13 8h-478q-8 0 -13 -8l-146 -324q-4 -9 -14 -9h-5q-4 0 -6 3t0 6l401 883q4 8 -5 8h-291q-56 0 -91.5 -36t-35.5 -93t35.5 -92.5t91.5 -35.5q22 0 41.5 6t34.5 16q7 5 13 -1l2 -2
q6 -8 -1 -13q-17 -12 -40.5 -19t-49.5 -7q-32 0 -59.5 11t-47.5 30.5t-31 46.5t-11 60z" />
    <glyph glyph-name="Atilde.aalt" horiz-adv-x="952" 
d="M442 822q25 0 43 -8.5t34 -18.5t32 -18.5t37 -8.5q20 0 30 12t12 29q0 9 10 9h1q4 0 6.5 -3t1.5 -6q-2 -26 -18.5 -42.5t-42.5 -16.5q-24 0 -42 8.5t-34 18t-32.5 18t-37.5 8.5q-20 0 -30 -12.5t-12 -29.5q0 -8 -9 -8h-2q-8 0 -8 8q2 28 18.5 44.5t42.5 16.5zM197 413
q-32 0 -59.5 11t-47.5 30.5t-31 46.5t-11 60t11 60t31 47t47.5 31t59.5 11h317q10 0 14 -9l410 -902q2 -3 0 -6t-6 -3h-5q-10 0 -14 9l-146 324q-3 8 -12 8h-480q-9 0 -12 -8l-146 -324q-5 -9 -14 -9h-5q-4 0 -6 3t0 6l402 883q2 8 -5 8h-292q-56 0 -91.5 -36t-35.5 -93
t35.5 -92.5t91.5 -35.5q45 0 75 22q8 5 14 -1l2 -2q6 -7 -2 -13q-17 -11 -40 -18.5t-49 -7.5zM518 674q-1 2 -3 2t-4 -2l-232 -515q-2 -8 5 -8h462q7 0 5 8z" />
    <glyph glyph-name="B.aalt" horiz-adv-x="1086" 
d="M44 551q0 -57 35.5 -92.5t91.5 -35.5q45 0 75 22q9 5 15 -2l1 -1q6 -7 -2 -13q-17 -11 -40 -18.5t-49 -7.5q-32 0 -59.5 11t-47.5 30.5t-31 46.5t-11 60t11 60t31 47t47.5 31t59.5 11h500q89 0 145.5 -15t89 -43t44.5 -69.5t12 -93.5q0 -35 -9 -67.5t-29 -60t-51.5 -48.5
t-75.5 -34q-2 0 -2 -1.5t2 -1.5q62 -9 104 -29.5t68 -51t37.5 -70t11.5 -85.5q0 -54 -13.5 -98.5t-47 -76t-91.5 -48.5t-147 -17h-360q-10 0 -10 10v872q0 8 -9 8h-169q-56 0 -91.5 -36t-35.5 -93zM729 273q58 9 98 29t64.5 47.5t35.5 61t11 68.5q0 46 -10.5 83.5t-39.5 63
t-81.5 39.5t-137.5 14h-290q-8 0 -8 -8v-851q0 -9 8 -9h338q85 0 138.5 16t84.5 45t42.5 69.5t11.5 88.5q0 47 -13.5 87.5t-45 70t-84.5 46.5t-131 17h-98q-9 0 -9 10v1q0 10 9 10h91q3 0 8 0.5t8 0.5z" />
    <glyph glyph-name="C.aalt" horiz-adv-x="870" 
d="M778 534q0 35 -13.5 60.5t-35.5 42.5t-50 27.5t-55.5 16t-52.5 7t-42 1.5q-99 0 -179 -30t-135.5 -87t-85.5 -139.5t-30 -188.5q0 -105 28 -187.5t81.5 -139.5t131.5 -86.5t177 -29.5q37 0 74 6.5t72 17.5t66 27t57 36q9 5 14 -2l1 -2q6 -8 -2 -14q-27 -21 -60 -37.5
t-69.5 -28.5t-75.5 -18t-77 -6q-104 0 -186 31t-139 90.5t-87 145.5t-30 197t32 197.5t91 146.5t143 91t188 31q18 0 45.5 -2t57.5 -8.5t60 -18t54 -31t39 -48t15 -68.5q0 -37 -12.5 -64.5t-33.5 -45.5t-47.5 -27t-54.5 -9q-26 0 -48 7.5t-40 19.5q-7 4 -3 12l2 2q5 7 12 2
q16 -11 35 -17t42 -6q24 0 47 8t40.5 23.5t28 39t10.5 55.5z" />
    <glyph glyph-name="Cacute.aalt" horiz-adv-x="870" 
d="M452 757q-2 6 3 9l159 96q6 5 12 -3l1 -1q4 -8 -4 -12l-160 -93q-7 -2 -9 3zM778 534q0 35 -13.5 60.5t-35.5 42.5t-50 27.5t-55.5 16t-52.5 7t-42 1.5q-99 0 -179 -30t-135.5 -87t-85.5 -139.5t-30 -188.5q0 -105 28 -187.5t81.5 -139.5t131.5 -86.5t177 -29.5
q37 0 74 6.5t72 17.5t66 27t57 36q9 5 14 -2l1 -2q6 -8 -2 -14q-27 -21 -60 -37.5t-69.5 -28.5t-75.5 -18t-77 -6q-104 0 -186 31t-139 90.5t-87 145.5t-30 197t32 197.5t91 146.5t143 91t188 31q18 0 45.5 -2t57.5 -8.5t60 -18t54 -31t39 -48t15 -68.5q0 -37 -12.5 -64.5
t-33.5 -45.5t-47.5 -27t-54.5 -9q-26 0 -48 7.5t-40 19.5q-7 4 -3 12l2 2q5 7 12 2q16 -11 35 -17t42 -6q24 0 47 8t40.5 23.5t28 39t10.5 55.5z" />
    <glyph glyph-name="Ccaron.aalt" horiz-adv-x="870" 
d="M527 757q-7 -7 -14 0l-99 96q-5 5 0 10l1 1q5 5 10 0l89 -80q6 -6 12 0l89 80q5 5 10 0l1 -1q5 -5 0 -10zM778 534q0 35 -13.5 60.5t-35.5 42.5t-50 27.5t-55.5 16t-52.5 7t-42 1.5q-99 0 -179 -30t-135.5 -87t-85.5 -139.5t-30 -188.5q0 -105 28 -187.5t81.5 -139.5
t131.5 -86.5t177 -29.5q37 0 74 6.5t72 17.5t66 27t57 36q9 5 14 -2l1 -2q6 -8 -2 -14q-27 -21 -60 -37.5t-69.5 -28.5t-75.5 -18t-77 -6q-104 0 -186 31t-139 90.5t-87 145.5t-30 197t32 197.5t91 146.5t143 91t188 31q18 0 45.5 -2t57.5 -8.5t60 -18t54 -31t39 -48
t15 -68.5q0 -37 -12.5 -64.5t-33.5 -45.5t-47.5 -27t-54.5 -9q-26 0 -48 7.5t-40 19.5q-7 4 -3 12l2 2q5 7 12 2q16 -11 35 -17t42 -6q24 0 47 8t40.5 23.5t28 39t10.5 55.5z" />
    <glyph glyph-name="glyph32" horiz-adv-x="870" 
d="M592 -324q0 -35 -26.5 -51t-62.5 -16q-16 0 -37 3.5t-35 9.5q-6 2 -4 9l1 2q4 7 10 4q13 -5 32 -7.5t33 -2.5q29 0 48 12.5t19 36.5q0 13 -5.5 21t-14.5 12.5t-20 6t-21 1.5q-5 0 -10 -0.5t-11 -1.5q-8 -2 -15 6l-1 1q-7 7 -2 15l24 37q2 2 0.5 4.5t-4.5 2.5
q-98 4 -175 37t-130.5 92t-81.5 143t-28 191q0 111 32 197.5t91 146.5t143 91t188 31q18 0 45.5 -2t57.5 -8.5t60 -18t54 -31t39 -48t15 -68.5q0 -37 -12.5 -64.5t-33.5 -45.5t-47.5 -27t-54.5 -9q-26 0 -48 7.5t-40 19.5q-7 4 -3 12l2 2q5 7 12 2q16 -11 35 -17t42 -6
q24 0 47 8t40.5 23.5t28 39t10.5 55.5q0 35 -13.5 60.5t-35.5 42.5t-50 27.5t-55.5 16t-52.5 7t-42 1.5q-99 0 -179 -30t-135.5 -87t-85.5 -139.5t-30 -188.5q0 -105 28 -187.5t81.5 -139.5t131.5 -86.5t177 -29.5q37 0 74 6.5t72 17.5t66 27t57 36q9 5 14 -2l1 -2
q6 -8 -2 -14q-53 -40 -125 -64t-147 -26q-9 0 -12 -7l-19 -31q-2 -2 0 -4.5t4 -1.5q18 1 34.5 -1.5t29.5 -9.5t20.5 -19t7.5 -30z" />
    <glyph glyph-name="Ccircumflex.aalt" horiz-adv-x="870" 
d="M403 756q-5 5 0 10l99 96q7 7 14 0l99 -96q5 -5 0 -10l-1 -1q-5 -5 -10 -1l-89 79q-6 8 -12 0l-89 -79q-5 -4 -10 1zM778 534q0 35 -13.5 60.5t-35.5 42.5t-50 27.5t-55.5 16t-52.5 7t-42 1.5q-99 0 -179 -30t-135.5 -87t-85.5 -139.5t-30 -188.5q0 -105 28 -187.5
t81.5 -139.5t131.5 -86.5t177 -29.5q37 0 74 6.5t72 17.5t66 27t57 36q9 5 14 -2l1 -2q6 -8 -2 -14q-27 -21 -60 -37.5t-69.5 -28.5t-75.5 -18t-77 -6q-104 0 -186 31t-139 90.5t-87 145.5t-30 197t32 197.5t91 146.5t143 91t188 31q18 0 45.5 -2t57.5 -8.5t60 -18t54 -31
t39 -48t15 -68.5q0 -37 -12.5 -64.5t-33.5 -45.5t-47.5 -27t-54.5 -9q-26 0 -48 7.5t-40 19.5q-7 4 -3 12l2 2q5 7 12 2q16 -11 35 -17t42 -6q24 0 47 8t40.5 23.5t28 39t10.5 55.5z" />
    <glyph glyph-name="Cdotaccent.aalt" horiz-adv-x="870" 
d="M510 750q-21 0 -21 21t21 21t21 -21t-21 -21zM778 534q0 35 -13.5 60.5t-35.5 42.5t-50 27.5t-55.5 16t-52.5 7t-42 1.5q-99 0 -179 -30t-135.5 -87t-85.5 -139.5t-30 -188.5q0 -105 28 -187.5t81.5 -139.5t131.5 -86.5t177 -29.5q37 0 74 6.5t72 17.5t66 27t57 36
q9 5 14 -2l1 -2q6 -8 -2 -14q-27 -21 -60 -37.5t-69.5 -28.5t-75.5 -18t-77 -6q-104 0 -186 31t-139 90.5t-87 145.5t-30 197t32 197.5t91 146.5t143 91t188 31q18 0 45.5 -2t57.5 -8.5t60 -18t54 -31t39 -48t15 -68.5q0 -37 -12.5 -64.5t-33.5 -45.5t-47.5 -27t-54.5 -9
q-26 0 -48 7.5t-40 19.5q-7 4 -3 12l2 2q5 7 12 2q16 -11 35 -17t42 -6q24 0 47 8t40.5 23.5t28 39t10.5 55.5z" />
    <glyph glyph-name="D.aalt" horiz-adv-x="1147" 
d="M22 551q0 33 11 60t31 47t47.5 31t59.5 11h440q104 0 189 -29.5t145.5 -87.5t93.5 -143t33 -196t-33 -195.5t-93.5 -142t-145.5 -87t-189 -29.5h-252q-10 0 -10 10v872q0 8 -9 8h-169q-56 0 -91.5 -36t-35.5 -93t35.5 -92.5t91.5 -35.5q45 0 75 22q4 2 8 2.5t6 -3.5l2 -3
q4 -7 -2 -12q-17 -11 -40 -18.5t-49 -7.5q-32 0 -59.5 11t-47.5 30.5t-31 46.5t-11 60zM1048 244q0 106 -31 187t-88 136t-137.5 83.5t-180.5 28.5h-232q-8 0 -8 -8v-851q0 -9 8 -9h232q100 0 180.5 28t137.5 83t88 136t31 186z" />
    <glyph glyph-name="Dcaron.aalt" horiz-adv-x="1147" 
d="M635 757q-7 -7 -14 0l-99 96q-5 5 0 10l1 1q5 5 10 0l89 -80q6 -6 12 0l89 80q5 5 10 0l1 -1q5 -5 0 -10zM22 551q0 33 11 60t31 47t47.5 31t59.5 11h440q104 0 189 -29.5t145.5 -87.5t93.5 -143t33 -196t-33 -195.5t-93.5 -142t-145.5 -87t-189 -29.5h-252q-10 0 -10 10
v872q0 8 -9 8h-169q-56 0 -91.5 -36t-35.5 -93t35.5 -92.5t91.5 -35.5q45 0 75 22q4 2 8 2.5t6 -3.5l2 -3q4 -7 -2 -12q-17 -11 -40 -18.5t-49 -7.5q-32 0 -59.5 11t-47.5 30.5t-31 46.5t-11 60zM1048 244q0 106 -31 187t-88 136t-137.5 83.5t-180.5 28.5h-232q-8 0 -8 -8
v-851q0 -9 8 -9h232q100 0 180.5 28t137.5 83t88 136t31 186z" />
    <glyph glyph-name="Dcroat.aalt" horiz-adv-x="1147" 
d="M556 247q9 0 9 -9v-2q0 -9 -9 -9h-177q-8 0 -8 -8v-399q0 -9 8 -9h232q100 0 180.5 28t137.5 83t88 136t31 186q0 106 -31 187t-88 136t-137.5 83.5t-180.5 28.5h-232q-8 0 -8 -8v-416q0 -8 8 -8h177zM22 551q0 33 11 60t31 47t47.5 31t59.5 11h440q104 0 189 -29.5
t145.5 -87.5t93.5 -143t33 -196t-33 -195.5t-93.5 -142t-145.5 -87t-189 -29.5h-252q-10 0 -10 10v418q0 9 -9 9h-145q-9 0 -9 9v2q0 9 9 9h145q9 0 9 9v415q0 9 -9 9h-169q-56 0 -91.5 -36t-35.5 -93t35.5 -92.5t91.5 -35.5q22 0 41.5 6t33.5 16q4 2 8 2.5t6 -3.5l2 -3
q4 -7 -2 -12q-17 -12 -40 -19t-49 -7q-32 0 -59.5 11t-47.5 30.5t-31 46.5t-11 60z" />
    <glyph glyph-name="E.aalt" horiz-adv-x="1039" 
d="M22 551q0 33 11 60t31 47t47.5 31t59.5 11h783q9 0 9 -9v-2q0 -9 -9 -9h-574q-9 0 -9 -9v-378q0 -9 9 -9h496q9 0 9 -9v-2q0 -9 -9 -9h-496q-9 0 -9 -9v-436q0 -9 9 -9h574q9 0 9 -9v-2q0 -9 -9 -9h-595q-10 0 -10 10v871q0 9 -9 9h-169q-56 0 -91.5 -36t-35.5 -93
t35.5 -92.5t91.5 -35.5q22 0 41.5 6t33.5 16q4 2 8 2.5t6 -3.5l2 -3q4 -7 -2 -12q-17 -12 -40 -19t-49 -7q-32 0 -59.5 11t-47.5 30.5t-31 46.5t-11 60z" />
    <glyph glyph-name="Eacute.aalt" horiz-adv-x="1039" 
d="M572 757q-4 5 2 9l159 96q3 2 6.5 1t5.5 -4l1 -1q2 -3 1 -6.5t-4 -5.5l-161 -93q-6 -2 -9 3zM22 551q0 33 11 60t31 47t47.5 31t59.5 11h783q9 0 9 -9v-2q0 -9 -9 -9h-574q-9 0 -9 -9v-378q0 -9 9 -9h496q9 0 9 -9v-2q0 -9 -9 -9h-496q-9 0 -9 -9v-436q0 -9 9 -9h574
q9 0 9 -9v-2q0 -9 -9 -9h-595q-10 0 -10 10v871q0 9 -9 9h-169q-56 0 -91.5 -36t-35.5 -93t35.5 -92.5t91.5 -35.5q22 0 41.5 6t33.5 16q4 2 8 2.5t6 -3.5l2 -3q4 -7 -2 -12q-17 -12 -40 -19t-49 -7q-32 0 -59.5 11t-47.5 30.5t-31 46.5t-11 60z" />
    <glyph glyph-name="Ebreve.aalt" horiz-adv-x="1039" 
d="M751 829q-6 -37 -32 -58t-65 -21q-38 0 -65 21t-32 59q-1 2 1.5 4.5t4.5 2.5h2q7 0 9 -7q6 -31 28.5 -47t51.5 -16t51 16t28 46q2 8 9 8h2q3 0 5.5 -2.5t1.5 -5.5zM22 551q0 33 11 60t31 47t47.5 31t59.5 11h783q9 0 9 -9v-2q0 -9 -9 -9h-574q-9 0 -9 -9v-378q0 -9 9 -9
h496q9 0 9 -9v-2q0 -9 -9 -9h-496q-9 0 -9 -9v-436q0 -9 9 -9h574q9 0 9 -9v-2q0 -9 -9 -9h-595q-10 0 -10 10v871q0 9 -9 9h-169q-56 0 -91.5 -36t-35.5 -93t35.5 -92.5t91.5 -35.5q22 0 41.5 6t33.5 16q4 2 8 2.5t6 -3.5l2 -3q4 -7 -2 -12q-17 -12 -40 -19t-49 -7
q-32 0 -59.5 11t-47.5 30.5t-31 46.5t-11 60z" />
    <glyph glyph-name="Ecaron.aalt" horiz-adv-x="1039" 
d="M668 757q-7 -7 -14 0l-99 96q-5 5 0 10l1 1q5 5 10 0l89 -80q6 -6 12 0l89 80q5 5 10 0l1 -1q5 -5 0 -10zM22 551q0 33 11 60t31 47t47.5 31t59.5 11h783q9 0 9 -9v-2q0 -9 -9 -9h-574q-9 0 -9 -9v-378q0 -9 9 -9h496q9 0 9 -9v-2q0 -9 -9 -9h-496q-9 0 -9 -9v-436
q0 -9 9 -9h574q9 0 9 -9v-2q0 -9 -9 -9h-595q-10 0 -10 10v871q0 9 -9 9h-169q-56 0 -91.5 -36t-35.5 -93t35.5 -92.5t91.5 -35.5q22 0 41.5 6t33.5 16q4 2 8 2.5t6 -3.5l2 -3q4 -7 -2 -12q-17 -12 -40 -19t-49 -7q-32 0 -59.5 11t-47.5 30.5t-31 46.5t-11 60z" />
    <glyph glyph-name="Ecircumflex.aalt" horiz-adv-x="1039" 
d="M554 756q-5 5 0 10l99 96q7 7 14 0l99 -96q5 -5 0 -10l-1 -1q-5 -5 -10 -1l-89 79q-6 8 -12 0l-89 -79q-5 -4 -10 1zM22 551q0 33 11 60t31 47t47.5 31t59.5 11h783q9 0 9 -9v-2q0 -9 -9 -9h-574q-9 0 -9 -9v-378q0 -9 9 -9h496q9 0 9 -9v-2q0 -9 -9 -9h-496q-9 0 -9 -9
v-436q0 -9 9 -9h574q9 0 9 -9v-2q0 -9 -9 -9h-595q-10 0 -10 10v871q0 9 -9 9h-169q-56 0 -91.5 -36t-35.5 -93t35.5 -92.5t91.5 -35.5q22 0 41.5 6t33.5 16q4 2 8 2.5t6 -3.5l2 -3q4 -7 -2 -12q-17 -12 -40 -19t-49 -7q-32 0 -59.5 11t-47.5 30.5t-31 46.5t-11 60z" />
    <glyph glyph-name="Edieresis.aalt" horiz-adv-x="1039" 
d="M545 750q-21 0 -21 21t21 21t21 -21t-21 -21zM772 750q-21 0 -21 21t21 21t21 -21t-21 -21zM22 551q0 33 11 60t31 47t47.5 31t59.5 11h783q9 0 9 -9v-2q0 -9 -9 -9h-574q-9 0 -9 -9v-378q0 -9 9 -9h496q9 0 9 -9v-2q0 -9 -9 -9h-496q-9 0 -9 -9v-436q0 -9 9 -9h574
q9 0 9 -9v-2q0 -9 -9 -9h-595q-10 0 -10 10v871q0 9 -9 9h-169q-56 0 -91.5 -36t-35.5 -93t35.5 -92.5t91.5 -35.5q22 0 41.5 6t33.5 16q4 2 8 2.5t6 -3.5l2 -3q4 -7 -2 -12q-17 -12 -40 -19t-49 -7q-32 0 -59.5 11t-47.5 30.5t-31 46.5t-11 60z" />
    <glyph glyph-name="Edotaccent.aalt" horiz-adv-x="1039" 
d="M646 750q-21 0 -21 21t21 21t21 -21t-21 -21zM22 551q0 33 11 60t31 47t47.5 31t59.5 11h783q9 0 9 -9v-2q0 -9 -9 -9h-574q-9 0 -9 -9v-378q0 -9 9 -9h496q9 0 9 -9v-2q0 -9 -9 -9h-496q-9 0 -9 -9v-436q0 -9 9 -9h574q9 0 9 -9v-2q0 -9 -9 -9h-595q-10 0 -10 10v871
q0 9 -9 9h-169q-56 0 -91.5 -36t-35.5 -93t35.5 -92.5t91.5 -35.5q22 0 41.5 6t33.5 16q4 2 8 2.5t6 -3.5l2 -3q4 -7 -2 -12q-17 -12 -40 -19t-49 -7q-32 0 -59.5 11t-47.5 30.5t-31 46.5t-11 60z" />
    <glyph glyph-name="Egrave.aalt" horiz-adv-x="1039" 
d="M535 859q4 8 11 3l159 -96q5 -3 3 -9l-2 -1q-2 -5 -9 -3l-160 93q-8 4 -4 12zM22 551q0 33 11 60t31 47t47.5 31t59.5 11h783q9 0 9 -9v-2q0 -9 -9 -9h-574q-9 0 -9 -9v-378q0 -9 9 -9h496q9 0 9 -9v-2q0 -9 -9 -9h-496q-9 0 -9 -9v-436q0 -9 9 -9h574q9 0 9 -9v-2
q0 -9 -9 -9h-595q-10 0 -10 10v871q0 9 -9 9h-169q-56 0 -91.5 -36t-35.5 -93t35.5 -92.5t91.5 -35.5q22 0 41.5 6t33.5 16q4 2 8 2.5t6 -3.5l2 -3q4 -7 -2 -12q-17 -12 -40 -19t-49 -7q-32 0 -59.5 11t-47.5 30.5t-31 46.5t-11 60z" />
    <glyph glyph-name="Emacron.aalt" horiz-adv-x="1039" 
d="M760 769q9 0 9 -9v-2q0 -8 -9 -8h-208q-8 0 -8 8v2q0 9 8 9h208zM22 551q0 33 11 60t31 47t47.5 31t59.5 11h783q9 0 9 -9v-2q0 -9 -9 -9h-574q-9 0 -9 -9v-378q0 -9 9 -9h496q9 0 9 -9v-2q0 -9 -9 -9h-496q-9 0 -9 -9v-436q0 -9 9 -9h574q9 0 9 -9v-2q0 -9 -9 -9h-595
q-10 0 -10 10v871q0 9 -9 9h-169q-56 0 -91.5 -36t-35.5 -93t35.5 -92.5t91.5 -35.5q22 0 41.5 6t33.5 16q4 2 8 2.5t6 -3.5l2 -3q4 -7 -2 -12q-17 -12 -40 -19t-49 -7q-32 0 -59.5 11t-47.5 30.5t-31 46.5t-11 60z" />
    <glyph glyph-name="Eogonek.aalt" horiz-adv-x="1039" 
d="M22 551q0 33 11 60t31 47t47.5 31t59.5 11h783q9 0 9 -9v-2q0 -9 -9 -9h-574q-9 0 -9 -9v-378q0 -9 9 -9h496q9 0 9 -9v-2q0 -9 -9 -9h-496q-9 0 -9 -9v-436q0 -9 9 -9h574q9 0 9 -9v-2q0 -9 -6 -15q-21 -23 -35 -49t-14 -51q0 -19 10 -30t30 -11q32 0 61 13q4 3 8 -3v-2
q2 -2 1 -4.5t-3 -3.5q-30 -17 -67 -17q-60 0 -60 58q0 26 13 51.5t34 48.5q2 2 1 4t-4 2h-573q-10 0 -10 10v871q0 9 -9 9h-169q-56 0 -91.5 -36t-35.5 -93t35.5 -92.5t91.5 -35.5q22 0 41.5 6t33.5 16q4 2 8 2.5t6 -3.5l2 -3q4 -7 -2 -12q-17 -12 -40 -19t-49 -7
q-32 0 -59.5 11t-47.5 30.5t-31 46.5t-11 60z" />
    <glyph glyph-name="Eth.aalt" horiz-adv-x="1147" 
d="M556 247q9 0 9 -9v-2q0 -9 -9 -9h-177q-8 0 -8 -8v-399q0 -9 8 -9h232q100 0 180.5 28t137.5 83t88 136t31 186q0 106 -31 187t-88 136t-137.5 83.5t-180.5 28.5h-232q-8 0 -8 -8v-416q0 -8 8 -8h177zM22 551q0 33 11 60t31 47t47.5 31t59.5 11h440q104 0 189 -29.5
t145.5 -87.5t93.5 -143t33 -196t-33 -195.5t-93.5 -142t-145.5 -87t-189 -29.5h-252q-10 0 -10 10v418q0 9 -9 9h-145q-9 0 -9 9v2q0 9 9 9h145q9 0 9 9v415q0 9 -9 9h-169q-56 0 -91.5 -36t-35.5 -93t35.5 -92.5t91.5 -35.5q22 0 41.5 6t33.5 16q4 2 8 2.5t6 -3.5l2 -3
q4 -7 -2 -12q-17 -12 -40 -19t-49 -7q-32 0 -59.5 11t-47.5 30.5t-31 46.5t-11 60z" />
    <glyph glyph-name="F.aalt" horiz-adv-x="941" 
d="M23 551q0 33 11 60t31 47t47.5 31t59.5 11h722q9 0 9 -9v-2q0 -9 -9 -9h-513q-9 0 -9 -9v-378q0 -9 9 -9h435q9 0 9 -9v-2q0 -9 -9 -9h-435q-9 0 -9 -9v-270q0 -69 -18 -118t-56 -81q-8 -6 -14 2l-2 2q-6 8 2 14q35 30 50.5 74.5t15.5 106.5v686q0 9 -9 9h-169
q-56 0 -91.5 -36t-35.5 -93t35.5 -92.5t91.5 -35.5q22 0 41.5 6t33.5 16q4 2 8 2.5t6 -3.5l2 -3q4 -7 -2 -12q-17 -12 -40 -19t-49 -7q-32 0 -59.5 11t-47.5 30.5t-31 46.5t-11 60z" />
    <glyph glyph-name="G.aalt" horiz-adv-x="889" 
d="M763 -137q-54 -39 -120.5 -61t-140.5 -22q-103 0 -182.5 31t-134 90.5t-82.5 145.5t-28 197t32 197.5t91 146.5t143 91t188 31q18 0 45.5 -2t57.5 -8.5t60 -18t54 -31t39 -48t15 -68.5q0 -37 -12.5 -64.5t-33.5 -45.5t-47.5 -27t-54.5 -9q-26 0 -48 7.5t-40 19.5
q-7 4 -4 10l3 5q5 6 12 1q16 -11 35 -17t42 -6q24 0 47 8t40.5 23.5t28 39t10.5 55.5q0 35 -13.5 60.5t-35.5 42.5t-50 27.5t-55.5 16t-52.5 7t-42 1.5q-99 0 -179 -30t-135.5 -87t-85.5 -139.5t-30 -188.5q0 -105 26 -187.5t77 -139.5t126.5 -86.5t173.5 -29.5
q75 0 142.5 24.5t118.5 62.5q7 5 7 13v253q0 8 -8 8h-203q-9 0 -9 9v2q0 9 9 9h223q10 0 10 -10v-372q0 -10 -10 -10h-2q-10 0 -10 10v59q0 3 -2.5 4.5t-4.5 -0.5z" />
    <glyph glyph-name="Gcircumflex.aalt" horiz-adv-x="889" 
d="M370 756q-5 5 0 10l99 96q7 7 14 0l99 -96q5 -5 0 -10l-1 -1q-5 -5 -10 -1l-89 79q-6 8 -12 0l-89 -79q-5 -4 -10 1zM763 -137q-54 -39 -120.5 -61t-140.5 -22q-103 0 -182.5 31t-134 90.5t-82.5 145.5t-28 197t32 197.5t91 146.5t143 91t188 31q18 0 45.5 -2t57.5 -8.5
t60 -18t54 -31t39 -48t15 -68.5q0 -37 -12.5 -64.5t-33.5 -45.5t-47.5 -27t-54.5 -9q-26 0 -48 7.5t-40 19.5q-7 4 -4 10l3 5q5 6 12 1q16 -11 35 -17t42 -6q24 0 47 8t40.5 23.5t28 39t10.5 55.5q0 35 -13.5 60.5t-35.5 42.5t-50 27.5t-55.5 16t-52.5 7t-42 1.5
q-99 0 -179 -30t-135.5 -87t-85.5 -139.5t-30 -188.5q0 -105 26 -187.5t77 -139.5t126.5 -86.5t173.5 -29.5q75 0 142.5 24.5t118.5 62.5q7 5 7 13v253q0 8 -8 8h-203q-9 0 -9 9v2q0 9 9 9h223q10 0 10 -10v-372q0 -10 -10 -10h-2q-10 0 -10 10v59q0 3 -2.5 4.5t-4.5 -0.5z
" />
    <glyph glyph-name="uni0122.aalt" horiz-adv-x="889" 
d="M495 -288q-7 6 -7 17q0 21 21 21t21 -21q0 -22 -9 -39.5t-24 -29.5q-6 -4 -11 1l-2 1q-4 6 0 10q11 13 16 25q3 10 -5 15zM763 -137q-54 -39 -120.5 -61t-140.5 -22q-103 0 -182.5 31t-134 90.5t-82.5 145.5t-28 197t32 197.5t91 146.5t143 91t188 31q18 0 45.5 -2
t57.5 -8.5t60 -18t54 -31t39 -48t15 -68.5q0 -37 -12.5 -64.5t-33.5 -45.5t-47.5 -27t-54.5 -9q-26 0 -48 7.5t-40 19.5q-7 4 -4 10l3 5q5 6 12 1q16 -11 35 -17t42 -6q24 0 47 8t40.5 23.5t28 39t10.5 55.5q0 35 -13.5 60.5t-35.5 42.5t-50 27.5t-55.5 16t-52.5 7t-42 1.5
q-99 0 -179 -30t-135.5 -87t-85.5 -139.5t-30 -188.5q0 -105 26 -187.5t77 -139.5t126.5 -86.5t173.5 -29.5q75 0 142.5 24.5t118.5 62.5q7 5 7 13v253q0 8 -8 8h-203q-9 0 -9 9v2q0 9 9 9h223q10 0 10 -10v-372q0 -10 -10 -10h-2q-10 0 -10 10v59q0 3 -2.5 4.5t-4.5 -0.5z
" />
    <glyph glyph-name="Gdotaccent.aalt" horiz-adv-x="889" 
d="M489 750q-21 0 -21 21t21 21t21 -21t-21 -21zM763 -137q-54 -39 -120.5 -61t-140.5 -22q-103 0 -182.5 31t-134 90.5t-82.5 145.5t-28 197t32 197.5t91 146.5t143 91t188 31q18 0 45.5 -2t57.5 -8.5t60 -18t54 -31t39 -48t15 -68.5q0 -37 -12.5 -64.5t-33.5 -45.5
t-47.5 -27t-54.5 -9q-26 0 -48 7.5t-40 19.5q-7 4 -4 10l3 5q5 6 12 1q16 -11 35 -17t42 -6q24 0 47 8t40.5 23.5t28 39t10.5 55.5q0 35 -13.5 60.5t-35.5 42.5t-50 27.5t-55.5 16t-52.5 7t-42 1.5q-99 0 -179 -30t-135.5 -87t-85.5 -139.5t-30 -188.5q0 -105 26 -187.5
t77 -139.5t126.5 -86.5t173.5 -29.5q75 0 142.5 24.5t118.5 62.5q7 5 7 13v253q0 8 -8 8h-203q-9 0 -9 9v2q0 9 9 9h223q10 0 10 -10v-372q0 -10 -10 -10h-2q-10 0 -10 10v59q0 3 -2.5 4.5t-4.5 -0.5z" />
    <glyph glyph-name="H.aalt" horiz-adv-x="1231" 
d="M260 429q-17 -11 -40 -18.5t-49 -7.5q-32 0 -59.5 11t-47.5 30.5t-31 46.5t-11 60t11 60t31 47t47.5 31t59.5 11h190q10 0 10 -10v-398q0 -8 8 -8h683q8 0 8 8v398q0 10 10 10h2q10 0 10 -10v-705q0 -62 15.5 -106.5t50.5 -74.5q8 -6 2 -14l-2 -2q-6 -8 -14 -2
q-38 32 -56 81t-18 118v271q0 8 -8 8h-683q-8 0 -8 -8v-456q0 -10 -10 -10h-2q-10 0 -10 10v872q0 8 -9 8h-169q-56 0 -91.5 -36t-35.5 -93t35.5 -92.5t91.5 -35.5q45 0 75 22q4 2 8 3t7 -4l2 -3q4 -7 -3 -12z" />
    <glyph glyph-name="Hbar.aalt" horiz-adv-x="1236" 
d="M379 540q-8 0 -8 -8v-240q0 -8 8 -8h683q8 0 8 8v240q0 8 -8 8h-683zM261 429q-17 -12 -40.5 -19t-49.5 -7q-32 0 -59.5 11t-47.5 30.5t-31 46.5t-11 60t11 60t31 47t47.5 31t59.5 11h190q10 0 10 -10v-121q0 -9 9 -9h681q9 0 9 9v121q0 10 10 10h2q10 0 10 -10v-121
q0 -9 9 -9h92q9 0 9 -9v-2q0 -9 -9 -9h-92q-9 0 -9 -9v-546q0 -62 15.5 -106.5t50.5 -74.5q8 -6 2 -14l-2 -2q-6 -8 -14 -2q-38 32 -56 81t-18 118v270q0 9 -9 9h-681q-9 0 -9 -9v-455q0 -10 -10 -10h-2q-10 0 -10 10v731q0 9 -9 9h-92q-9 0 -9 9v2q0 9 9 9h92q9 0 9 9v102
q0 9 -9 9h-169q-56 0 -91.5 -36t-35.5 -93t35.5 -92.5t91.5 -35.5q22 0 41.5 6t34.5 16q3 2 7 3t7 -4l2 -3q4 -7 -2 -12z" />
    <glyph glyph-name="Hcircumflex.aalt" horiz-adv-x="1231" 
d="M614 756q-5 5 0 10l99 96q7 7 14 0l99 -96q5 -5 0 -10l-1 -1q-5 -5 -10 -1l-89 79q-6 8 -12 0l-89 -79q-5 -4 -10 1zM260 429q-17 -11 -40 -18.5t-49 -7.5q-32 0 -59.5 11t-47.5 30.5t-31 46.5t-11 60t11 60t31 47t47.5 31t59.5 11h190q10 0 10 -10v-398q0 -8 8 -8h683
q8 0 8 8v398q0 10 10 10h2q10 0 10 -10v-705q0 -62 15.5 -106.5t50.5 -74.5q8 -6 2 -14l-2 -2q-6 -8 -14 -2q-38 32 -56 81t-18 118v271q0 8 -8 8h-683q-8 0 -8 -8v-456q0 -10 -10 -10h-2q-10 0 -10 10v872q0 8 -9 8h-169q-56 0 -91.5 -36t-35.5 -93t35.5 -92.5t91.5 -35.5
q45 0 75 22q4 2 8 3t7 -4l2 -3q4 -7 -3 -12z" />
    <glyph glyph-name="I.aalt" horiz-adv-x="314" 
d="M70 677q-10 0 -10 10v3q0 10 10 10h174q10 0 10 -10v-3q0 -10 -10 -10h-68q-8 0 -8 -8v-847q0 -9 8 -9h68q10 0 10 -10v-3q0 -10 -10 -10h-174q-10 0 -10 10v3q0 10 10 10h68q8 0 8 9v847q0 8 -8 8h-68z" />
    <glyph glyph-name="Iacute.aalt" horiz-adv-x="314" 
d="M70 677q-10 0 -10 10v3q0 10 10 10h174q10 0 10 -10v-3q0 -10 -10 -10h-68q-8 0 -8 -8v-847q0 -9 8 -9h68q10 0 10 -10v-3q0 -10 -10 -10h-174q-10 0 -10 10v3q0 10 10 10h68q8 0 8 9v847q0 8 -8 8h-68zM71 757q-2 6 3 9l158 96q3 2 6.5 1t5.5 -4l1 -1q2 -3 1 -6.5
t-4 -5.5l-160 -93q-7 -2 -10 3z" />
    <glyph glyph-name="Ibreve.aalt" horiz-adv-x="314" 
d="M70 677q-10 0 -10 10v3q0 10 10 10h174q10 0 10 -10v-3q0 -10 -10 -10h-68q-8 0 -8 -8v-847q0 -9 8 -9h68q10 0 10 -10v-3q0 -10 -10 -10h-174q-10 0 -10 10v3q0 10 10 10h68q8 0 8 9v847q0 8 -8 8h-68zM254 829q-6 -37 -32 -58t-65 -21t-65.5 21t-31.5 58q-2 8 6 8h2
q7 0 9 -8q6 -30 28.5 -46t51.5 -16t51 16t28 46q2 8 9 8h2q7 0 7 -8z" />
    <glyph glyph-name="Icircumflex.aalt" horiz-adv-x="314" 
d="M68 677q-10 0 -10 10v3q0 10 10 10h174q10 0 10 -10v-3q0 -10 -10 -10h-68q-8 0 -8 -8v-847q0 -9 8 -9h68q10 0 10 -10v-3q0 -10 -10 -10h-174q-10 0 -10 10v3q0 10 10 10h68q8 0 8 9v847q0 8 -8 8h-68zM49 756q-5 5 0 10l99 96q7 7 14 0l99 -96q5 -5 0 -10l-1 -1
q-5 -5 -10 -1l-89 79q-6 8 -12 0l-89 -79q-5 -4 -10 1z" />
    <glyph glyph-name="Idieresis.aalt" horiz-adv-x="314" 
d="M70 677q-10 0 -10 10v3q0 10 10 10h174q10 0 10 -10v-3q0 -10 -10 -10h-68q-8 0 -8 -8v-847q0 -9 8 -9h68q10 0 10 -10v-3q0 -10 -10 -10h-174q-10 0 -10 10v3q0 10 10 10h68q8 0 8 9v847q0 8 -8 8h-68zM231 750q-21 0 -21 21t21 21t21 -21t-21 -21zM84 750q-21 0 -21 21
t21 21t21 -21t-21 -21z" />
    <glyph glyph-name="Idotaccent.aalt" horiz-adv-x="314" 
d="M70 677q-10 0 -10 10v3q0 10 10 10h174q10 0 10 -10v-3q0 -10 -10 -10h-68q-8 0 -8 -8v-847q0 -9 8 -9h68q10 0 10 -10v-3q0 -10 -10 -10h-174q-10 0 -10 10v3q0 10 10 10h68q8 0 8 9v847q0 8 -8 8h-68zM157 750q-21 0 -21 21t21 21t21 -21t-21 -21z" />
    <glyph glyph-name="Igrave.aalt" horiz-adv-x="314" 
d="M70 677q-10 0 -10 10v3q0 10 10 10h174q10 0 10 -10v-3q0 -10 -10 -10h-68q-8 0 -8 -8v-847q0 -9 8 -9h68q10 0 10 -10v-3q0 -10 -10 -10h-174q-10 0 -10 10v3q0 10 10 10h68q8 0 8 9v847q0 8 -8 8h-68zM69 859q6 8 12 3l159 -96q6 -4 2 -9l-1 -1q-2 -5 -9 -3l-160 93
q-8 4 -4 12z" />
    <glyph glyph-name="Iogonek.aalt" horiz-adv-x="314" 
d="M70 677q-10 0 -10 10v3q0 10 10 10h174q10 0 10 -10v-3q0 -10 -10 -10h-68q-8 0 -8 -8v-847q0 -9 8 -9h68q10 0 10 -10v-3q0 -10 -10 -10h-69q-8 0 -14 -6q-20 -23 -34.5 -50.5t-14.5 -52.5q0 -19 11 -32t31 -13q32 0 60 13q6 4 8 -3l1 -2q2 -2 1 -4.5t-3 -3.5
q-30 -17 -67 -17q-30 0 -46 17t-16 45q0 26 14 52.5t34 50.5q2 2 1 4t-4 2h-67q-10 0 -10 10v3q0 10 10 10h68q8 0 8 9v847q0 8 -8 8h-68z" />
    <glyph glyph-name="Itilde.aalt" horiz-adv-x="314" 
d="M84 819q25 0 43 -8.5t34 -18.5t32 -18.5t37 -8.5q20 0 30 12t12 29q0 9 9 9h2q4 0 6.5 -3t1.5 -6q-2 -26 -18.5 -42.5t-42.5 -16.5q-24 0 -42 8.5t-34 18t-32.5 18t-37.5 8.5q-20 0 -30 -12.5t-12 -29.5q0 -8 -9 -8h-2q-8 0 -8 8q2 28 18.5 44.5t42.5 16.5zM70 677
q-10 0 -10 10v3q0 10 10 10h174q10 0 10 -10v-3q0 -10 -10 -10h-68q-8 0 -8 -8v-847q0 -9 8 -9h68q10 0 10 -10v-3q0 -10 -10 -10h-174q-10 0 -10 10v3q0 10 10 10h68q8 0 8 9v847q0 8 -8 8h-68z" />
    <glyph glyph-name="J.aalt" horiz-adv-x="612" 
d="M50 551q0 33 11 60t31 47t47.5 31t59.5 11h280q10 0 10 -10v-646q0 -69 -18.5 -119t-58.5 -82.5t-103.5 -47.5t-152.5 -15h-67q-10 0 -10 9v2q0 10 10 10h65q85 0 144.5 14t97 44t54.5 76t17 109v627q0 9 -9 9h-259q-56 0 -91.5 -36t-35.5 -93t35.5 -92.5t91.5 -35.5
q22 0 41.5 6t33.5 16q4 2 8 3t7 -4l2 -3q4 -7 -3 -12q-17 -12 -40 -19t-49 -7q-32 0 -59.5 11t-47.5 30.5t-31 46.5t-11 60z" />
    <glyph glyph-name="Jcircumflex.aalt" horiz-adv-x="612" 
d="M242 756q-3 5 0 10l99 96q8 8 14 0l99 -96q5 -5 0 -10l-1 -1q-5 -5 -10 -1l-88 79q-7 7 -13 0l-89 -79q-5 -4 -10 1zM50 551q0 33 11 60t31 47t47.5 31t59.5 11h280q10 0 10 -10v-646q0 -69 -18.5 -119t-58.5 -82.5t-103.5 -47.5t-152.5 -15h-67q-10 0 -10 9v2
q0 10 10 10h65q85 0 144.5 14t97 44t54.5 76t17 109v627q0 9 -9 9h-259q-56 0 -91.5 -36t-35.5 -93t35.5 -92.5t91.5 -35.5q22 0 41.5 6t33.5 16q4 2 8 3t7 -4l2 -3q4 -7 -3 -12q-17 -12 -40 -19t-49 -7q-32 0 -59.5 11t-47.5 30.5t-31 46.5t-11 60z" />
    <glyph glyph-name="K.aalt" horiz-adv-x="1006" 
d="M22 551q0 33 11 60t31 47t47.5 31t59.5 11h190q10 0 10 -10v-393q0 -9 9 -9h144q5 0 10.5 -0.5t11.5 -0.5q4 -1 8 0t7 3q63 38 122 84t109 97.5t88 107t61 112.5q5 9 14 9h4q4 0 6 -3t0 -6q-24 -60 -63.5 -118.5t-89 -111t-107 -97.5t-115.5 -80q-2 -1 -1.5 -3t2.5 -3
q51 -16 90 -53t70 -87t57 -109t52 -117.5t54.5 -113.5t64.5 -97t82 -67.5t108 -25.5q34 0 60 10.5t44 28t27 41t9 49.5q0 24 -7.5 47t-23 41t-39 29t-54.5 11q-21 0 -41 -5.5t-43 -19.5q-8 -5 -12 2l-1 2q-4 7 3 11q48 30 94 30q37 0 64.5 -12.5t45.5 -33.5t27 -47.5
t9 -54.5q0 -30 -10.5 -57t-31.5 -47.5t-51 -32.5t-69 -12q-69 0 -120 29t-90.5 77t-70 109t-58.5 125t-57 125t-64.5 109t-81 77t-106.5 29h-141q-9 0 -9 -9v-459q0 -10 -10 -10h-2q-10 0 -10 10v871q0 9 -9 9h-169q-56 0 -91.5 -36t-35.5 -93t35.5 -92.5t91.5 -35.5
q45 0 76 22q4 2 7.5 3t6.5 -4l2 -3q5 -8 -2 -12q-17 -12 -40.5 -19t-49.5 -7q-32 0 -59.5 11t-47.5 30.5t-31 46.5t-11 60z" />
    <glyph glyph-name="uni0136.aalt" horiz-adv-x="1006" 
d="M596 -299q-7 6 -7 17q0 21 21 21t21 -23q-1 -21 -10.5 -38t-23.5 -29q-2 -2 -5 -1.5t-5 2.5l-2 1q-5 5 0 10q11 13 16 25q3 10 -5 15zM22 551q0 33 11 60t31 47t47.5 31t59.5 11h190q10 0 10 -10v-393q0 -9 9 -9h144q5 0 10.5 -0.5t11.5 -0.5q4 -1 8 0t7 3q63 38 122 84
t109 97.5t88 107t61 112.5q5 9 14 9h4q4 0 6 -3t0 -6q-24 -60 -63.5 -118.5t-89 -111t-107 -97.5t-115.5 -80q-2 -1 -1.5 -3t2.5 -3q51 -16 90 -53t70 -87t57 -109t52 -117.5t54.5 -113.5t64.5 -97t82 -67.5t108 -25.5q34 0 60 10.5t44 28t27 41t9 49.5q0 24 -7.5 47t-23 41
t-39 29t-54.5 11q-21 0 -41 -5.5t-43 -19.5q-8 -5 -12 2l-1 2q-4 7 3 11q48 30 94 30q37 0 64.5 -12.5t45.5 -33.5t27 -47.5t9 -54.5q0 -30 -10.5 -57t-31.5 -47.5t-51 -32.5t-69 -12q-69 0 -120 29t-90.5 77t-70 109t-58.5 125t-57 125t-64.5 109t-81 77t-106.5 29h-141
q-9 0 -9 -9v-459q0 -10 -10 -10h-2q-10 0 -10 10v871q0 9 -9 9h-169q-56 0 -91.5 -36t-35.5 -93t35.5 -92.5t91.5 -35.5q45 0 76 22q4 2 7.5 3t6.5 -4l2 -3q5 -8 -2 -12q-17 -12 -40.5 -19t-49.5 -7q-32 0 -59.5 11t-47.5 30.5t-31 46.5t-11 60z" />
    <glyph glyph-name="L.aalt" horiz-adv-x="921" 
d="M22 551q0 33 11 60t31 47t47.5 31t59.5 11h190q10 0 10 -10v-871q0 -9 9 -9h534q9 0 9 -9v-2q0 -9 -9 -9h-555q-10 0 -10 10v871q0 9 -9 9h-169q-56 0 -91.5 -36t-35.5 -93t35.5 -92.5t91.5 -35.5q45 0 76 22q4 2 7.5 3t6.5 -4l2 -3q5 -8 -2 -12q-17 -12 -40.5 -19
t-49.5 -7q-32 0 -59.5 11t-47.5 30.5t-31 46.5t-11 60z" />
    <glyph glyph-name="Lacute.aalt" horiz-adv-x="921" 
d="M356 757q-2 7 3 9l158 96q3 2 6.5 1t5.5 -4l1 -1q2 -3 1 -6.5t-4 -5.5l-160 -93q-7 -2 -10 3zM22 551q0 33 11 60t31 47t47.5 31t59.5 11h190q10 0 10 -10v-871q0 -9 9 -9h534q9 0 9 -9v-2q0 -9 -9 -9h-555q-10 0 -10 10v871q0 9 -9 9h-169q-56 0 -91.5 -36t-35.5 -93
t35.5 -92.5t91.5 -35.5q45 0 76 22q4 2 7.5 3t6.5 -4l2 -3q5 -8 -2 -12q-17 -12 -40.5 -19t-49.5 -7q-32 0 -59.5 11t-47.5 30.5t-31 46.5t-11 60z" />
    <glyph glyph-name="Lcaron.aalt" horiz-adv-x="923" 
d="M663 637q12 22 18 50t8 53q0 10 10 10h3q4 0 7 -3t2 -7q-2 -29 -12 -60.5t-24 -50.5q-1 -2 -3.5 -2.5t-4.5 0.5l-2 2q-5 3 -2 8zM22 551q0 33 11 60t31 47t47.5 31t59.5 11h190q10 0 10 -10v-871q0 -9 9 -9h534q9 0 9 -9v-2q0 -9 -9 -9h-555q-10 0 -10 10v871q0 9 -9 9
h-169q-56 0 -91.5 -36t-35.5 -93t35.5 -92.5t91.5 -35.5q45 0 76 22q4 2 7.5 3t6.5 -4l2 -3q5 -8 -2 -12q-17 -12 -40.5 -19t-49.5 -7q-32 0 -59.5 11t-47.5 30.5t-31 46.5t-11 60z" />
    <glyph glyph-name="uni013B.aalt" horiz-adv-x="921" 
d="M620 -288q-7 6 -7 17q0 21 21 21t21 -21q0 -22 -9.5 -39.5t-23.5 -29.5q-6 -4 -11 1l-2 1q-5 5 0 10q11 13 16 25q3 10 -5 15zM22 551q0 33 11 60t31 47t47.5 31t59.5 11h190q10 0 10 -10v-871q0 -9 9 -9h534q9 0 9 -9v-2q0 -9 -9 -9h-555q-10 0 -10 10v871q0 9 -9 9
h-169q-56 0 -91.5 -36t-35.5 -93t35.5 -92.5t91.5 -35.5q45 0 76 22q4 2 7.5 3t6.5 -4l2 -3q5 -8 -2 -12q-17 -12 -40.5 -19t-49.5 -7q-32 0 -59.5 11t-47.5 30.5t-31 46.5t-11 60z" />
    <glyph glyph-name="Ldot.aalt" horiz-adv-x="925" 
d="M703 301q-21 0 -21 21t21 21t21 -21t-21 -21zM22 551q0 33 11 60t31 47t47.5 31t59.5 11h190q10 0 10 -10v-871q0 -9 9 -9h534q9 0 9 -9v-2q0 -9 -9 -9h-555q-10 0 -10 10v871q0 9 -9 9h-169q-56 0 -91.5 -36t-35.5 -93t35.5 -92.5t91.5 -35.5q45 0 76 22q4 2 7.5 3
t6.5 -4l2 -3q5 -8 -2 -12q-17 -12 -40.5 -19t-49.5 -7q-32 0 -59.5 11t-47.5 30.5t-31 46.5t-11 60z" />
    <glyph glyph-name="glyph124" horiz-adv-x="921" 
d="M22 551q0 33 11 60t31 47t47.5 31t59.5 11h190q10 0 10 -10v-439q0 -3 2.5 -5t4.5 0l155 90q7 4 12 -2l2 -3q6 -8 -2 -12l-167 -96q-7 -4 -7 -13v-391q0 -9 9 -9h534q9 0 9 -9v-2q0 -9 -9 -9h-555q-10 0 -10 10v397q0 3 -2.5 5t-4.5 0l-114 -66q-8 -4 -12 2l-2 3
q-2 4 -0.5 7t4.5 5l124 72q7 3 7 13v433q0 9 -9 9h-169q-56 0 -91.5 -36t-35.5 -93t35.5 -92.5t91.5 -35.5q45 0 76 22q4 2 7.5 3t6.5 -4l2 -3q5 -8 -2 -12q-17 -12 -40.5 -19t-49.5 -7q-32 0 -59.5 11t-47.5 30.5t-31 46.5t-11 60z" />
    <glyph glyph-name="M.aalt" horiz-adv-x="1283" 
d="M22 551q0 33 11 60t31 47t47.5 31t59.5 11h190q10 0 16 -8l369 -522q5 -7 10 0l369 522q6 8 16 8h2q10 0 10 -10v-890q0 -10 -10 -10h-2q-10 0 -10 10v854q0 7 -5 2l-361 -510q-5 -7 -13 -7h-2q-8 0 -13 7l-361 510q-5 5 -5 -2v-854q0 -10 -10 -10h-2q-10 0 -10 10v871
q0 9 -9 9h-169q-56 0 -91.5 -36t-35.5 -93t35.5 -92.5t91.5 -35.5q45 0 76 22q4 2 7.5 3t6.5 -4l2 -3q5 -8 -2 -12q-17 -12 -40.5 -19t-49.5 -7q-32 0 -59.5 11t-47.5 30.5t-31 46.5t-11 60z" />
    <glyph glyph-name="N.aalt" horiz-adv-x="1222" 
d="M22 551q0 33 11 60t31 47t47.5 31t59.5 11h190q10 0 16 -8l688 -859q2 -2 3.5 -1t1.5 3v855q0 10 10 10h2q10 0 10 -10v-890q0 -10 -10 -10h-2q-10 0 -16 8l-688 860q-2 2 -3.5 1t-1.5 -3v-856q0 -10 -10 -10h-2q-10 0 -10 10v871q0 9 -9 9h-169q-56 0 -91.5 -36
t-35.5 -93t35.5 -92.5t91.5 -35.5q45 0 76 22q4 2 7.5 3t6.5 -4l2 -3q5 -8 -2 -12q-17 -12 -40.5 -19t-49.5 -7q-32 0 -59.5 11t-47.5 30.5t-31 46.5t-11 60z" />
    <glyph glyph-name="Nacute.aalt" horiz-adv-x="1222" 
d="M689 757q-2 6 3 9l158 96q3 2 6.5 1t5.5 -4l1 -1q2 -3 1 -6.5t-4 -5.5l-160 -93q-7 -2 -10 3zM22 551q0 33 11 60t31 47t47.5 31t59.5 11h190q10 0 16 -8l688 -859q2 -2 3.5 -1t1.5 3v855q0 10 10 10h2q10 0 10 -10v-890q0 -10 -10 -10h-2q-10 0 -16 8l-688 860
q-2 2 -3.5 1t-1.5 -3v-856q0 -10 -10 -10h-2q-10 0 -10 10v871q0 9 -9 9h-169q-56 0 -91.5 -36t-35.5 -93t35.5 -92.5t91.5 -35.5q45 0 76 22q4 2 7.5 3t6.5 -4l2 -3q5 -8 -2 -12q-17 -12 -40.5 -19t-49.5 -7q-32 0 -59.5 11t-47.5 30.5t-31 46.5t-11 60z" />
    <glyph glyph-name="Ncaron.aalt" horiz-adv-x="1222" 
d="M727 757q-7 -7 -14 0l-99 96q-5 5 0 10l1 1q5 5 10 0l89 -80q6 -6 12 0l89 80q5 5 10 0l1 -1q5 -5 0 -10zM22 551q0 33 11 60t31 47t47.5 31t59.5 11h190q10 0 16 -8l688 -859q2 -2 3.5 -1t1.5 3v855q0 10 10 10h2q10 0 10 -10v-890q0 -10 -10 -10h-2q-10 0 -16 8
l-688 860q-2 2 -3.5 1t-1.5 -3v-856q0 -10 -10 -10h-2q-10 0 -10 10v871q0 9 -9 9h-169q-56 0 -91.5 -36t-35.5 -93t35.5 -92.5t91.5 -35.5q45 0 76 22q4 2 7.5 3t6.5 -4l2 -3q5 -8 -2 -12q-17 -12 -40.5 -19t-49.5 -7q-32 0 -59.5 11t-47.5 30.5t-31 46.5t-11 60z" />
    </font>
</defs>
</svg>
